<svg width="336" height="159" viewBox="0 0 336 159" fill="none" xmlns="http://www.w3.org/2000/svg">
<path d="M63 32.4025C63.9813 32.3726 64.9413 32.1081 65.7999 31.6312C65.9724 31.4709 66.1147 31.2809 66.22 31.0702C66.2635 30.8385 66.2635 30.6007 66.22 30.369C66.22 30.369 66.22 30.369 66.22 30.369C66.22 30.369 66.22 30.369 65.73 30.369H65.31C65.4926 30.4236 65.6873 30.4236 65.8699 30.369C65.8699 30.369 65.8699 30.369 65.8699 30.0185C65.9162 29.9074 65.94 29.7882 65.94 29.6679C65.94 29.5475 65.9162 29.4284 65.8699 29.3173C63.6526 28.4195 61.2427 28.1057 58.87 28.4058C53.83 28.4058 46.97 28.7563 38.29 29.4575C33.53 29.8782 31.29 30.0185 30.59 30.0185C29.89 30.0185 29.61 30.0185 29.61 30.0185C29.61 29.2472 30.03 27.354 30.38 24.4792C30.6445 22.8077 30.8082 21.1218 30.87 19.4307C30.9178 19.2231 30.9178 19.0072 30.87 18.7996C30.87 18.0283 30.38 17.6777 30.17 17.6777C30.17 17.6777 30.17 17.6777 29.82 17.6777C29.47 17.6777 29.82 17.6777 29.82 17.6777V15.0834C29.8561 14.9218 29.8561 14.7542 29.82 14.5926C29.82 14.5926 29.82 14.5926 29.33 14.5926C28.84 14.5926 29.33 14.5926 28.91 15.0133L28 15.0834V14.1719C28.0454 14.1112 28.07 14.0374 28.07 13.9615C28.07 13.8856 28.0454 13.8118 28 13.7511C28 13.7511 28 13.7511 27.58 13.7511C27.16 13.7511 27.09 13.7511 26.88 14.6627C26.67 15.5742 26.53 15.3639 26.46 15.3639V13.9615C26.3356 13.9683 26.216 14.0119 26.1163 14.0868C26.0166 14.1617 25.9413 14.2645 25.9 14.3822C25.9 14.3822 25.9 14.8029 25.9 14.8029C25.9 14.8029 25.9 14.3121 25.41 14.3121C24.92 14.3121 25.41 14.3121 24.99 14.3121C24.7707 14.3327 24.5599 14.4076 24.3767 14.53C24.1934 14.6524 24.0434 14.8184 23.94 15.0133C23.94 15.0133 23.94 15.434 23.94 15.434C23.94 15.434 21 14.8029 21 15.0834C21 15.3639 20.3 17.9582 19.39 22.0952C18.83 24.8999 18.27 27.4942 17.78 30.0185C16.3011 30.0885 14.8281 30.2524 13.37 30.5093C10.2925 31.1495 7.27249 32.0406 4.34 33.1738C1.4 33.7347 0 34.7865 0 35.8382C0 36.89 0 35.8382 0 35.8382H0.35C0.388111 36.0469 0.388111 36.2607 0.35 36.4693C0.35 36.89 -0.0699999 37.2406 0.35 37.3107C0.769999 37.3808 0.35 37.3107 0.35 37.3107H1.05C1.05 37.3107 0.63 37.3107 0.63 37.7314C0.63 37.7314 0.63 37.7314 1.05 37.7314H2.94C5.81 37.7314 9.09999 37.1705 12.74 36.5394L16.31 36.0486H17.15C17.15 40.0453 16.66 45.6547 16.24 52.8067C15.61 64.7267 15.05 75.2444 14.56 86.2529C14.1068 94.3334 14.1068 102.433 14.56 110.514C14.5618 111.837 14.8235 113.148 15.33 114.37C15.7093 115.377 16.4272 116.22 17.36 116.754C17.658 116.834 17.972 116.834 18.27 116.754H18.97C19.6573 116.67 20.3146 116.423 20.8869 116.032C21.4592 115.642 21.93 115.12 22.26 114.51C22.26 114.09 22.82 107.008 23.66 93.475C24.92 73.1409 25.69 61.5714 25.97 58.8368C26.563 51.2385 27.5678 43.678 28.98 36.1888C36.8237 34.5699 44.7808 33.5619 52.78 33.1738L63 32.4025ZM7.69999 38.2924H6.99999H7.97999H7.69999ZM6.99999 37.5211H5.6C6.15557 37.4213 6.72442 37.4213 7.27999 37.5211H8.53999H9.09999C8.40249 37.6048 7.6975 37.6048 6.99999 37.5211V37.5211ZM9.65999 37.9418H10.43H11.13H9.65999ZM11.34 35.7681L4.9 37.1003L3.01 37.4509C5.60132 36.6942 8.24529 36.1317 10.92 35.7681L15.96 34.9267C14.5107 35.3068 13.0373 35.5879 11.55 35.7681H11.34ZM20.3 65.6383C21 59.3978 21 54.2091 21.91 49.4411C22.61 43.4109 23.17 39.9051 23.38 38.8533L22.33 49.371C22.33 52.6665 21.63 56.3827 21.21 61.291C21.21 62.9738 21.21 64.5164 20.72 65.8486C20.09 72.8604 19.74 76.2962 19.74 76.2962C19.67 74.3329 19.88 70.7569 20.3 65.6383ZM21 85.7621C20.9543 87.335 20.814 88.9038 20.58 90.4599V90.4599C20.58 90.4599 20.58 87.3748 21 82.1159C21.42 73.842 22.12 65.7785 23.1 58.0656C23.0402 57.2954 23.0402 56.5218 23.1 55.7517C23.1 55.7517 23.1 59.1874 22.33 65.5681C21.56 71.9489 21.35 78.3296 21 85.7621ZM24.43 63.4646C23.38 72.7903 22.68 80.5032 22.26 86.6736L21.84 91.3715C21.84 90.8806 21.84 89.4082 21.84 86.8839C22.33 77.6284 23.38 66.8303 24.92 54.5597C25.0047 53.474 25.1685 52.396 25.41 51.3342C25.27 52.1757 24.92 56.1724 24.22 63.4646H24.43Z" fill="#006D77"/>
<path d="M336 35.8382C336 35.8382 336 35.8382 336 35.3474C336.004 35.22 335.964 35.095 335.888 34.9931C335.812 34.8911 335.703 34.8182 335.58 34.7864C335.58 34.7864 335.58 34.7864 335.58 34.7864C334.569 34.9811 333.583 35.2868 332.64 35.698C326.159 39.1811 320.275 43.6786 315.21 49.0203C314.51 49.7747 313.736 50.456 312.9 51.0537V51.0537C312.9 50.5629 312.9 46.3559 313.88 38.5728C313.947 37.8498 313.947 37.1221 313.88 36.3991C313.789 34.8327 313.307 33.314 312.48 31.9817C311.794 30.8998 310.826 30.0268 309.68 29.4575C308.84 29.0129 307.899 28.7953 306.95 28.8264C306.464 28.8461 305.989 28.9688 305.554 29.1863C305.12 29.4039 304.737 29.7114 304.43 30.0885C303.821 30.8565 303.282 31.6779 302.82 32.5427C302.474 33.2737 301.972 33.9199 301.35 34.4358C301.35 34.4358 301.35 34.4358 301.35 33.3841C301.334 32.8384 301.178 32.306 300.896 31.839C300.614 31.372 300.215 30.9863 299.74 30.7196C298.523 30.0523 297.121 29.8058 295.75 30.0184C293.842 30.2396 291.999 30.8517 290.337 31.8167C288.675 32.7817 287.23 34.079 286.09 35.6278C285.263 36.6795 284.537 37.8063 283.92 38.9935L283.15 39.4142C280.95 40.6719 278.597 41.6382 276.15 42.289H274.4H273.98V41.658L271.74 40.1855L270.76 37.8716C270.46 37.2892 270.029 36.785 269.5 36.3991C269.078 35.9965 268.578 35.686 268.03 35.4876C267.219 35.3516 266.391 35.3516 265.58 35.4876C265.192 35.5021 264.821 35.6507 264.53 35.9083C263.899 36.6092 263.358 37.3865 262.92 38.2222L260.82 41.5878C259.98 42.85 259.21 44.1121 258.51 45.3742C257.74 46.7766 257.32 47.4076 257.32 47.4076C257.466 45.7098 257.724 44.0234 258.09 42.3591C258.645 39.6585 258.95 36.9122 259 34.1554C259.066 33.8315 259.066 33.4976 259 33.1737C259 33.1737 259 32.753 258.58 32.753C258.58 32.753 258.58 32.753 258.16 32.753C257.892 33.2508 257.658 33.7662 257.46 34.2956V32.8933V32.4024C257.46 32.4024 257.46 32.4024 257.11 32.4024H256.62C256.2 32.4024 255.71 33.7347 255.08 36.2589C254.45 38.7831 253.89 41.5177 253.33 44.8133L252.84 45.5144C249.41 50.7733 246.33 55.2608 243.67 58.977C241.01 62.6933 239.4 64.5865 238.91 64.5865C238.91 64.5865 238.91 64.5865 238.91 63.9554C238.868 63.4889 238.868 63.0196 238.91 62.553C239.001 56.9909 239.753 51.4595 241.15 46.0754C240.446 44.0564 239.604 42.0885 238.63 40.1855C238.723 39.2529 238.723 38.3133 238.63 37.3808C238.553 36.3521 238.075 35.395 237.3 34.7163C236.513 34.0723 235.514 33.747 234.5 33.8048C233.739 33.8976 233.015 34.1876 232.4 34.6462C231.601 35.174 230.95 35.8983 230.51 36.7497C230.51 37.3107 229.88 37.8716 229.53 38.4326L228.48 39.9751C228.48 40.3958 227.99 40.6062 227.85 40.6763C227.71 40.7464 227.85 40.6763 227.85 40.6763C227.808 40.4445 227.808 40.207 227.85 39.9751C227.815 39.4246 227.651 38.89 227.372 38.4148C227.092 37.9397 226.704 37.5373 226.24 37.2406C225 36.6406 223.619 36.3979 222.25 36.5394C220.336 36.769 218.49 37.392 216.828 38.3693C215.166 39.3466 213.723 40.6571 212.59 42.2189C211.312 43.7507 210.208 45.4205 209.3 47.1973C208.355 49.1202 207.627 51.1428 207.13 53.2274V53.2274C206.5 54.6297 205.8 56.4528 204.82 58.6966C203.84 60.9403 201.88 66.1992 199.78 72.1592L197.19 79.171C196.192 82.2564 194.952 85.2575 193.48 88.146C192.702 89.5202 191.787 90.8122 190.75 92.0025C190.33 92.5634 190.05 92.8439 189.91 92.8439C189.49 92.8439 188.93 92.0025 188.37 90.1794C187.977 88.5226 187.743 86.8322 187.67 85.131C187.326 81.0012 187.326 76.8499 187.67 72.7201C187.67 70.4062 188.51 65.7084 189.49 58.6966C189.91 55.7049 190.26 53.3676 190.54 51.6848C191.1 48.3893 192.5 41.7281 194.67 31.6311C195.51 27.5643 196.28 24.1987 196.91 21.5342C197.972 17.785 198.606 13.9272 198.8 10.0349C198.8 9.19346 198.59 8.77275 198.17 8.77275C198.17 8.77275 198.17 8.77275 198.17 8.42216C198.17 8.07158 198.17 7.65087 197.54 7.65087C197.263 7.75076 197.003 7.89265 196.77 8.07158C196.77 8.07158 196.77 8.07158 196.77 7.51063C196.773 7.3466 196.719 7.18659 196.617 7.05847C196.514 6.93036 196.37 6.84224 196.21 6.80946C195.86 6.80946 195.51 7.30028 195.09 8.35205C194.67 9.40381 195.09 8.91299 195.09 8.91299C195.09 8.91299 195.09 8.14169 195.09 7.86122C195.119 7.55806 195.119 7.25286 195.09 6.94969C195.11 6.81018 195.11 6.6685 195.09 6.52899C195.09 6.52899 195.09 6.1784 194.46 6.1784H194.04C194.04 6.1784 194.04 6.1784 193.55 6.1784C193.06 6.1784 193.13 6.1784 193.13 6.1784C192.986 6.17575 192.843 6.2138 192.72 6.28818C192.596 6.36257 192.495 6.47031 192.43 6.5991C192.266 6.76787 192.077 6.90984 191.87 7.01981C190.915 7.98779 190.196 9.16361 189.77 10.4556C188.747 12.7389 187.859 15.0801 187.11 17.4674C184.533 26.0438 182.523 34.7806 181.09 43.6213C181.09 45.3041 180.6 46.8467 180.32 48.5295C179.55 49.7215 178.22 51.4744 176.4 53.8585C174.58 56.2425 172.62 58.8368 170.31 61.5013C168.161 64.0159 165.82 66.3602 163.31 68.5131C161.721 70.1459 159.667 71.2478 157.43 71.6684C157.109 71.711 156.783 71.6895 156.471 71.6053C156.159 71.521 155.866 71.3757 155.61 71.1775C155.154 70.776 154.793 70.2788 154.551 69.7213C154.309 69.1638 154.192 68.5598 154.21 67.9521C154.266 63.6645 155.22 59.4364 157.01 55.5413C157.955 55.9579 158.991 56.1269 160.02 56.0321C160.351 55.9292 160.678 55.8122 161 55.6815C161.559 55.5324 162.099 55.3207 162.61 55.0505C164.027 54.2027 165.283 53.1108 166.32 51.825C167.384 50.4156 168.233 48.8561 168.84 47.1973C169.522 45.7793 169.835 44.2114 169.75 42.6396C169.699 41.8464 169.459 41.0771 169.05 40.3959C168.666 39.6463 168.085 39.016 167.37 38.5728C166.032 37.8896 164.521 37.6211 163.03 37.8015C161.86 37.8795 160.706 38.1153 159.6 38.5027C158.369 38.9281 157.212 39.5432 156.17 40.3257C153.756 42.0828 151.71 44.2986 150.15 46.8467C149.225 48.2075 148.406 49.6375 147.7 51.1239H147C144.427 52.2431 141.679 52.9073 138.88 53.0872H136.5H135.66L134.54 52.4561C134.242 52.157 134.067 51.7565 134.05 51.3342C134.063 50.3661 134.18 49.4023 134.4 48.4594C134.4 47.1973 135.03 45.3742 135.59 42.9201C135.86 42.1299 136.002 41.3013 136.01 40.466V40.1855H135.38H134.89H133C132.815 40.1496 132.625 40.1496 132.44 40.1855C132.072 40.0963 131.688 40.0963 131.32 40.1855C130.963 40.3145 130.632 40.5043 130.34 40.7464C129.726 41.4104 129.186 42.1392 128.73 42.9201C128.258 43.8209 127.86 44.7589 127.54 45.7248C127.14 47.0172 126.974 48.3707 127.05 49.7215C127.17 51.1086 127.6 52.4508 128.31 53.6481V54.1389C128.34 54.2775 128.34 54.421 128.31 54.5596C128.342 54.8626 128.342 55.1682 128.31 55.4712C128.134 55.9748 127.994 56.4903 127.89 57.0137C127.19 59.4679 126.35 61.922 125.44 64.0255C124.704 65.9863 123.863 67.9057 122.92 69.7752C122.541 70.4327 122.12 71.0651 121.66 71.6684L120.26 73.4213C119.77 73.9822 119.49 74.1926 119.42 74.1926C118.916 73.8026 118.548 73.2625 118.37 72.65C118.103 71.7123 117.939 70.7484 117.88 69.7752C117.676 67.1146 117.676 64.4423 117.88 61.7818C117.88 58.6966 118.44 55.8217 118.72 53.017C119.047 50.6931 119.234 48.3516 119.28 46.0053C119.251 45.8429 119.251 45.6768 119.28 45.5144V45.5144C119.28 45.5144 119.28 45.0937 118.86 45.0937V44.6029C118.86 44.6029 118.86 44.6029 118.44 44.6029C118.02 44.6029 118.44 44.6029 118.44 44.6029C118.44 44.6029 118.44 44.042 118.09 44.1121H117.46C117.179 44.2623 116.939 44.4789 116.76 44.7431C114.912 47.4542 113.78 50.5903 113.47 53.8585C113.436 54.4189 113.436 54.9808 113.47 55.5413V55.5413C110.04 60.8001 107.03 65.2876 104.3 69.0039C101.57 72.7201 100.03 74.6133 99.6099 74.6133C99.6099 74.6133 99.6099 74.6133 99.6099 73.9121C99.6099 73.2109 99.6099 73.0707 99.6099 72.5799C99.7341 67.0203 100.486 61.4926 101.85 56.1022C102.41 53.8585 102.76 52.1756 102.97 51.1239C103.064 50.1913 103.064 49.2517 102.97 48.3192C102.934 47.8122 102.799 47.3173 102.572 46.8629C102.345 46.4085 102.031 46.0035 101.647 45.6712C101.263 45.3388 100.818 45.0858 100.336 44.9265C99.8542 44.7673 99.3458 44.7049 98.8399 44.7431C98.0788 44.836 97.355 45.126 96.7399 45.5846C95.9408 46.1124 95.2901 46.8366 94.8499 47.6881L93.8699 49.3709C93.57 49.9176 93.2184 50.4342 92.8199 50.9135C92.6656 51.192 92.4502 51.4317 92.1899 51.6147C92.1899 51.6147 92.1899 51.6147 92.1899 51.6147C92.1899 51.6147 92.1899 51.194 92.1899 50.9135C92.2668 50.3629 92.2063 49.8017 92.0138 49.2802C91.8212 48.7587 91.5028 48.2931 91.0867 47.925C90.6707 47.5569 90.1702 47.2978 89.6298 47.1708C89.0894 47.0438 88.526 47.0529 87.9899 47.1973C86.758 46.5747 85.3699 46.3308 84 46.4961C82.0917 46.7172 80.2494 47.3294 78.5875 48.2944C76.9256 49.2594 75.4798 50.5567 74.34 52.1055C73.85 52.7366 73.43 53.4377 72.94 54.1389L71.12 55.1206C68.8108 56.4069 66.3383 57.3739 63.77 57.9954H62.09H61.6V57.3643L61.04 56.1723L59.78 54.209C59.4802 53.6266 59.0487 53.1224 58.52 52.7366C58.0984 52.3339 57.5978 52.0235 57.05 51.825C56.2369 51.7169 55.4131 51.7169 54.6 51.825C54.2004 51.8985 53.8335 52.0945 53.55 52.386C52.9473 52.9318 52.4073 53.5432 51.94 54.209L49.84 57.5747C49.0212 58.7441 48.2731 59.9616 47.6 61.2208L46.34 63.2542C46.34 63.2542 46.34 61.361 47.11 58.2057C47.6892 55.5801 47.9942 52.9012 48.02 50.2123C48.0196 49.7676 47.8987 49.3314 47.67 48.9502C47.67 48.9502 47.67 48.9502 47.67 48.9502V48.5295C47.718 48.3934 47.718 48.2449 47.67 48.1088C47.67 48.1088 47.67 48.1088 47.67 48.1088C47.4022 48.6066 47.1684 49.122 46.97 49.6514V49.6514V47.8984V47.4076C46.8097 47.4525 46.6402 47.4525 46.48 47.4076V47.4076C46.48 47.4076 45.57 48.7399 44.94 51.2641C44.31 53.7883 39.55 57.2942 38.92 61.2208C38.29 65.1474 37.73 68.2326 37.38 72.0189C37.1535 74.9361 37.1535 77.8665 37.38 80.7837C37.38 82.2561 37.87 83.0274 38.43 82.9573C38.6238 83.1906 38.8992 83.3411 39.2 83.378V83.378H39.69C39.69 83.378 40.18 83.378 40.67 83.378H41.37H42C42 83.378 42.49 82.4665 42.91 80.7837C44.6795 72.7701 47.9323 65.1596 52.5 58.346C52.92 57.785 53.2 57.4345 53.41 57.4345C53.62 57.4345 53.41 57.4345 53.97 58.2057C54.2761 58.8896 54.6767 59.5269 55.16 60.0989C55.6307 60.6273 56.2018 61.0563 56.84 61.3611C57.9137 61.4926 59.0017 61.4452 60.06 61.2208C60.9207 61.3152 61.7892 61.3152 62.65 61.2208C64.0404 61.0732 65.4054 60.7431 66.71 60.2392C68.0251 59.7013 69.3103 59.0927 70.56 58.4161C69.8332 60.0456 69.2478 61.7346 68.81 63.4646C68.636 65.0022 68.636 66.5547 68.81 68.0923C68.88 69.5586 69.2618 70.9929 69.93 72.2994C70.3416 73.0518 70.9456 73.681 71.68 74.1225C72.6249 74.6225 73.6396 74.9771 74.69 75.1742C75.388 75.2485 76.0919 75.2485 76.79 75.1742C78.1969 75.0551 79.5599 74.624 80.78 73.9121C81.7324 73.2146 82.5607 72.3612 83.23 71.3879C84.14 70.1258 85.26 68.3027 86.73 65.7785C87.1644 64.8597 87.7303 64.0093 88.4099 63.2542V63.2542C88.2085 65.1889 88.2085 67.1393 88.4099 69.074C88.4099 70.1959 88.4099 71.2476 88.8999 72.2293C89.1651 73.9396 90.002 75.5092 91.2736 76.681C92.5453 77.8529 94.1763 78.5577 95.8999 78.6801H97.1599C98.9674 78.599 100.673 77.82 101.92 76.5065L103.74 73.7719C104.72 72.3695 105.7 70.7568 106.82 69.0039L109.69 64.2359L111.37 61.2909C111.37 62.4829 111.37 63.745 111.37 64.9371C111.517 67.754 112.206 70.5159 113.4 73.0707C113.863 73.9263 114.453 74.7066 115.15 75.3846C115.71 75.9351 116.377 76.3647 117.11 76.6467C117.362 76.7188 117.628 76.7188 117.88 76.6467H119H120.61L121.94 76.0157C122.772 75.4941 123.527 74.8567 124.18 74.1225C124.933 73.4075 125.571 72.5796 126.07 71.6684C126.751 70.3716 127.359 69.0372 127.89 67.6716C128.59 65.9888 129.15 64.306 129.78 62.4829C129.743 62.3691 129.743 62.2462 129.78 62.1323C129.78 60.9403 130.48 60.0288 130.69 59.1874C130.9 58.346 131.18 57.8552 131.32 57.3643C131.46 56.8735 131.32 56.5229 131.67 56.3126V55.8217H132.58H133.7C135.328 56.1974 137.005 56.3157 138.67 56.1723C140.378 56.015 142.067 55.6861 143.71 55.1907L145.04 54.6999L144.69 55.401C143.626 58.413 143.174 61.6074 143.36 64.7968C143.479 66.3615 143.907 67.8868 144.62 69.2843C145.319 70.6498 146.386 71.7915 147.7 72.5799C149.524 74.0174 151.699 74.9377 154 75.2444H155.68C156.441 75.1987 157.194 75.0574 157.92 74.8236L160.37 74.1225C163.35 72.613 165.956 70.4572 168 67.8119C170.11 65.3031 172.051 62.6562 173.81 59.8886L174.16 59.3978C175.467 57.4345 176.657 55.6114 177.73 53.9286C176.538 62.0508 176.163 70.2724 176.61 78.4698C177.45 88.707 180.32 94.8773 185.36 97.051C186.073 97.2263 186.817 97.2263 187.53 97.051C189.324 96.9084 191.033 96.2238 192.43 95.0877C193.404 94.3031 194.233 93.3539 194.88 92.283C196.236 89.7882 197.384 87.1849 198.31 84.4999C199.15 82.4665 200.69 78.0491 203.07 71.2477C204.61 66.9705 205.94 63.2542 207.2 59.8886C207.347 60.5038 207.583 61.0943 207.9 61.6415C208.293 62.4071 208.902 63.0407 209.65 63.4646C210.59 63.9762 211.606 64.3315 212.66 64.5163C213.356 64.6221 214.064 64.6221 214.76 64.5163C216.165 64.3861 217.525 63.9557 218.75 63.2542C219.69 62.7109 220.54 62.025 221.27 61.2208C222.11 60.0288 223.3 58.1356 224.77 55.6815C225.221 54.7666 225.761 53.8977 226.38 53.0872V53.0872C226.178 55.0453 226.178 57.019 226.38 58.977C226.469 60.0159 226.633 61.0469 226.87 62.0622C227.123 63.7778 227.956 65.3544 229.23 66.5285C230.504 67.7027 232.142 68.4032 233.87 68.5131H235.13C236.923 68.3958 238.602 67.5924 239.82 66.2693C240.51 65.4009 241.141 64.4873 241.71 63.5347C242.69 62.1323 243.67 60.5196 244.79 58.7667C245.91 57.0137 246.82 55.4712 247.59 54.0688L248.92 51.7549C248.92 52.9469 248.92 54.1389 248.43 55.3309C248.169 58.2466 248.169 61.1799 248.43 64.0956C248.43 65.5681 248.92 66.3394 249.48 66.2693C249.674 66.5026 249.949 66.6531 250.25 66.69H250.6H251.09C251.09 66.69 251.58 66.69 252.07 66.69H252.77C253.229 65.8881 253.537 65.0088 253.68 64.0956C255.419 56.0722 258.674 48.4561 263.27 41.658C263.69 41.097 263.97 40.7464 264.18 40.7464C264.39 40.7464 264.18 40.7464 264.74 41.5177C265.046 42.2015 265.447 42.8388 265.93 43.4109C266.401 43.9393 266.972 44.3683 267.61 44.673C268.211 44.9953 268.845 45.2538 269.5 45.4443C270.361 45.5387 271.229 45.5387 272.09 45.4443C273.48 45.2967 274.845 44.9666 276.15 44.4627L279.23 43.0603C278.705 44.3089 278.283 45.5988 277.97 46.9168C277.798 48.4311 277.798 49.9601 277.97 51.4745C278.049 52.9617 278.43 54.4171 279.09 55.7516C279.774 56.811 280.78 57.6221 281.96 58.0655C283.441 58.5872 285.017 58.7787 286.58 58.6265C288.12 58.4922 289.572 57.8512 290.71 56.8034C292.32 55.1341 293.686 53.2457 294.77 51.194C296.31 48.5763 297.36 46.8934 297.92 46.1455C297.92 45.6547 298.83 45.0236 299.46 44.3224C299.92 43.6927 300.461 43.1269 301.07 42.6396C301.07 42.6396 301.07 42.6396 301.07 42.6396C301.104 43.0362 301.104 43.435 301.07 43.8316C301.07 44.4627 300.65 45.865 300.3 48.0387C299.95 50.2123 299.53 52.6664 299.04 55.0505C298.55 57.4345 298.13 60.4495 297.78 62.0622C297.593 63.2479 297.19 64.389 296.59 65.4279C295.907 66.4534 295.134 67.4155 294.28 68.3027C287.602 75.3661 282.223 83.5554 278.39 92.4933C276.27 97.258 275.196 102.423 275.24 107.639C275.267 108.449 275.409 109.252 275.66 110.023C275.852 110.574 276.163 111.077 276.57 111.495C277.11 111.932 277.697 112.308 278.32 112.617C279.025 112.904 279.75 113.138 280.49 113.318C281.211 113.389 281.938 113.389 282.66 113.318C283.628 113.235 284.588 113.071 285.53 112.827C291.026 109.87 295.348 105.12 297.78 99.3649C300.548 94.1163 302.889 88.6528 304.78 83.0274C307.419 75.9432 309.456 68.6484 310.87 61.2208C310.944 60.134 311.108 59.0552 311.36 57.9954C311.487 57.426 311.751 56.8964 312.13 56.4528L314.16 54.209L315 53.017C320.609 46.2215 327.479 40.5784 335.23 36.3991C335.72 36.3991 336 36.3991 336 36.3991V35.8382ZM42 77.9088C41.9468 78.488 41.8052 79.0556 41.58 79.5917C41.6004 78.1335 41.7408 76.6794 42 75.2444C42 73.4914 42.63 71.5982 42.91 69.5648V67.2509C42.91 65.5681 42.91 64.6566 42.91 64.6566C42.91 66.0589 42.91 67.5314 42.42 69.1441C42.63 72.5098 42 75.2444 42 77.7686V77.9088ZM43.33 80.7837V81.555V80.8538C43.33 80.8538 43.33 80.4331 43.33 80.2227V79.8721V79.171C43.317 79.6644 43.2702 80.1564 43.19 80.6434L43.33 80.7837ZM44.24 67.4613C43.82 70.7568 43.4 74.4731 42.91 77.418C42.91 78.8204 42.56 79.7319 42.49 80.0124H42C42 79.5917 42 78.4698 42.49 76.5766C43.12 73.0707 43.54 69.5648 43.89 66.8302C43.89 65.0072 43.89 64.0956 43.89 64.0956C43.89 64.0956 44.24 65.7785 44.1 67.3211L44.24 67.4613ZM56 57.2241C55.9623 57.039 55.9623 56.8482 56 56.6632C55.9466 56.5039 55.9466 56.3316 56 56.1723C56 56.1723 56 56.1723 56 56.1723C56.0433 56.4981 56.0433 56.8282 56 57.154V57.2241ZM71.05 72.4397L70.7 72.0189C70.677 71.8561 70.677 71.6909 70.7 71.5281L71.12 71.9488V72.3695C71.153 72.4841 71.153 72.6056 71.12 72.7201L71.05 72.4397ZM80.5 54.209C80.5897 53.9848 80.7073 53.7728 80.85 53.578L81.27 53.017L81.62 52.5963V53.017V53.578L80.57 54.209V54.6297L80.5 54.209ZM77.49 57.5747C77.2541 58.1792 76.9733 58.7652 76.65 59.3276C76.6937 58.8449 76.8118 58.3718 77 57.9253C77.2886 57.1275 77.6397 56.3538 78.05 55.6114C78.3803 54.9628 78.7793 54.3516 79.24 53.7883V53.7883L78.89 54.4895L78.19 55.7516L77.49 57.5747ZM86.3099 56.2425L83.79 59.7483C82.53 61.361 81.62 62.6933 80.92 63.6048C80.22 64.5163 79.8 65.0773 79.52 65.4279C79.3901 65.6417 79.2243 65.8315 79.03 65.9888V65.9888C79.0469 65.2057 79.1645 64.428 79.38 63.6749C79.6021 62.5394 79.8825 61.416 80.22 60.3093C80.515 59.2859 80.8655 58.2794 81.27 57.2942C82.04 55.5921 82.978 53.9713 84.07 52.4561C85.19 50.8434 85.96 50.0721 86.38 50.002C86.7999 49.9319 86.8 50.002 87.01 50.8434C87.2968 51.5139 87.4854 52.2224 87.5699 52.9469V53.4377C87.6739 53.8283 87.6739 54.2392 87.5699 54.6297C87.1839 55.1049 86.7627 55.5502 86.3099 55.962V56.2425ZM87.64 63.2542L86.6599 64.8669L87.2199 63.745L88.2699 62.0622L87.64 63.2542ZM87.64 61.4312L86.8699 62.6933C86.8699 63.0439 86.87 63.1841 86.45 63.1841L87.4999 61.3611L88.6899 59.6081C88.4374 60.1596 88.1571 60.6979 87.8499 61.2208L87.64 61.4312ZM91.1399 76.6467C91.1399 76.6467 91.1399 76.6467 90.7199 76.2961C90.518 76.092 90.3522 75.8549 90.2299 75.5949V74.9639C90.2299 74.9639 90.2299 74.9639 90.7899 75.6651L91.2099 76.2961C91.2529 76.4331 91.2529 76.5799 91.2099 76.7168L91.1399 76.6467ZM94.9899 53.2274L94.4999 54.209L93.7299 55.8217C93.4941 56.4388 93.1888 57.0269 92.8199 57.5747C92.8893 57.1875 93.0069 56.8106 93.1699 56.4528C93.4499 55.7516 93.7999 54.9803 94.2199 54.1389C94.5762 53.5057 94.9737 52.8967 95.4099 52.3159V52.3159C95.3792 52.5373 95.308 52.7513 95.1999 52.9469L94.9899 53.2274ZM96.2499 53.2274V52.8067C96.3565 52.5758 96.4981 52.3629 96.6699 52.1756C96.8114 52.0053 96.9291 51.8166 97.0199 51.6147L97.9999 50.8434V51.2641V51.825L97.5799 52.4561L96.2499 53.2274ZM115.36 76.1559L115.08 75.2444L114.59 74.6834V74.2627H114.94L115.57 74.8938C115.853 75.1291 116.09 75.4143 116.27 75.7352C116.27 75.7352 115.85 76.0157 115.57 75.8053L115.36 76.1559ZM129.36 53.0872C129.36 53.0872 129.36 52.7366 129.36 52.5262V52.0354C129.386 52.2449 129.386 52.4569 129.36 52.6665C129.4 52.8984 129.4 53.1357 129.36 53.3676V53.0872ZM165.06 41.097C165.289 41.0344 165.531 41.0344 165.76 41.097C165.94 41.0266 166.14 41.0266 166.32 41.097C166.358 41.2821 166.358 41.4729 166.32 41.658C166.349 41.8203 166.349 41.9865 166.32 42.1488C166.41 43.8413 166.073 45.5293 165.34 47.057C164.582 48.8181 163.488 50.4139 162.12 51.7549C160.87 53.0346 159.209 53.8295 157.43 53.9987C156.849 54.0678 156.261 54.0678 155.68 53.9987C156.727 51.5391 158.017 49.1903 159.53 46.9869C161.002 44.6041 162.873 42.4931 165.06 40.7464V41.097ZM161.49 43.6213L159.46 46.1455L158.41 47.1973L159.11 46.2156L160.16 44.8133L161 43.6914L161.49 43.6213ZM160.02 44.1822L159.25 45.1639L157.99 46.7064C157.57 47.3375 157.15 47.8283 156.87 48.3192L156.17 49.3008C156.653 48.5158 157.191 47.766 157.78 47.057L160.02 44.1822ZM149.17 72.65L148.68 72.0891L148.26 71.3178V70.8269L148.82 71.5281C149.122 71.8808 149.359 72.2844 149.52 72.7201C149.52 72.7201 149.38 72.5799 149.17 72.2994V72.65ZM151.27 57.8552C151.39 57.2596 151.554 56.6737 151.76 56.1022C152.391 54.2794 153.139 52.4993 154 50.7733C154.794 49.239 155.732 47.7834 156.8 46.426L157.29 45.7949L156.59 46.7766C155.401 48.6015 154.325 50.4983 153.37 52.4561C153.11 52.934 152.877 53.4256 152.67 53.9286C152.67 54.5596 152.18 55.1206 151.97 55.6815C151.76 56.2425 151.27 57.5046 151.27 57.5046V57.8552ZM186.27 45.234C186.76 42.9201 187.39 39.9751 188.3 36.4693C189.21 32.9634 189.7 30.5794 189.84 30.2288L188.16 40.1855C186.55 48.1789 185.64 52.8768 185.43 54.209C185.22 55.5413 185.01 56.8034 184.8 58.346C183.649 65.5775 183.297 72.914 183.75 80.2227C183.75 81.7653 184.17 84.1493 184.59 87.2345V86.5333C184.086 84.2218 183.735 81.8795 183.54 79.5215C183.047 67.8938 184.059 56.251 186.55 44.8834L186.27 45.234ZM184.8 80.994C184.8 82.4665 184.8 83.1677 184.8 83.1677V80.7135C184.31 70.2336 185.252 59.7357 187.6 49.5112C188.72 44.042 189.35 41.2373 189.49 41.0269C189.343 42.2524 189.133 43.4695 188.86 44.673C186.522 55.6997 185.209 66.9198 184.94 78.1893L184.8 80.994ZM183.96 95.6486C184.437 95.7969 184.87 96.062 185.22 96.4199V96.4199C184.845 96.0913 184.515 95.714 184.24 95.298L183.96 95.6486ZM185.78 74.6133C186.039 69.3002 186.624 64.0081 187.53 58.7667C188.323 53.578 189.163 48.9035 190.05 44.7431C190.369 42.9444 190.79 41.1652 191.31 39.4142C191.31 39.4142 191.31 41.2373 190.47 44.1822C189.35 49.5112 188.37 55.4712 187.46 62.1323C186.55 68.7935 186.13 72.7902 186.06 75.2444C186.06 75.9455 186.06 78.2828 186.06 82.2561V85.4815C186.27 79.3813 186.06 75.7352 186.06 74.4731L185.78 74.6133ZM209.16 61.922V61.5013C209.14 61.3618 209.14 61.2201 209.16 61.0806V61.0806C209.16 61.0806 209.16 61.0806 209.58 61.0806V61.5013V61.8519C209.58 61.8519 209.51 61.7818 209.44 61.7818L209.16 61.922ZM218.47 43.3408L218.89 42.7799C219.013 42.559 219.154 42.348 219.31 42.1488L219.66 41.7281V42.1488L219.31 42.7097L218.89 43.3408L218.54 43.7615L218.47 43.3408ZM215.53 46.7064C215.33 47.339 215.022 47.932 214.62 48.4594L215.32 47.1973C215.578 46.3875 215.931 45.6109 216.37 44.8834C216.7 44.2348 217.099 43.6236 217.56 43.0603V43.0603L217.21 43.7615C216.944 44.163 216.709 44.585 216.51 45.0236L215.53 46.7064ZM224.28 45.3742L221.83 48.8801L218.96 52.7366C218.538 53.3779 218.071 53.9872 217.56 54.5596C217.56 54.9102 217.14 55.1206 217.07 55.1206C216.998 54.351 216.998 53.5763 217.07 52.8067C217.07 51.7549 217.63 50.633 217.98 49.441C218.262 48.4365 218.613 47.4526 219.03 46.4961C219.783 44.7635 220.722 43.1178 221.83 41.5878C222.95 40.0453 223.65 39.2038 224.14 39.2038C224.63 39.2038 224.56 39.2038 224.77 39.9751C225.03 40.6501 225.195 41.3581 225.26 42.0787V42.289C225.361 42.68 225.361 43.0901 225.26 43.481C225.087 44.0877 224.852 44.6751 224.56 45.234L224.28 45.3742ZM225.68 52.386L224.98 54.209C225.098 53.8044 225.287 53.4244 225.54 53.0872L226.59 51.4043C226.413 51.7086 226.202 51.991 225.96 52.2457L225.68 52.386ZM225.68 50.5629L224.91 51.825C224.91 52.1756 224.56 52.3159 224.49 52.3159L225.61 50.4928L226.73 48.6697C226.584 49.2663 226.397 49.8521 226.17 50.4227L225.68 50.5629ZM229.18 65.7785C229.18 65.7785 229.18 65.7785 228.76 65.7785C228.548 65.5554 228.382 65.2935 228.27 65.0072C228.222 64.7995 228.222 64.5837 228.27 64.3761C228.27 64.3761 228.27 64.3761 228.9 65.0773C229.53 65.7785 229.25 65.5681 229.32 65.7785C229.337 65.8947 229.337 66.0128 229.32 66.1291L229.18 65.7785ZM233.03 42.3591C232.764 42.7606 232.529 43.1827 232.33 43.6213L231.49 45.3041C231.49 46.2857 231 47.1973 231 47.1973C231 47.1973 231 46.7064 231 46.0053C231.258 45.1955 231.611 44.4189 232.05 43.6914C232.399 43.0537 232.797 42.4442 233.24 41.8683V41.8683L233.03 42.3591ZM234.22 42.3591V41.9384L234.64 41.3775L235.06 40.7464V40.3257V40.7464C235.083 40.9562 235.083 41.1678 235.06 41.3775L234.64 41.9384L234.22 42.3591ZM252.77 61.2208C252.869 61.7773 252.869 62.3471 252.77 62.9036V62.9036C252.77 62.9036 252.77 61.4312 253.4 58.977C254.03 56.5229 254.03 55.3309 254.31 53.2975V50.9836L254.73 48.3893C254.73 49.7916 254.73 51.2641 254.24 52.8768C253.61 56.1723 253.19 59.0472 252.77 61.2208ZM254.17 64.0956V64.8669V64.5163C254.17 64.5163 254.17 64.0956 254.17 63.8853V63.5347V62.8335C254.203 63.3238 254.203 63.8157 254.17 64.306V64.0956ZM255.01 50.7733C255.01 54.1389 254.24 57.785 253.75 60.73C253.663 61.6075 253.499 62.4757 253.26 63.3243V63.3243C253.26 62.9036 253.26 61.7818 253.75 59.8886C254.31 56.3827 254.8 52.8768 255.08 50.1422C255.08 48.3192 255.08 47.4076 255.08 47.4076C255.136 48.5999 255.112 49.7945 255.01 50.9836V50.7733ZM266.98 40.8867C266.966 40.6999 266.966 40.5125 266.98 40.3257C266.98 40.3257 266.98 39.9751 266.98 39.905C266.98 39.8349 266.98 39.905 266.98 39.905C266.98 39.905 266.98 40.3958 266.98 40.8867ZM281.82 55.3309V54.9102C281.789 54.7716 281.789 54.6281 281.82 54.4895V54.209C281.82 54.209 281.82 54.209 282.24 54.6297C282.424 54.823 282.546 55.0673 282.59 55.3309C282.59 55.3309 281.89 55.3309 281.82 55.3309ZM291.55 36.1187L292.32 35.137C292.07 35.734 291.715 36.2805 291.27 36.7497V37.1704C291.27 37.1704 291.13 36.8198 291.55 36.1187ZM287.35 41.9384C287.413 41.5273 287.531 41.1265 287.7 40.7464C287.986 39.9356 288.361 39.1595 288.82 38.4326C289.473 37.1704 289.893 36.5394 290.08 36.5394V37.2406L288.19 40.1855C287.971 40.7973 287.69 41.3848 287.35 41.9384V41.9384ZM294.35 41.9384C292.882 44.1066 291.292 46.1901 289.59 48.1789C289.59 48.1789 289.59 48.1789 289.59 48.1789C289.723 46.2398 290.123 44.3284 290.78 42.4994C291.423 40.2785 292.365 38.1555 293.58 36.1888C294.173 35.2134 294.828 34.2766 295.54 33.3841C296.24 32.6128 296.66 32.2622 296.94 32.1921C297.22 32.122 297.36 32.1921 297.64 33.0335C297.936 33.892 298.101 34.7902 298.13 35.698C298.231 36.065 298.231 36.4528 298.13 36.8198C297.043 38.7243 295.827 40.5516 294.49 42.289L294.35 41.9384ZM297.29 46.9168L297.85 45.7949C298.163 45.1961 298.538 44.632 298.97 44.1121C298.556 45.1876 298.041 46.2208 297.43 47.1973L297.29 46.9168ZM297.29 44.8834V45.3742L299.67 41.5878C299.239 42.897 298.601 44.1282 297.78 45.234L297.29 44.8834ZM298.2 90.53L299.81 86.6034C300.44 85.131 300.72 84.3597 300.79 84.2895C300.641 84.9543 300.454 85.6098 300.23 86.2528L298.83 89.899C298.423 91.0219 297.955 92.122 297.43 93.1945C297.078 94.1256 296.632 95.0184 296.1 95.859C296.858 94.1468 297.723 92.4841 298.69 90.8806L298.2 90.53ZM292.53 88.0759C290.748 94.3437 287.803 100.219 283.85 105.395C282.94 106.587 282.38 107.218 282.17 107.218C281.96 107.218 282.17 107.218 282.17 106.236C282.778 97.9579 285.688 90.0153 290.57 83.3079C292.105 80.645 293.788 78.07 295.61 75.5949C295.96 75.1041 296.1 74.8236 296.17 74.8236C296.17 75.1976 295.61 77.5349 294.49 81.8354L292.53 88.0759ZM295.54 99.7154C295.96 98.9441 296.94 96.9809 298.34 93.8957C299.008 92.3619 299.756 90.864 300.58 89.4081L299.95 91.091C298.873 93.8161 297.61 96.4635 296.17 99.0143C295.808 99.7268 295.387 100.407 294.91 101.048L295.54 99.7154ZM301.21 91.5117C299.95 94.2463 299.25 95.859 298.9 96.4199V96.9809C298.219 98.5317 297.349 99.992 296.31 101.328L296.87 100.347C298.06 98.3131 299.67 95.0176 301.7 90.6001C302.064 89.652 302.509 88.7371 303.03 87.8656C302.669 89.224 302.225 90.5588 301.7 91.8623L301.21 91.5117ZM306.6 38.7831C305.9 42.2189 304.92 48.5996 303.59 57.785C303.59 58.4862 303.59 58.7667 303.59 58.7667C303.564 58.5337 303.564 58.2985 303.59 58.0655C304.5 50.2824 305.48 44.042 306.39 40.0453C306.536 39.0607 306.794 38.0961 307.16 37.1704C307.16 37.1704 307.23 38.082 307.09 39.1337L306.6 38.7831Z" fill="#006D77"/>
<path d="M136.69 23.5536C140.4 25.8675 144.25 27.8308 148.17 29.7941C147.4 31.1263 149.5 32.1781 150.41 31.1263L152.72 32.3183C153.77 32.8092 154.82 31.0562 153.77 30.4953L151.88 29.3033C154.416 26.01 156.753 22.5681 158.88 18.996C160.372 17.2279 161.48 15.1669 162.131 12.9452C162.782 10.7234 162.962 8.38991 162.66 6.0943C162.115 4.09642 160.842 2.3758 159.093 1.27232C157.343 0.168847 155.244 -0.237235 153.21 0.134291C150.953 0.817024 148.937 2.13055 147.4 3.92065C146.114 5.50181 144.967 7.19087 143.97 8.96913C142.67 7.56783 141.042 6.51336 139.233 5.9012C137.424 5.28903 135.492 5.1385 133.61 5.46324C131.828 5.98394 130.325 7.1925 129.432 8.82305C128.54 10.4536 128.33 12.3726 128.85 14.1578C129.476 16.1632 130.491 18.0252 131.836 19.6374C133.181 21.2497 134.831 22.5804 136.69 23.5536V23.5536Z" fill="#006D77"/>
<path d="M160.56 28.532C160.836 28.5951 161.123 28.5951 161.4 28.532C161.612 28.5691 161.829 28.5567 162.036 28.4959C162.242 28.4351 162.432 28.3275 162.59 28.1814C164.27 25.4468 165.95 22.6421 167.56 19.8374C167.69 19.6822 167.785 19.5006 167.838 19.3051C167.892 19.1095 167.902 18.9048 167.869 18.7048C167.836 18.5049 167.759 18.3146 167.646 18.1469C167.532 17.9793 167.383 17.8384 167.21 17.7339C166.819 17.4977 166.351 17.4241 165.906 17.5289C165.461 17.6338 165.075 17.9086 164.83 18.2948C163.22 21.0294 161.68 23.764 160.14 26.4986C159.928 26.8243 159.852 27.2211 159.931 27.6021C160.01 27.9831 160.236 28.3174 160.56 28.532V28.532Z" fill="#006D77"/>
<path d="M126.47 22.572C126.804 22.5622 127.125 22.4385 127.38 22.2214C127.592 21.9786 127.708 21.6672 127.708 21.3449C127.708 21.0226 127.592 20.7112 127.38 20.4684C125.931 18.8112 125.005 16.7613 124.719 14.5775C124.432 12.3936 124.798 10.1737 125.77 8.19782C125.87 7.9594 125.906 7.69866 125.874 7.44187C125.842 7.18508 125.743 6.94132 125.587 6.73513C125.431 6.52895 125.223 6.36763 124.985 6.26744C124.746 6.16724 124.486 6.1317 124.23 6.16441C123.976 6.18901 123.732 6.27955 123.523 6.42709C123.315 6.57464 123.148 6.7741 123.04 7.00582C121.898 9.46964 121.496 12.2125 121.881 14.9011C122.266 17.5897 123.423 20.1084 125.21 22.1513C125.369 22.3204 125.567 22.4474 125.787 22.5208C126.007 22.5942 126.241 22.6118 126.47 22.572Z" fill="#006D77"/>
<path d="M168.61 15.5603C168.85 15.5342 169.082 15.4607 169.293 15.344C169.504 15.2274 169.69 15.0699 169.839 14.8807C169.989 14.6916 170.1 14.4745 170.165 14.242C170.231 14.0096 170.249 13.7665 170.22 13.5269C170.167 13.074 169.94 12.6597 169.587 12.3717C169.234 12.0837 168.783 11.9447 168.33 11.9843C167.63 11.9843 166.86 12.6855 166.93 13.3866C166.774 13.4353 166.642 13.5431 166.564 13.687C166.486 13.831 166.466 13.9999 166.51 14.1579C166.611 14.6183 166.886 15.0215 167.278 15.283C167.669 15.5444 168.147 15.6438 168.61 15.5603V15.5603ZM167.21 13.5269C167.21 12.7556 168.96 12.6855 168.82 13.5269C168.82 13.6252 168.8 13.7225 168.761 13.8124C168.721 13.9024 168.663 13.9831 168.591 14.0492C168.518 14.1153 168.433 14.1654 168.339 14.1962C168.246 14.227 168.148 14.2379 168.05 14.228C167.653 14.1125 167.308 13.8652 167.07 13.5269C167.07 13.5269 167.21 13.597 167.21 13.5269Z" fill="#006D77"/>
<path d="M127.31 25.0261C127.31 25.9376 128.22 26.9192 129.27 26.779C129.715 26.6938 130.112 26.4453 130.384 26.0822C130.656 25.7191 130.783 25.2675 130.74 24.8157C130.676 24.3682 130.46 23.9564 130.129 23.6498C129.797 23.3433 129.37 23.1607 128.92 23.1329C128.679 23.1154 128.437 23.155 128.214 23.2485C127.991 23.342 127.793 23.4868 127.636 23.6711C127.48 23.8555 127.368 24.0742 127.312 24.3096C127.255 24.545 127.254 24.7904 127.31 25.0261V25.0261ZM129.9 25.0261C129.895 25.2143 129.831 25.3963 129.718 25.547C129.605 25.6976 129.449 25.8096 129.27 25.8675C129.039 25.8382 128.824 25.7328 128.659 25.5677C128.494 25.4027 128.389 25.1875 128.36 24.956V24.956C128.357 24.8598 128.377 24.7644 128.417 24.6771C128.457 24.5897 128.516 24.5126 128.591 24.4517C128.665 24.3908 128.752 24.3478 128.846 24.3258C128.939 24.3038 129.036 24.3035 129.13 24.3249C129.34 24.3709 129.53 24.4851 129.669 24.6499C129.808 24.8147 129.889 25.0208 129.9 25.2364V25.0261Z" fill="#006D77"/>
<g clip-path="url(#clip0_345_1570)">
<path d="M250.818 141.562L246.685 141.797C246.258 141.802 245.846 141.641 245.536 141.349C245.226 141.056 245.043 140.655 245.026 140.23C245.02 139.811 245.181 139.407 245.474 139.106C245.768 138.806 246.169 138.634 246.59 138.628L250.525 138.411L251.001 138.485C251.414 138.46 251.82 138.596 252.134 138.864C252.448 139.132 252.645 139.511 252.683 139.921C252.721 140.331 252.597 140.739 252.338 141.059C252.079 141.379 251.704 141.586 251.294 141.636L250.818 141.562ZM260.266 140.063C259.889 140.061 259.524 139.927 259.236 139.682C258.949 139.438 258.759 139.1 258.699 138.729C258.639 138.358 258.714 137.977 258.909 137.656C259.105 137.335 259.41 137.094 259.768 136.977C261.182 136.661 262.651 136.306 264.08 135.896C264.286 135.822 264.506 135.791 264.725 135.805C264.944 135.819 265.157 135.878 265.352 135.978C265.547 136.079 265.719 136.218 265.858 136.388C265.996 136.557 266.098 136.754 266.156 136.964C266.215 137.175 266.229 137.395 266.198 137.611C266.167 137.827 266.091 138.034 265.976 138.22C265.86 138.405 265.707 138.565 265.527 138.689C265.346 138.813 265.142 138.898 264.926 138.939C263.45 139.342 261.926 139.737 260.464 140.045L260.266 140.063ZM237.72 141.43L232.958 140.694C232.753 140.65 232.559 140.566 232.387 140.447C232.215 140.329 232.068 140.177 231.954 140.002C231.841 139.827 231.763 139.631 231.726 139.426C231.689 139.221 231.693 139.01 231.738 138.807C231.775 138.604 231.853 138.411 231.967 138.24C232.081 138.068 232.228 137.921 232.401 137.807C232.573 137.693 232.766 137.615 232.97 137.578C233.173 137.54 233.382 137.543 233.584 137.588L237.966 138.265C238.173 138.291 238.374 138.357 238.555 138.459C238.737 138.562 238.897 138.699 239.026 138.863C239.154 139.028 239.249 139.215 239.305 139.416C239.361 139.616 239.376 139.826 239.351 140.032C239.275 140.402 239.072 140.735 238.778 140.972C238.483 141.21 238.114 141.338 237.735 141.335L237.72 141.43ZM273.243 136.245C272.902 136.268 272.562 136.181 272.274 135.996C271.987 135.812 271.766 135.54 271.645 135.221C271.563 135.029 271.522 134.821 271.523 134.612C271.524 134.403 271.568 134.196 271.653 134.005C271.737 133.813 271.86 133.641 272.014 133.499C272.167 133.356 272.349 133.247 272.547 133.177C273.895 132.657 275.298 132.098 276.661 131.483C277.043 131.322 277.473 131.316 277.86 131.467C278.247 131.617 278.559 131.912 278.731 132.289C278.819 132.48 278.867 132.687 278.873 132.897C278.88 133.107 278.844 133.316 278.768 133.512C278.693 133.709 278.578 133.888 278.432 134.039C278.286 134.191 278.111 134.312 277.918 134.395L273.693 136.169L273.243 136.245ZM224.528 138.129L223.623 137.989C222.178 137.384 220.771 136.696 219.406 135.929C219.218 135.835 219.052 135.704 218.917 135.544C218.782 135.384 218.681 135.198 218.621 134.998C218.561 134.798 218.542 134.588 218.566 134.38C218.59 134.173 218.657 133.972 218.761 133.791C218.865 133.609 219.004 133.449 219.171 133.32C219.337 133.192 219.528 133.098 219.731 133.044C219.935 132.989 220.147 132.976 220.356 133.004C220.565 133.032 220.766 133.101 220.948 133.207C222.21 133.91 223.514 134.533 224.854 135.073C225.232 135.235 225.533 135.537 225.692 135.914C225.852 136.292 225.859 136.716 225.711 137.098C225.612 137.341 225.453 137.554 225.249 137.717C225.044 137.881 224.801 137.99 224.542 138.034L224.528 138.129ZM285.586 130.534C285.278 130.566 284.967 130.505 284.693 130.359C284.42 130.213 284.198 129.988 284.054 129.714C283.949 129.534 283.881 129.335 283.856 129.129C283.83 128.922 283.847 128.712 283.905 128.513C283.963 128.313 284.062 128.127 284.195 127.966C284.327 127.806 284.491 127.674 284.677 127.578L288.531 125.359C288.696 125.235 288.884 125.145 289.085 125.095C289.285 125.044 289.494 125.035 289.698 125.066C289.903 125.098 290.099 125.17 290.275 125.279C290.45 125.387 290.603 125.53 290.722 125.698C290.848 125.866 290.939 126.058 290.99 126.262C291.041 126.465 291.05 126.677 291.018 126.884C290.986 127.091 290.913 127.29 290.803 127.469C290.693 127.648 290.549 127.803 290.378 127.926L286.421 130.177L285.586 130.534ZM195.948 137.205L193.185 137.408C192.798 137.385 192.432 137.221 192.157 136.948C191.881 136.675 191.716 136.311 191.692 135.925C191.667 135.539 191.786 135.158 192.025 134.854C192.263 134.549 192.606 134.342 192.988 134.272L197.483 133.899C197.694 133.873 197.908 133.89 198.113 133.949C198.318 134.007 198.509 134.106 198.675 134.239C198.84 134.372 198.978 134.537 199.078 134.724C199.179 134.911 199.241 135.116 199.261 135.327C199.28 135.538 199.257 135.751 199.193 135.952C199.128 136.154 199.024 136.341 198.885 136.502C198.747 136.663 198.577 136.794 198.387 136.888C198.196 136.982 197.988 137.038 197.776 137.05L195.948 137.205ZM206.719 135.667C206.326 135.701 205.934 135.589 205.619 135.352C205.304 135.115 205.089 134.77 205.015 134.384C204.938 133.973 205.027 133.549 205.263 133.203C205.499 132.858 205.863 132.62 206.276 132.541L210.368 131.62L210.606 131.657C210.806 131.6 211.016 131.585 211.222 131.611C211.429 131.637 211.628 131.705 211.808 131.81C211.988 131.915 212.144 132.055 212.268 132.221C212.392 132.388 212.481 132.578 212.529 132.779C212.587 132.979 212.603 133.188 212.577 133.393C212.55 133.599 212.483 133.797 212.378 133.976C212.273 134.154 212.132 134.31 211.965 134.433C211.798 134.556 211.607 134.645 211.405 134.692L211.119 134.648L206.924 135.601L206.719 135.667ZM184.187 137.57C182.711 137.342 181.128 137.486 179.352 137.308C179.142 137.296 178.937 137.242 178.748 137.15C178.559 137.059 178.39 136.931 178.252 136.774C178.113 136.617 178.006 136.435 177.938 136.237C177.871 136.039 177.843 135.829 177.857 135.621C177.907 135.202 178.113 134.817 178.436 134.543C178.758 134.269 179.173 134.126 179.597 134.143L184.045 134.394C184.466 134.417 184.862 134.601 185.151 134.908C185.44 135.215 185.599 135.621 185.594 136.041C185.575 136.419 185.424 136.778 185.167 137.057C184.911 137.337 184.564 137.518 184.187 137.57ZM170.639 136.252L170.258 136.193L165.496 135.457C165.291 135.413 165.097 135.329 164.925 135.211C164.753 135.092 164.606 134.94 164.492 134.765C164.379 134.59 164.302 134.394 164.264 134.189C164.227 133.984 164.231 133.773 164.276 133.57C164.32 133.366 164.404 133.173 164.523 133.002C164.642 132.831 164.794 132.685 164.97 132.572C165.145 132.46 165.342 132.383 165.548 132.346C165.754 132.309 165.965 132.313 166.17 132.358L170.552 133.036C170.935 133.096 171.283 133.293 171.53 133.59C171.778 133.887 171.908 134.264 171.896 134.649C171.885 135.035 171.732 135.403 171.467 135.684C171.201 135.965 170.842 136.14 170.456 136.175L170.639 136.252ZM219.71 131.754C219.337 131.779 218.967 131.672 218.665 131.452C218.363 131.232 218.148 130.913 218.059 130.552C217.969 130.19 218.01 129.809 218.175 129.475C218.339 129.141 218.617 128.876 218.959 128.726C220.281 128.164 221.557 127.501 222.777 126.744C223.141 126.524 223.578 126.456 223.992 126.557C224.406 126.657 224.764 126.917 224.986 127.28C225.208 127.642 225.276 128.078 225.176 128.49C225.076 128.902 224.815 129.258 224.451 129.478C223.082 130.278 221.668 130.999 220.216 131.638L219.71 131.754ZM297.101 123.238C296.821 123.266 296.538 123.219 296.282 123.103C296.026 122.987 295.805 122.805 295.642 122.576C295.401 122.231 295.302 121.808 295.366 121.393C295.43 120.978 295.652 120.603 295.987 120.348C297.189 119.515 298.405 118.586 299.566 117.698C299.728 117.551 299.918 117.438 300.126 117.367C300.333 117.296 300.553 117.269 300.772 117.287C300.99 117.305 301.203 117.368 301.396 117.472C301.589 117.575 301.759 117.718 301.894 117.89C302.03 118.062 302.128 118.26 302.183 118.471C302.238 118.683 302.248 118.903 302.213 119.119C302.178 119.334 302.099 119.54 301.98 119.724C301.861 119.907 301.705 120.064 301.523 120.185C300.306 121.113 299.09 122.041 297.833 122.915C297.62 123.081 297.368 123.192 297.101 123.238V123.238ZM213.079 130.486C212.842 130.497 212.605 130.458 212.383 130.374C212.161 130.29 211.959 130.161 211.789 129.996C210.711 128.796 209.736 127.509 208.873 126.148C208.747 125.979 208.656 125.787 208.606 125.584C208.555 125.38 208.545 125.169 208.577 124.961C208.609 124.754 208.682 124.555 208.792 124.376C208.902 124.198 209.047 124.042 209.218 123.92C209.382 123.795 209.571 123.706 209.771 123.655C209.971 123.605 210.18 123.595 210.385 123.627C210.589 123.658 210.785 123.731 210.961 123.839C211.137 123.948 211.289 124.09 211.408 124.258C212.149 125.456 213.004 126.58 213.962 127.614C214.165 127.832 214.303 128.103 214.359 128.396C214.414 128.689 214.386 128.991 214.277 129.268C214.168 129.545 213.983 129.786 213.742 129.963C213.502 130.139 213.216 130.245 212.918 130.267L213.079 130.486ZM157.348 133.275L156.776 133.187C155.337 132.722 153.842 132.296 152.409 131.784C152.028 131.637 151.718 131.35 151.544 130.982C151.369 130.614 151.344 130.193 151.472 129.807C151.601 129.421 151.874 129.1 152.235 128.909C152.595 128.719 153.016 128.674 153.41 128.784C154.794 129.289 156.242 129.707 157.689 130.125C158.089 130.247 158.425 130.521 158.624 130.888C158.823 131.255 158.869 131.685 158.751 132.085C158.671 132.404 158.492 132.69 158.241 132.904C157.989 133.117 157.677 133.247 157.348 133.275V133.275ZM230.686 123.842C230.377 123.871 230.066 123.81 229.791 123.665C229.517 123.521 229.29 123.299 229.14 123.028C228.99 122.757 228.923 122.449 228.947 122.141C228.971 121.832 229.086 121.538 229.276 121.294L229.327 120.962C230.076 119.954 230.703 118.862 231.196 117.708C231.276 117.518 231.394 117.345 231.543 117.201C231.692 117.057 231.868 116.945 232.062 116.871C232.255 116.796 232.462 116.762 232.67 116.769C232.877 116.776 233.081 116.825 233.269 116.912C233.658 117.076 233.966 117.386 234.125 117.774C234.284 118.163 234.282 118.598 234.119 118.985C233.516 120.357 232.759 121.657 231.862 122.859L231.804 123.238C231.672 123.412 231.503 123.556 231.311 123.66C231.118 123.764 230.905 123.826 230.686 123.842ZM307.736 114.69C307.491 114.701 307.247 114.662 307.017 114.576C306.787 114.491 306.577 114.36 306.399 114.193C306.12 113.883 305.974 113.478 305.993 113.063C306.011 112.648 306.193 112.258 306.498 111.975L309.707 108.88C309.852 108.73 310.025 108.61 310.217 108.527C310.408 108.444 310.614 108.399 310.823 108.396C311.032 108.392 311.24 108.429 311.434 108.505C311.629 108.582 311.806 108.695 311.957 108.84C312.109 108.984 312.231 109.157 312.313 109.349C312.396 109.541 312.439 109.748 312.438 109.957C312.438 110.166 312.395 110.373 312.311 110.564C312.228 110.756 312.106 110.929 311.953 111.072C310.905 112.171 309.81 113.264 308.674 114.302C308.371 114.519 308.014 114.648 307.641 114.676L307.736 114.69ZM144.646 128.691C144.386 128.723 144.122 128.683 143.884 128.573C142.602 128.035 141.279 127.442 140.012 126.809L139.774 126.773L140.389 125.315L141.052 123.864L140.389 125.315L141.14 123.926L141.378 123.963L145.163 125.665C145.541 125.837 145.837 126.149 145.987 126.535C146.137 126.921 146.129 127.35 145.965 127.73C145.855 128.013 145.66 128.255 145.407 128.424C145.154 128.593 144.856 128.681 144.551 128.676L144.646 128.691ZM207.518 118.512C207.119 118.543 206.723 118.424 206.409 118.177C206.095 117.931 205.885 117.576 205.822 117.182C205.736 116.708 205.68 116.23 205.653 115.749C205.529 114.603 205.528 113.448 205.65 112.303C205.686 111.891 205.883 111.51 206.198 111.242C206.512 110.973 206.921 110.838 207.335 110.864C207.761 110.903 208.155 111.107 208.433 111.431C208.711 111.755 208.851 112.174 208.822 112.599C208.727 113.566 208.723 114.541 208.811 115.509C208.841 115.908 208.893 116.305 208.969 116.698C209.005 116.905 209.001 117.116 208.955 117.321C208.908 117.525 208.822 117.718 208.7 117.889C208.579 118.06 208.424 118.205 208.246 118.316C208.067 118.426 207.868 118.501 207.661 118.535L207.518 118.512ZM132.424 122.579C132.099 122.623 131.768 122.572 131.472 122.432C130.124 121.689 128.838 120.86 127.545 120.077C127.367 119.964 127.213 119.816 127.093 119.644C126.972 119.471 126.886 119.277 126.841 119.072C126.796 118.866 126.792 118.654 126.829 118.447C126.866 118.241 126.944 118.043 127.057 117.866C127.171 117.69 127.319 117.537 127.492 117.417C127.665 117.297 127.86 117.212 128.067 117.168C128.273 117.123 128.486 117.119 128.694 117.156C128.901 117.194 129.1 117.271 129.278 117.385C130.516 118.207 131.809 118.989 133.062 119.717C133.423 119.935 133.686 120.283 133.796 120.689C133.906 121.095 133.854 121.527 133.652 121.895C133.509 122.09 133.325 122.253 133.113 122.371C132.902 122.489 132.667 122.56 132.424 122.579ZM316.961 104.857C316.761 104.907 316.552 104.917 316.348 104.886C316.143 104.854 315.947 104.782 315.771 104.673C315.453 104.403 315.254 104.019 315.218 103.605C315.182 103.191 315.31 102.779 315.577 102.459C316.534 101.313 317.446 100.143 318.313 98.9509C318.562 98.6193 318.931 98.3981 319.342 98.3346C319.753 98.2711 320.173 98.3704 320.512 98.6113C320.683 98.735 320.828 98.8914 320.938 99.0714C321.048 99.2514 321.12 99.4514 321.152 99.6596C321.183 99.8678 321.173 100.08 321.12 100.284C321.068 100.488 320.976 100.68 320.849 100.847C319.984 102.024 319.009 103.281 318.05 104.443C317.746 104.702 317.361 104.848 316.961 104.857V104.857ZM234.266 111.097C234.064 111.117 233.861 111.097 233.667 111.039C233.473 110.98 233.292 110.884 233.135 110.756C232.979 110.628 232.849 110.471 232.753 110.293C232.657 110.115 232.597 109.92 232.577 109.72C232.417 108.383 232.079 107.074 231.57 105.827C231.48 105.642 231.429 105.441 231.418 105.236C231.408 105.031 231.439 104.826 231.51 104.633C231.581 104.441 231.69 104.264 231.83 104.114C231.971 103.964 232.14 103.844 232.328 103.76C232.52 103.673 232.728 103.625 232.939 103.619C233.15 103.613 233.36 103.649 233.557 103.725C233.755 103.8 233.935 103.914 234.087 104.06C234.24 104.206 234.362 104.38 234.446 104.573C235.132 106.174 235.544 107.878 235.666 109.615C235.693 109.82 235.678 110.028 235.622 110.227C235.566 110.426 235.471 110.612 235.341 110.773C235.211 110.934 235.05 111.068 234.868 111.165C234.685 111.263 234.484 111.323 234.277 111.341L234.266 111.097ZM121.159 115.013C120.769 115.099 120.361 115.036 120.016 114.836L116.407 111.998C116.098 111.712 115.907 111.321 115.872 110.902C115.838 110.484 115.962 110.068 116.221 109.736C116.491 109.42 116.877 109.223 117.293 109.187C117.709 109.152 118.122 109.281 118.444 109.546C119.565 110.496 120.741 111.406 121.965 112.323C122.291 112.587 122.503 112.966 122.557 113.38C122.611 113.795 122.502 114.214 122.254 114.552C121.956 114.829 121.568 114.993 121.159 115.013V115.013ZM210.376 105.705C210.175 105.755 209.966 105.765 209.762 105.733C209.557 105.702 209.361 105.629 209.185 105.521C208.858 105.257 208.649 104.875 208.603 104.459C208.558 104.043 208.68 103.626 208.943 103.299C210.012 102.016 211.254 100.885 212.633 99.9385C212.808 99.8222 213.004 99.7413 213.21 99.7004C213.417 99.6596 213.629 99.6597 213.836 99.7006C214.042 99.7416 214.239 99.8226 214.414 99.939C214.589 100.056 214.739 100.205 214.856 100.379C214.974 100.554 215.055 100.749 215.096 100.955C215.138 101.16 215.138 101.372 215.097 101.577C215.056 101.783 214.975 101.978 214.858 102.152C214.742 102.327 214.592 102.476 214.417 102.592C213.284 103.331 212.272 104.239 211.416 105.283C211.162 105.534 210.828 105.688 210.471 105.719L210.376 105.705ZM324.395 93.679C324.07 93.726 323.738 93.6747 323.443 93.5317C323.259 93.4281 323.098 93.2893 322.969 93.1234C322.84 92.9574 322.745 92.7675 322.69 92.5648C322.635 92.3622 322.621 92.1507 322.649 91.9428C322.677 91.7348 322.746 91.5345 322.853 91.3536C323.576 90.0417 324.265 88.7408 324.919 87.4507C325.107 87.0742 325.437 86.7875 325.837 86.6537C326.237 86.5199 326.675 86.5499 327.053 86.7372C327.432 86.9244 327.72 87.2535 327.855 87.6521C327.99 88.0507 327.961 88.4861 327.773 88.8626C327.125 90.2183 326.381 91.5593 325.582 92.9404C325.501 93.1224 325.383 93.2862 325.236 93.4219C325.09 93.5577 324.917 93.6626 324.729 93.7305L324.395 93.679ZM226.76 100.667C226.533 100.68 226.305 100.645 226.093 100.564C224.845 100.103 223.516 99.8972 222.187 99.9597C221.779 99.9457 221.392 99.7759 221.105 99.4853C220.819 99.1947 220.656 98.8058 220.65 98.3991C220.644 97.9925 220.795 97.5993 221.072 97.3011C221.35 97.003 221.732 96.8227 222.14 96.7977C223.856 96.747 225.567 97.0116 227.188 97.5783C227.385 97.6486 227.565 97.7579 227.718 97.8996C227.871 98.0412 227.993 98.2123 228.078 98.4023C228.162 98.5924 228.207 98.7975 228.21 99.0052C228.213 99.213 228.173 99.419 228.093 99.6109C228.006 99.9015 227.831 100.158 227.593 100.347C227.354 100.536 227.064 100.647 226.76 100.667V100.667ZM110.875 106.143C110.661 106.213 110.432 106.231 110.209 106.196C109.986 106.162 109.773 106.075 109.589 105.945C108.483 104.9 107.384 103.808 106.34 102.676C106.169 102.532 106.03 102.355 105.932 102.154C105.835 101.954 105.781 101.736 105.774 101.513C105.767 101.291 105.807 101.07 105.891 100.864C105.976 100.658 106.103 100.473 106.265 100.319C106.426 100.166 106.619 100.048 106.829 99.9735C107.04 99.8992 107.264 99.8698 107.486 99.8874C107.709 99.905 107.926 99.9691 108.122 100.076C108.319 100.182 108.49 100.329 108.626 100.506C109.677 101.59 110.729 102.675 111.795 103.665C112.088 103.962 112.256 104.36 112.264 104.776C112.272 105.193 112.12 105.596 111.839 105.904C111.556 106.095 111.215 106.179 110.875 106.143V106.143ZM101.695 96.1336C101.437 96.1642 101.176 96.1297 100.935 96.0331C100.694 95.9364 100.482 95.7809 100.317 95.5809C99.3279 94.4088 98.3937 93.1966 97.4668 91.9371C97.3418 91.7729 97.2512 91.5855 97.2003 91.3858C97.1495 91.1862 97.1395 90.9785 97.171 90.7751C97.2024 90.5717 97.2747 90.3767 97.3834 90.2017C97.4922 90.0268 97.6352 89.8754 97.8039 89.7567C98.1412 89.5183 98.5587 89.4203 98.9678 89.4835C99.3769 89.5468 99.7453 89.7663 99.9948 90.0954C100.881 91.3002 101.823 92.465 102.764 93.6297C103.004 93.9658 103.103 94.3815 103.04 94.7887C102.978 95.1958 102.758 95.5622 102.427 95.8101C102.232 96.0053 101.971 96.1207 101.695 96.1336V96.1336Z" fill="#38E4AE"/>
</g>
<defs>
<clipPath id="clip0_345_1570">
<rect width="228" height="73" fill="white" transform="translate(103.154 52) rotate(8.78858)"/>
</clipPath>
</defs>
</svg>
