<svg width="192" height="67" viewBox="0 0 192 67" fill="none" xmlns="http://www.w3.org/2000/svg">
<path d="M36 18.5157C36.5608 18.4986 37.1093 18.3475 37.6 18.075C37.6985 17.9834 37.7798 17.8748 37.84 17.7544C37.8649 17.622 37.8649 17.4862 37.84 17.3538C37.84 17.3538 37.84 17.3538 37.84 17.3538C37.84 17.3538 37.84 17.3538 37.56 17.3538H37.32C37.4244 17.3849 37.5356 17.3849 37.64 17.3538C37.64 17.3538 37.64 17.3538 37.64 17.1534C37.6664 17.0899 37.68 17.0219 37.68 16.9531C37.68 16.8843 37.6664 16.8162 37.64 16.7528C36.3729 16.2397 34.9958 16.0604 33.64 16.2319C30.76 16.2319 26.84 16.4322 21.88 16.8329C19.16 17.0733 17.88 17.1534 17.48 17.1534C17.08 17.1534 16.92 17.1534 16.92 17.1534C16.92 16.7127 17.16 15.6309 17.36 13.9881C17.5112 13.033 17.6047 12.0696 17.64 11.1033C17.6673 10.9846 17.6673 10.8613 17.64 10.7427C17.64 10.3019 17.36 10.1016 17.24 10.1016C17.24 10.1016 17.24 10.1016 17.04 10.1016C16.84 10.1016 17.04 10.1016 17.04 10.1016V8.6191C17.0607 8.52675 17.0607 8.43097 17.04 8.33863C17.04 8.33863 17.04 8.33863 16.76 8.33863C16.48 8.33863 16.76 8.33863 16.52 8.57903L16 8.6191V8.09822C16.026 8.06354 16.04 8.02137 16.04 7.97802C16.04 7.93467 16.026 7.8925 16 7.85782C16 7.85782 16 7.85782 15.76 7.85782C15.52 7.85782 15.48 7.85782 15.36 8.37869C15.24 8.89957 15.16 8.77937 15.12 8.77937V7.97802C15.0489 7.9819 14.9805 8.00682 14.9236 8.04961C14.8666 8.0924 14.8236 8.15115 14.8 8.21842C14.8 8.21842 14.8 8.45883 14.8 8.45883C14.8 8.45883 14.8 8.17836 14.52 8.17836C14.24 8.17836 14.52 8.17836 14.28 8.17836C14.1547 8.19015 14.0343 8.23294 13.9295 8.30287C13.8248 8.37281 13.7391 8.4677 13.68 8.57903C13.68 8.57903 13.68 8.81943 13.68 8.81943C13.68 8.81943 12 8.45883 12 8.6191C12 8.77937 11.6 10.2619 11.08 12.6258C10.76 14.2285 10.44 15.711 10.16 17.1534C9.31492 17.1934 8.47323 17.2871 7.63999 17.4339C5.88145 17.7997 4.15571 18.309 2.48 18.9565C0.799999 19.277 0 19.878 0 20.479C0 21.08 0 20.479 0 20.479H0.2C0.221778 20.5982 0.221778 20.7204 0.2 20.8396C0.2 21.08 -0.04 21.2804 0.2 21.3204C0.44 21.3605 0.2 21.3204 0.2 21.3204H0.6C0.6 21.3204 0.36 21.3204 0.36 21.5608C0.36 21.5608 0.36 21.5608 0.6 21.5608H1.68C3.32 21.5608 5.2 21.2403 7.28 20.8797L9.31999 20.5992H9.79999C9.79999 22.883 9.51999 26.0884 9.27999 30.1753C8.91999 36.9867 8.59999 42.9968 8.31999 49.2874C8.061 53.9048 8.061 58.5332 8.31999 63.1507C8.32104 63.907 8.47054 64.6558 8.75999 65.3544C8.97675 65.9298 9.38695 66.4115 9.91999 66.7167C10.0903 66.7626 10.2697 66.7626 10.44 66.7167H10.84C11.2327 66.6687 11.6083 66.5272 11.9354 66.3042C12.2624 66.0811 12.5315 65.7829 12.72 65.4345C12.72 65.1941 13.04 61.1473 13.52 53.4143C14.24 41.7948 14.68 35.1837 14.84 33.6211C15.1788 29.2791 15.753 24.9589 16.56 20.6793C21.0421 19.7542 25.589 19.1782 30.16 18.9565L36 18.5157ZM4.4 21.8814H4H4.56H4.4ZM4 21.4406H3.2C3.51747 21.3836 3.84253 21.3836 4.16 21.4406H4.88H5.2C4.80142 21.4885 4.39857 21.4885 4 21.4406V21.4406ZM5.52 21.681H5.96H6.36H5.52ZM6.48 20.4389L2.8 21.2002L1.72 21.4006C3.20076 20.9681 4.7116 20.6467 6.24 20.4389L9.11999 19.9581C8.29182 20.1753 7.44989 20.336 6.6 20.4389H6.48ZM11.6 37.5076C12 33.9416 12 30.9766 12.52 28.2521C12.92 24.8063 13.24 22.8029 13.36 22.2019L12.76 28.212C12.76 30.0952 12.36 32.2187 12.12 35.0234C12.12 35.985 12.12 36.8665 11.84 37.6278C11.48 41.6345 11.28 43.5978 11.28 43.5978C11.24 42.4759 11.36 40.4325 11.6 37.5076ZM12 49.0069C11.9739 49.9058 11.8937 50.8022 11.76 51.6914V51.6914C11.76 51.6914 11.76 49.9285 12 46.9234C12.24 42.1955 12.64 37.5877 13.2 33.1803C13.1659 32.7403 13.1659 32.2982 13.2 31.8581C13.2 31.8581 13.2 33.8214 12.76 37.4675C12.32 41.1137 12.2 44.7598 12 49.0069ZM13.96 36.2655C13.36 41.5945 12.96 46.0019 12.72 49.5278L12.48 52.2123C12.48 51.9318 12.48 51.0904 12.48 49.648C12.76 44.3591 13.36 38.1887 14.24 31.177C14.2884 30.5566 14.382 29.9406 14.52 29.3339C14.44 29.8147 14.24 32.0985 13.84 36.2655H13.96Z" fill="white"/>
<path d="M192 20.479C192 20.479 192 20.479 192 20.1985C192.002 20.1257 191.98 20.0543 191.936 19.9961C191.892 19.9378 191.83 19.8962 191.76 19.878C191.76 19.878 191.76 19.878 191.76 19.878C191.182 19.9892 190.619 20.1639 190.08 20.3989C186.377 22.3892 183.014 24.9592 180.12 28.0116C179.72 28.4427 179.278 28.832 178.8 29.1736V29.1736C178.8 28.8931 178.8 26.4891 179.36 22.0416C179.399 21.6285 179.399 21.2126 179.36 20.7995C179.308 19.9044 179.033 19.0366 178.56 18.2753C178.168 17.6571 177.615 17.1582 176.96 16.8329C176.48 16.5788 175.942 16.4545 175.4 16.4723C175.123 16.4835 174.851 16.5536 174.603 16.6779C174.354 16.8023 174.135 16.978 173.96 17.1935C173.612 17.6323 173.304 18.1017 173.04 18.5958C172.842 19.0136 172.555 19.3828 172.2 19.6776C172.2 19.6776 172.2 19.6776 172.2 19.0766C172.191 18.7648 172.102 18.4606 171.94 18.1937C171.779 17.9269 171.552 17.7065 171.28 17.5541C170.585 17.1727 169.783 17.0319 169 17.1534C167.909 17.2798 166.857 17.6296 165.907 18.181C164.957 18.7324 164.131 19.4737 163.48 20.3588C163.008 20.9597 162.592 21.6036 162.24 22.282L161.8 22.5224C160.543 23.2411 159.199 23.7933 157.8 24.1652H156.8H156.56V23.8046L155.28 22.9632L154.72 21.6409C154.549 21.3081 154.302 21.02 154 20.7995C153.759 20.5694 153.473 20.392 153.16 20.2787C152.696 20.2009 152.223 20.2009 151.76 20.2787C151.538 20.2869 151.326 20.3719 151.16 20.5191C150.799 20.9195 150.49 21.3637 150.24 21.8413L149.04 23.7645C148.56 24.4857 148.12 25.2069 147.72 25.9281C147.28 26.7295 147.04 27.0901 147.04 27.0901C147.124 26.1199 147.271 25.1562 147.48 24.2052C147.797 22.662 147.971 21.0927 148 19.5174C148.038 19.3323 148.038 19.1415 148 18.9564C148 18.9564 148 18.716 147.76 18.716C147.76 18.716 147.76 18.716 147.52 18.716C147.367 19.0005 147.233 19.295 147.12 19.5975V18.7962V18.5157C147.12 18.5157 147.12 18.5157 146.92 18.5157H146.64C146.4 18.5157 146.12 19.277 145.76 20.7194C145.4 22.1618 145.08 23.7244 144.76 25.6076L144.48 26.0083C142.52 29.0133 140.76 31.5776 139.24 33.7012C137.72 35.8248 136.8 36.9066 136.52 36.9066C136.52 36.9066 136.52 36.9066 136.52 36.546C136.496 36.2794 136.496 36.0112 136.52 35.7446C136.572 32.5663 137.002 29.4054 137.8 26.3288C137.398 25.1751 136.916 24.0506 136.36 22.9632C136.413 22.4303 136.413 21.8934 136.36 21.3605C136.316 20.7727 136.043 20.2257 135.6 19.8379C135.15 19.4699 134.58 19.284 134 19.317C133.565 19.3701 133.151 19.5358 132.8 19.7978C132.343 20.0995 131.971 20.5133 131.72 20.9999C131.72 21.3204 131.36 21.6409 131.16 21.9615L130.56 22.843C130.56 23.0834 130.28 23.2036 130.2 23.2436C130.12 23.2837 130.2 23.2436 130.2 23.2436C130.176 23.1112 130.176 22.9754 130.2 22.843C130.18 22.5284 130.086 22.2229 129.927 21.9514C129.767 21.6798 129.545 21.4499 129.28 21.2803C128.572 20.9375 127.782 20.7988 127 20.8797C125.906 21.0109 124.852 21.3669 123.902 21.9253C122.952 22.4838 122.127 23.2327 121.48 24.1251C120.75 25.0004 120.119 25.9546 119.6 26.9699C119.06 28.0687 118.644 29.2245 118.36 30.4157V30.4157C118 31.217 117.6 32.2588 117.04 33.5409C116.48 34.8231 115.36 37.8281 114.16 41.2338L112.68 45.2406C112.11 47.0037 111.401 48.7186 110.56 50.3692C110.115 51.1544 109.593 51.8927 109 52.5729C108.76 52.8934 108.6 53.0537 108.52 53.0537C108.28 53.0537 107.96 52.5729 107.64 51.5311C107.416 50.5844 107.282 49.6184 107.24 48.6463C107.043 46.2864 107.043 43.9142 107.24 41.5544C107.24 40.2322 107.72 37.5477 108.28 33.5409C108.52 31.8314 108.72 30.4958 108.88 29.5342C109.2 27.651 110 23.8446 111.24 18.075C111.72 15.7511 112.16 13.8278 112.52 12.3053C113.127 10.1629 113.489 7.95843 113.6 5.73423C113.6 5.25342 113.48 5.01302 113.24 5.01302C113.24 5.01302 113.24 5.01302 113.24 4.81268C113.24 4.61235 113.24 4.37194 112.88 4.37194C112.722 4.42902 112.573 4.5101 112.44 4.61235C112.44 4.61235 112.44 4.61235 112.44 4.29181C112.442 4.19807 112.411 4.10664 112.352 4.03343C112.294 3.96022 112.212 3.90987 112.12 3.89114C111.92 3.89114 111.72 4.17161 111.48 4.77262C111.24 5.37363 111.48 5.09315 111.48 5.09315C111.48 5.09315 111.48 4.65241 111.48 4.49214C111.496 4.31891 111.496 4.14451 111.48 3.97127C111.491 3.89155 111.491 3.81059 111.48 3.73087C111.48 3.73087 111.48 3.53053 111.12 3.53053H110.88C110.88 3.53053 110.88 3.53053 110.6 3.53053C110.32 3.53053 110.36 3.53053 110.36 3.53053C110.277 3.52902 110.196 3.55076 110.126 3.59327C110.055 3.63577 109.997 3.69734 109.96 3.77093C109.866 3.86737 109.759 3.9485 109.64 4.01134C109.094 4.56447 108.684 5.23637 108.44 5.97463C107.856 7.27937 107.348 8.61724 106.92 9.98136C105.448 14.8822 104.299 19.8747 103.48 24.9265C103.48 25.8881 103.2 26.7696 103.04 27.7312C102.6 28.4123 101.84 29.414 100.8 30.7763C99.7599 32.1386 98.6399 33.6211 97.3199 35.1436C96.0918 36.5806 94.7545 37.9201 93.3199 39.1503C92.4119 40.0834 91.2385 40.7131 89.9599 40.9534C89.7767 40.9777 89.5904 40.9655 89.4119 40.9173C89.2334 40.8692 89.0662 40.7861 88.9199 40.6729C88.6596 40.4434 88.4529 40.1593 88.3147 39.8407C88.1764 39.5222 88.1099 39.177 88.1199 38.8298C88.152 36.3797 88.6971 33.9637 89.7199 31.7379C90.2602 31.976 90.8521 32.0725 91.4399 32.0184C91.6294 31.9596 91.8162 31.8927 91.9999 31.818C92.3191 31.7328 92.6278 31.6118 92.9199 31.4574C93.7295 30.973 94.4472 30.3491 95.0399 29.6143C95.6477 28.809 96.133 27.9178 96.4799 26.9699C96.8699 26.1596 97.0488 25.2637 96.9999 24.3655C96.9707 23.9123 96.8335 23.4726 96.5999 23.0834C96.3806 22.6551 96.0486 22.2949 95.6399 22.0416C94.8753 21.6512 94.012 21.4978 93.1599 21.6009C92.4916 21.6454 91.8323 21.7802 91.1999 22.0015C90.4965 22.2447 89.8353 22.5961 89.2399 23.0433C87.8604 24.0474 86.6915 25.3135 85.7999 26.7696C85.2716 27.5472 84.8035 28.3643 84.3999 29.2137H83.9999C82.5296 29.8532 80.9597 30.2328 79.3599 30.3355H77.9999H77.5199L76.8799 29.9749C76.7095 29.804 76.6096 29.5752 76.5999 29.3339C76.6074 28.7807 76.6745 28.2299 76.7999 27.6911C76.7999 26.9699 77.1599 25.9281 77.4799 24.5258C77.6346 24.0743 77.7156 23.6008 77.7199 23.1234V22.9632H77.3599H77.0799H75.9999C75.8943 22.9426 75.7856 22.9426 75.6799 22.9632C75.4697 22.9122 75.2502 22.9122 75.0399 22.9632C74.8362 23.0369 74.6468 23.1453 74.48 23.2837C74.1292 23.6631 73.8208 24.0796 73.5599 24.5258C73.29 25.0405 73.0626 25.5766 72.8799 26.1285C72.6516 26.867 72.5568 27.6404 72.5999 28.4123C72.6684 29.205 72.9145 29.9719 73.3199 30.6561V30.9365C73.3373 31.0157 73.3373 31.0978 73.3199 31.177C73.3382 31.3501 73.3382 31.5247 73.3199 31.6978C73.2194 31.9856 73.1392 32.2802 73.0799 32.5793C72.6799 33.9817 72.1999 35.384 71.6799 36.586C71.2596 37.7065 70.7789 38.8033 70.2399 39.8716C70.0234 40.2473 69.7829 40.6086 69.5199 40.9534L68.72 41.955C68.44 42.2756 68.2799 42.3958 68.2399 42.3958C67.9519 42.173 67.7418 41.8643 67.64 41.5143C67.4875 40.9785 67.3936 40.4277 67.36 39.8716C67.2435 38.3512 67.2435 36.8242 67.36 35.3039C67.36 33.5409 67.6799 31.8982 67.8399 30.2955C68.0266 28.9675 68.1335 27.6295 68.16 26.2887C68.1435 26.196 68.1435 26.101 68.16 26.0083V26.0083C68.16 26.0083 68.1599 25.7679 67.9199 25.7679V25.4874C67.9199 25.4874 67.92 25.4874 67.68 25.4874C67.44 25.4874 67.68 25.4874 67.68 25.4874C67.68 25.4874 67.68 25.1669 67.48 25.2069H67.12C66.9593 25.2928 66.822 25.4166 66.72 25.5675C65.6639 27.1167 65.0171 28.9088 64.8399 30.7763C64.8207 31.0965 64.8207 31.4176 64.8399 31.7379V31.7379C62.88 34.7429 61.16 37.3072 59.6 39.4308C58.04 41.5544 57.16 42.6362 56.92 42.6362C56.92 42.6362 56.92 42.6362 56.92 42.2355C56.92 41.8348 56.92 41.7547 56.92 41.4742C56.9909 38.2973 57.4203 35.1387 58.2 32.0584C58.52 30.7763 58.72 29.8147 58.84 29.2137C58.8934 28.6808 58.8934 28.1439 58.84 27.611C58.8197 27.3213 58.7425 27.0385 58.6128 26.7788C58.483 26.5191 58.3033 26.2877 58.084 26.0978C57.8647 25.9079 57.6101 25.7633 57.3348 25.6723C57.0595 25.5813 56.769 25.5457 56.48 25.5675C56.045 25.6206 55.6314 25.7863 55.28 26.0483C54.8233 26.35 54.4515 26.7638 54.2 27.2504L53.64 28.212C53.4686 28.5244 53.2677 28.8195 53.04 29.0935C52.9518 29.2526 52.8287 29.3896 52.68 29.4941C52.68 29.4941 52.68 29.4941 52.68 29.4941C52.68 29.4941 52.68 29.2537 52.68 29.0935C52.7239 28.7788 52.6893 28.4581 52.5793 28.1601C52.4693 27.8622 52.2873 27.5961 52.0496 27.3858C51.8118 27.1754 51.5258 27.0273 51.217 26.9548C50.9082 26.8822 50.5863 26.8874 50.28 26.9699C49.576 26.6142 48.7828 26.4748 48 26.5692C46.9096 26.6956 45.8568 27.0454 44.9071 27.5968C43.9575 28.1483 43.1313 28.8896 42.48 29.7746C42.2 30.1352 41.96 30.5359 41.68 30.9365L40.64 31.4975C39.3204 32.2325 37.9076 32.7851 36.44 33.1402H35.48H35.2V32.7796L34.88 32.0985L34.16 30.9766C33.9887 30.6438 33.7421 30.3557 33.44 30.1352C33.1991 29.9051 32.913 29.7277 32.6 29.6143C32.1353 29.5526 31.6646 29.5526 31.2 29.6143C30.9716 29.6563 30.762 29.7683 30.6 29.9349C30.2556 30.2468 29.947 30.5962 29.68 30.9766L28.48 32.8998C28.0121 33.5681 27.5846 34.2638 27.2 34.9833L26.48 36.1453C26.48 36.1453 26.48 35.0635 26.92 33.2604C27.251 31.7601 27.4252 30.2293 27.44 28.6928C27.4398 28.4387 27.3706 28.1894 27.24 27.9716C27.24 27.9716 27.24 27.9716 27.24 27.9716V27.7312C27.2674 27.6534 27.2674 27.5685 27.24 27.4908C27.24 27.4908 27.24 27.4908 27.24 27.4908C27.087 27.7752 26.9533 28.0697 26.84 28.3722V28.3722V27.3706V27.0901C26.7484 27.1157 26.6516 27.1157 26.56 27.0901V27.0901C26.56 27.0901 26.04 27.8514 25.68 29.2938C25.32 30.7362 22.6 32.7396 22.24 34.9833C21.88 37.2271 21.56 38.9901 21.36 41.1537C21.2306 42.8207 21.2306 44.4952 21.36 46.1621C21.36 47.0035 21.64 47.4443 21.96 47.4042C22.0707 47.5375 22.2281 47.6235 22.4 47.6446V47.6446H22.68C22.68 47.6446 22.96 47.6446 23.24 47.6446H23.64H24C24 47.6446 24.28 47.1237 24.52 46.1621C25.5311 41.5829 27.3899 37.2341 30 33.3406C30.24 33.02 30.4 32.8197 30.52 32.8197C30.64 32.8197 30.52 32.8197 30.84 33.2604C31.0149 33.6512 31.2438 34.0154 31.52 34.3423C31.789 34.6442 32.1153 34.8894 32.48 35.0635C33.0935 35.1387 33.7153 35.1116 34.32 34.9833C34.8118 35.0373 35.3081 35.0373 35.8 34.9833C36.5945 34.899 37.3745 34.7104 38.12 34.4224C38.8715 34.115 39.6059 33.7673 40.32 33.3807C39.9047 34.3118 39.5701 35.2769 39.32 36.2655C39.2205 37.1442 39.2205 38.0313 39.32 38.9099C39.36 39.7478 39.5782 40.5674 39.96 41.314C40.1952 41.7439 40.5403 42.1034 40.96 42.3557C41.4999 42.6414 42.0798 42.8441 42.68 42.9567C43.0788 42.9992 43.4811 42.9992 43.88 42.9567C44.684 42.8887 45.4628 42.6423 46.16 42.2355C46.7042 41.8369 47.1775 41.3493 47.56 40.7931C48.08 40.0719 48.72 39.0301 49.56 37.5877C49.8082 37.0627 50.1316 36.5768 50.52 36.1453V36.1453C50.4048 37.2508 50.4048 38.3653 50.52 39.4709C50.52 40.112 50.52 40.713 50.8 41.2739C50.9515 42.2512 51.4297 43.1481 52.1563 43.8178C52.883 44.4874 53.815 44.8901 54.8 44.9601H55.52C56.5528 44.9137 57.5276 44.4686 58.24 43.718L59.28 42.1554C59.84 41.354 60.4 40.4325 61.04 39.4308L62.68 36.7062L63.64 35.0234C63.64 35.7046 63.64 36.4258 63.64 37.1069C63.7239 38.7166 64.1178 40.2948 64.8 41.7547C65.0645 42.2436 65.4017 42.6895 65.8 43.0769C66.1201 43.3915 66.5013 43.637 66.92 43.7981C67.0637 43.8393 67.2162 43.8393 67.36 43.7981H68H68.9199L69.68 43.4375C70.1556 43.1395 70.5866 42.7753 70.9599 42.3557C71.3903 41.9472 71.7547 41.4741 72.0399 40.9534C72.4293 40.2123 72.7766 39.4499 73.0799 38.6695C73.4799 37.7079 73.8 36.7463 74.16 35.7046C74.1386 35.6395 74.1386 35.5693 74.16 35.5042C74.16 34.8231 74.5599 34.3022 74.6799 33.8214C74.7999 33.3406 74.9599 33.0601 75.0399 32.7796C75.1199 32.4992 75.0399 32.2988 75.2399 32.1786V31.8982H75.7599H76.3999C77.3304 32.1128 78.2886 32.1804 79.2399 32.0985C80.2163 32.0086 81.1811 31.8207 82.1199 31.5376L82.8799 31.2571L82.6799 31.6578C82.0721 33.3789 81.8137 35.2043 81.9199 37.0268C81.9881 37.9209 82.2328 38.7925 82.6399 39.5911C83.0393 40.3713 83.649 41.0237 84.3999 41.4742C85.4421 42.2957 86.6854 42.8216 87.9999 42.9968H88.9599C89.395 42.9707 89.825 42.8899 90.2399 42.7564L91.6399 42.3557C93.3427 41.4931 94.8321 40.2613 95.9999 38.7497C97.2059 37.3161 98.315 35.8035 99.3199 34.2221L99.5199 33.9416C100.267 32.8197 100.947 31.778 101.56 30.8163C100.879 35.4576 100.664 40.1557 100.92 44.8399C101.4 50.6897 103.04 54.2156 105.92 55.4577C106.327 55.5579 106.753 55.5579 107.16 55.4577C108.185 55.3763 109.161 54.9851 109.96 54.3358C110.516 53.8875 110.99 53.3451 111.36 52.7331C112.135 51.3075 112.791 49.8199 113.32 48.2857C113.8 47.1237 114.68 44.5995 116.04 40.713C116.92 38.2689 117.68 36.1453 118.4 34.2221C118.484 34.5736 118.619 34.9111 118.8 35.2237C119.025 35.6612 119.372 36.0233 119.8 36.2655C120.337 36.5579 120.918 36.7609 121.52 36.8665C121.918 36.9269 122.322 36.9269 122.72 36.8665C123.523 36.7921 124.3 36.5462 125 36.1453C125.537 35.8348 126.023 35.4429 126.44 34.9833C126.92 34.3022 127.6 33.2204 128.44 31.818C128.698 31.2952 129.006 30.7987 129.36 30.3355V30.3355C129.245 31.4545 129.245 32.5823 129.36 33.7012C129.411 34.2948 129.505 34.884 129.64 35.4641C129.784 36.4445 130.261 37.3454 130.989 38.0163C131.717 38.6873 132.653 39.0876 133.64 39.1503H134.36C135.384 39.0833 136.344 38.6243 137.04 37.8682C137.434 37.3719 137.795 36.8499 138.12 36.3056C138.68 35.5042 139.24 34.5827 139.88 33.581C140.52 32.5793 141.04 31.6978 141.48 30.8965L142.24 29.5743C142.24 30.2554 142.24 30.9365 141.96 31.6177C141.811 33.2838 141.811 34.96 141.96 36.6261C141.96 37.4675 142.24 37.9083 142.56 37.8682C142.671 38.0015 142.828 38.0875 143 38.1086H143.2H143.48C143.48 38.1086 143.76 38.1086 144.04 38.1086H144.44C144.702 37.6504 144.878 37.1479 144.96 36.6261C145.954 32.0413 147.814 27.6892 150.44 23.8046C150.68 23.484 150.84 23.2837 150.96 23.2837C151.08 23.2837 150.96 23.2837 151.28 23.7244C151.455 24.1152 151.684 24.4794 151.96 24.8063C152.229 25.1082 152.555 25.3533 152.92 25.5275C153.264 25.7116 153.626 25.8593 154 25.9682C154.492 26.0221 154.988 26.0221 155.48 25.9682C156.274 25.8838 157.054 25.6952 157.8 25.4073L159.56 24.6059C159.26 25.3194 159.019 26.0565 158.84 26.8096C158.742 27.675 158.742 28.5486 158.84 29.414C158.885 30.2638 159.103 31.0955 159.48 31.8581C159.871 32.4634 160.446 32.9269 161.12 33.1803C161.966 33.4784 162.867 33.5878 163.76 33.5009C164.64 33.4241 165.47 33.0578 166.12 32.4591C167.04 31.5052 167.821 30.4261 168.44 29.2537C169.32 27.7579 169.92 26.7963 170.24 26.3689C170.24 26.0884 170.76 25.7278 171.12 25.3271C171.383 24.9673 171.692 24.6439 172.04 24.3655C172.04 24.3655 172.04 24.3655 172.04 24.3655C172.059 24.5922 172.059 24.82 172.04 25.0467C172.04 25.4073 171.8 26.2086 171.6 27.4507C171.4 28.6928 171.16 30.0951 170.88 31.4574C170.6 32.8197 170.36 34.5426 170.16 35.4641C170.053 36.1417 169.823 36.7937 169.48 37.3874C169.09 37.9734 168.648 38.5232 168.16 39.0301C164.344 43.0663 161.27 47.746 159.08 52.8533C157.869 55.576 157.255 58.5273 157.28 61.5079C157.296 61.971 157.376 62.4296 157.52 62.8702C157.63 63.1853 157.807 63.4725 158.04 63.7116C158.349 63.9612 158.684 64.1761 159.04 64.3527C159.443 64.5164 159.857 64.6504 160.28 64.7533C160.692 64.7935 161.108 64.7935 161.52 64.7533C162.073 64.7056 162.622 64.6118 163.16 64.4729C166.3 62.7827 168.77 60.0684 170.16 56.7799C171.742 53.7808 173.079 50.6588 174.16 47.4443C175.668 43.3961 176.832 39.2277 177.64 34.9833C177.683 34.3623 177.776 33.7459 177.92 33.1402C177.993 32.8149 178.144 32.5122 178.36 32.2588L179.52 30.9766L180 30.2955C183.205 26.4123 187.131 23.1877 191.56 20.7995C191.84 20.7995 192 20.7995 192 20.7995V20.479ZM24 44.5194C23.9696 44.8503 23.8887 45.1746 23.76 45.481C23.7716 44.6477 23.8519 43.8168 24 42.9968C24 41.9951 24.36 40.9133 24.52 39.7513V38.4291C24.52 37.4675 24.52 36.9466 24.52 36.9466C24.52 37.748 24.52 38.5894 24.24 39.5109C24.36 41.4342 24 42.9968 24 44.4392V44.5194ZM24.76 46.1621V46.6029V46.2022C24.76 46.2022 24.76 45.9618 24.76 45.8416V45.6412V45.2406C24.7525 45.5225 24.7258 45.8037 24.68 46.082L24.76 46.1621ZM25.28 38.5493C25.04 40.4325 24.8 42.5561 24.52 44.2389C24.52 45.0402 24.32 45.5611 24.28 45.7214H24C24 45.481 24 44.8399 24.28 43.7581C24.64 41.7547 24.88 39.7513 25.08 38.1887C25.08 37.147 25.08 36.6261 25.08 36.6261C25.08 36.6261 25.28 37.5877 25.2 38.4692L25.28 38.5493ZM32 32.6995C31.9784 32.5938 31.9784 32.4847 32 32.379C31.9695 32.288 31.9695 32.1895 32 32.0985C32 32.0985 32 32.0985 32 32.0985C32.0247 32.2847 32.0247 32.4733 32 32.6594V32.6995ZM40.6 41.3941L40.4 41.1537C40.3868 41.0607 40.3868 40.9663 40.4 40.8732L40.64 41.1136V41.354C40.6589 41.4195 40.6589 41.4889 40.64 41.5544L40.6 41.3941ZM46 30.9766C46.0512 30.8485 46.1184 30.7273 46.2 30.616L46.44 30.2955L46.64 30.0551V30.2955V30.616L46.04 30.9766V31.217L46 30.9766ZM44.28 32.8998C44.1452 33.2453 43.9848 33.5801 43.8 33.9015C43.825 33.6257 43.8924 33.3554 44 33.1002C44.1649 32.6443 44.3655 32.2022 44.6 31.778C44.7887 31.4073 45.0167 31.0581 45.28 30.7362V30.7362L45.08 31.1369L44.68 31.8581L44.28 32.8998ZM49.32 32.1386L47.88 34.1419C47.16 35.0635 46.64 35.8248 46.24 36.3456C45.84 36.8665 45.6 37.187 45.44 37.3874C45.3658 37.5096 45.271 37.618 45.16 37.7079V37.7079C45.1696 37.2604 45.2369 36.816 45.36 36.3857C45.4869 35.7368 45.6471 35.0949 45.84 34.4625C46.0086 33.8777 46.2089 33.3025 46.44 32.7396C46.88 31.7669 47.416 30.8408 48.04 29.9749C48.68 29.0534 49.12 28.6126 49.36 28.5726C49.6 28.5325 49.6 28.5726 49.72 29.0534C49.8839 29.4365 49.9917 29.8414 50.04 30.2554V30.5359C50.0993 30.759 50.0993 30.9939 50.04 31.217C49.8194 31.4885 49.5787 31.743 49.32 31.9783V32.1386ZM50.08 36.1453L49.52 37.0668L49.84 36.4258L50.44 35.4641L50.08 36.1453ZM50.08 35.1035L49.64 35.8248C49.64 36.0251 49.64 36.1052 49.4 36.1052L50 35.0635L50.68 34.0618C50.5357 34.3769 50.3755 34.6845 50.2 34.9833L50.08 35.1035ZM52.08 43.7981C52.08 43.7981 52.08 43.7981 51.84 43.5978C51.7245 43.4812 51.6298 43.3457 51.56 43.1971V42.8365C51.56 42.8365 51.56 42.8365 51.88 43.2372L52.12 43.5978C52.1445 43.6761 52.1445 43.76 52.12 43.8382L52.08 43.7981ZM54.28 30.4157L54 30.9766L53.56 31.8982C53.4252 32.2508 53.2507 32.5868 53.04 32.8998C53.0796 32.6786 53.1468 32.4632 53.24 32.2588C53.4 31.8581 53.6 31.4174 53.84 30.9365C54.0435 30.5747 54.2707 30.2267 54.52 29.8948V29.8948C54.5024 30.0214 54.4617 30.1436 54.4 30.2554L54.28 30.4157ZM55 30.4157V30.1753C55.0608 30.0433 55.1418 29.9217 55.24 29.8147C55.3208 29.7173 55.388 29.6095 55.44 29.4941L56 29.0534V29.2938V29.6143L55.76 29.9749L55 30.4157ZM65.92 43.5177L65.76 42.9968L65.48 42.6763V42.4359H65.68L66.04 42.7965C66.2015 42.9309 66.337 43.0939 66.44 43.2773C66.44 43.2773 66.2 43.4375 66.04 43.3173L65.92 43.5177ZM73.9199 30.3355C73.9199 30.3355 73.9199 30.1352 73.9199 30.015V29.7345C73.935 29.8543 73.935 29.9754 73.9199 30.0951C73.9431 30.2277 73.9431 30.3633 73.9199 30.4958V30.3355ZM94.3199 23.484C94.4509 23.4483 94.589 23.4483 94.7199 23.484C94.8228 23.4438 94.937 23.4438 95.0399 23.484C95.0615 23.5898 95.0615 23.6988 95.0399 23.8046C95.0564 23.8973 95.0564 23.9923 95.0399 24.085C95.0912 25.0522 94.8987 26.0168 94.4799 26.8898C94.047 27.8961 93.4219 28.808 92.6399 29.5743C91.9259 30.3055 90.9765 30.7597 89.9599 30.8564C89.6278 30.8959 89.2921 30.8959 88.9599 30.8564C89.5586 29.4509 90.2955 28.1087 91.1599 26.8497C92.0011 25.4881 93.07 24.2818 94.3199 23.2837V23.484ZM92.2799 24.9265L91.1199 26.3689L90.5199 26.9699L90.9199 26.4089L91.5199 25.6076L91.9999 24.9665L92.2799 24.9265ZM91.4399 25.247L90.9999 25.8079L90.2799 26.6894C90.0399 27.05 89.7999 27.3305 89.6399 27.611L89.2399 28.1719C89.516 27.7233 89.8235 27.2949 90.1599 26.8898L91.4399 25.247ZM85.2399 41.5143L84.9599 41.1938L84.7199 40.753V40.4726L85.0399 40.8732C85.2125 41.0748 85.3479 41.3054 85.4399 41.5544C85.4399 41.5544 85.3599 41.4742 85.2399 41.314V41.5143ZM86.4399 33.0601C86.5087 32.7198 86.6023 32.385 86.7199 32.0584C87.0806 31.0168 87.5082 29.9996 87.9999 29.0133C88.4539 28.1366 88.9896 27.3048 89.5999 26.5291L89.8799 26.1685L89.4799 26.7295C88.8004 27.7723 88.1859 28.8562 87.6399 29.9749C87.4917 30.248 87.3582 30.5289 87.2399 30.8163C87.2399 31.177 86.9599 31.4975 86.8399 31.818C86.7199 32.1386 86.4399 32.8598 86.4399 32.8598V33.0601ZM106.44 25.848C106.72 24.5258 107.08 22.843 107.6 20.8396C108.12 18.8362 108.4 17.4739 108.48 17.2736L107.52 22.9632C106.6 27.5308 106.08 30.2153 105.96 30.9766C105.84 31.7379 105.72 32.4591 105.6 33.3406C104.942 37.4729 104.741 41.6652 105 45.8416C105 46.7231 105.24 48.0853 105.48 49.8483V49.4476C105.192 48.1268 104.991 46.7883 104.88 45.4409C104.599 38.7965 105.177 32.1435 106.6 25.6477L106.44 25.848ZM105.6 46.2823C105.6 47.1237 105.6 47.5244 105.6 47.5244V46.122C105.32 40.1335 105.859 34.1347 107.2 28.2921C107.84 25.1669 108.2 23.5642 108.28 23.444C108.196 24.1443 108.076 24.8397 107.92 25.5275C106.584 31.8284 105.834 38.2399 105.68 44.6796L105.6 46.2823ZM105.12 54.6564C105.393 54.7411 105.64 54.8926 105.84 55.0971V55.0971C105.626 54.9093 105.437 54.6937 105.28 54.456L105.12 54.6564ZM106.16 42.6362C106.308 39.6001 106.642 36.5761 107.16 33.581C107.613 30.616 108.093 27.9449 108.6 25.5675C108.782 24.5397 109.023 23.523 109.32 22.5224C109.32 22.5224 109.32 23.5642 108.84 25.247C108.2 28.2921 107.64 31.6978 107.12 35.5042C106.6 39.3106 106.36 41.5944 106.32 42.9968C106.32 43.3975 106.32 44.733 106.32 47.0035V48.8466C106.44 45.3608 106.32 43.2773 106.32 42.5561L106.16 42.6362ZM119.52 35.384V35.1436C119.508 35.0639 119.508 34.9829 119.52 34.9032V34.9032C119.52 34.9032 119.52 34.9032 119.76 34.9032V35.1436V35.3439C119.76 35.3439 119.72 35.3039 119.68 35.3039L119.52 35.384ZM124.84 24.7662L125.08 24.4456C125.151 24.3194 125.231 24.1989 125.32 24.085L125.52 23.8446V24.085L125.32 24.4056L125.08 24.7662L124.88 25.0066L124.84 24.7662ZM123.16 26.6894C123.046 27.0509 122.87 27.3898 122.64 27.6911L123.04 26.9699C123.188 26.5072 123.389 26.0634 123.64 25.6477C123.829 25.277 124.057 24.9278 124.32 24.6059V24.6059L124.12 25.0066C123.968 25.236 123.834 25.4772 123.72 25.7278L123.16 26.6894ZM128.16 25.9281L126.76 27.9315L125.12 30.1352C124.879 30.5017 124.612 30.8498 124.32 31.177C124.32 31.3773 124.08 31.4975 124.04 31.4975C123.999 31.0577 123.999 30.615 124.04 30.1753C124.04 29.5743 124.36 28.9332 124.56 28.252C124.721 27.678 124.922 27.1158 125.16 26.5692C125.591 25.5792 126.127 24.6388 126.76 23.7645C127.4 22.883 127.8 22.4022 128.08 22.4022C128.36 22.4022 128.32 22.4022 128.44 22.843C128.589 23.2286 128.683 23.6332 128.72 24.045V24.1652C128.777 24.3886 128.777 24.6229 128.72 24.8463C128.621 25.193 128.487 25.5286 128.32 25.848L128.16 25.9281ZM128.96 29.9349L128.56 30.9766C128.627 30.7454 128.736 30.5282 128.88 30.3355L129.48 29.3739C129.379 29.5478 129.258 29.7092 129.12 29.8547L128.96 29.9349ZM128.96 28.8931L128.52 29.6143C128.52 29.8147 128.32 29.8948 128.28 29.8948L128.92 28.853L129.56 27.8113C129.477 28.1522 129.37 28.4869 129.24 28.813L128.96 28.8931ZM130.96 37.5877C130.96 37.5877 130.96 37.5877 130.72 37.5877C130.599 37.4603 130.504 37.3106 130.44 37.147C130.413 37.0283 130.413 36.905 130.44 36.7864C130.44 36.7864 130.44 36.7864 130.8 37.187C131.16 37.5877 131 37.4675 131.04 37.5877C131.05 37.6541 131.05 37.7216 131.04 37.7881L130.96 37.5877ZM133.16 24.2052C133.008 24.4347 132.874 24.6758 132.76 24.9265L132.28 25.8881C132.28 26.449 132 26.9699 132 26.9699C132 26.9699 132 26.6894 132 26.2887C132.148 25.826 132.349 25.3822 132.6 24.9665C132.799 24.6021 133.027 24.2538 133.28 23.9248V23.9248L133.16 24.2052ZM133.84 24.2052V23.9648L134.08 23.6443L134.32 23.2837V23.0433V23.2837C134.333 23.4035 134.333 23.5245 134.32 23.6443L134.08 23.9648L133.84 24.2052ZM144.44 34.9833C144.497 35.3013 144.497 35.627 144.44 35.945V35.945C144.44 35.945 144.44 35.1035 144.8 33.7012C145.16 32.2988 145.16 31.6177 145.32 30.4557V29.1335L145.56 27.651C145.56 28.4524 145.56 29.2938 145.28 30.2153C144.92 32.0985 144.68 33.7413 144.44 34.9833ZM145.24 36.6261V37.0668V36.8665C145.24 36.8665 145.24 36.6261 145.24 36.5059V36.3056V35.9049C145.259 36.185 145.259 36.4662 145.24 36.7463V36.6261ZM145.72 29.0133C145.72 30.9365 145.28 33.02 145 34.7029C144.95 35.2043 144.857 35.7004 144.72 36.1854V36.1854C144.72 35.945 144.72 35.3039 145 34.2221C145.32 32.2187 145.6 30.2153 145.76 28.6527C145.76 27.611 145.76 27.0901 145.76 27.0901C145.792 27.7714 145.778 28.454 145.72 29.1335V29.0133ZM152.56 23.3638C152.552 23.2571 152.552 23.15 152.56 23.0433C152.56 23.0433 152.56 22.843 152.56 22.8029C152.56 22.7628 152.56 22.8029 152.56 22.8029C152.56 22.8029 152.56 23.0834 152.56 23.3638ZM161.04 31.6177V31.3773C161.023 31.2981 161.023 31.2161 161.04 31.1369V30.9766C161.04 30.9766 161.04 30.9766 161.28 31.217C161.385 31.3275 161.455 31.4671 161.48 31.6177C161.48 31.6177 161.08 31.6177 161.04 31.6177ZM166.6 20.6393L167.04 20.0783C166.897 20.4194 166.694 20.7317 166.44 20.9999V21.2403C166.44 21.2403 166.36 21.0399 166.6 20.6393ZM164.2 23.9648C164.236 23.7299 164.303 23.5009 164.4 23.2837C164.563 22.8204 164.778 22.3769 165.04 21.9615C165.413 21.2403 165.653 20.8797 165.76 20.8797V21.2803L164.68 22.9632C164.555 23.3128 164.394 23.6485 164.2 23.9648V23.9648ZM168.2 23.9648C167.361 25.2038 166.453 26.3944 165.48 27.5308C165.48 27.5308 165.48 27.5308 165.48 27.5308C165.556 26.4227 165.785 25.3305 166.16 24.2854C166.528 23.0163 167.066 21.8032 167.76 20.6793C168.099 20.122 168.473 19.5867 168.88 19.0766C169.28 18.6359 169.52 18.4356 169.68 18.3955C169.84 18.3554 169.92 18.3955 170.08 18.8763C170.249 19.3669 170.343 19.8801 170.36 20.3989C170.418 20.6086 170.418 20.8302 170.36 21.0399C169.739 22.1282 169.044 23.1724 168.28 24.1652L168.2 23.9648ZM169.88 26.8096L170.2 26.1685C170.379 25.8263 170.593 25.504 170.84 25.2069C170.604 25.8215 170.309 26.4119 169.96 26.9699L169.88 26.8096ZM169.88 25.6477V25.9281L171.24 23.7645C170.994 24.5126 170.629 25.2161 170.16 25.848L169.88 25.6477ZM170.4 51.7315L171.32 49.4877C171.68 48.6463 171.84 48.2055 171.88 48.1655C171.795 48.5453 171.688 48.9199 171.56 49.2874L170.76 51.3709C170.527 52.0126 170.26 52.6412 169.96 53.254C169.759 53.7861 169.504 54.2962 169.2 54.7766C169.633 53.7982 170.128 52.8481 170.68 51.9318L170.4 51.7315ZM167.16 50.3291C166.142 53.9107 164.459 57.2681 162.2 60.2257C161.68 60.9069 161.36 61.2675 161.24 61.2675C161.12 61.2675 161.24 61.2675 161.24 60.7065C161.587 55.976 163.25 51.4373 166.04 47.6045C166.917 46.0829 167.879 44.6115 168.92 43.1971C169.12 42.9167 169.2 42.7564 169.24 42.7564C169.24 42.9701 168.92 44.3057 168.28 46.7631L167.16 50.3291ZM168.88 56.9803C169.12 56.5395 169.68 55.4177 170.48 53.6547C170.862 52.7782 171.289 51.9223 171.76 51.0904L171.4 52.052C170.785 53.6092 170.063 55.122 169.24 56.5796C169.033 56.9868 168.792 57.3755 168.52 57.7416L168.88 56.9803ZM172.12 52.2924C171.4 53.855 171 54.7766 170.8 55.0971V55.4177C170.411 56.3039 169.914 57.1383 169.32 57.9018L169.64 57.3409C170.32 56.1789 171.24 54.2958 172.4 51.7715C172.608 51.2297 172.862 50.7069 173.16 50.2089C172.954 50.9852 172.7 51.7479 172.4 52.4927L172.12 52.2924ZM175.2 22.1618C174.8 24.1251 174.24 27.7712 173.48 33.02C173.48 33.4207 173.48 33.581 173.48 33.581C173.465 33.4478 173.465 33.3135 173.48 33.1803C174 28.7328 174.56 25.1669 175.08 22.883C175.163 22.3204 175.311 21.7692 175.52 21.2403C175.52 21.2403 175.56 21.7611 175.48 22.3622L175.2 22.1618Z" fill="white"/>
<path d="M78.1085 13.4592C80.2285 14.7814 82.4285 15.9033 84.6685 17.0252C84.2285 17.7865 85.4285 18.3875 85.9485 17.7865L87.2685 18.4676C87.8685 18.7481 88.4685 17.7464 87.8685 17.4259L86.7885 16.7447C88.2376 14.8629 89.5733 12.8961 90.7885 10.8548C91.6414 9.84453 92.2742 8.66683 92.6461 7.39725C93.0181 6.12767 93.1211 4.79424 92.9485 3.48246C92.6373 2.34082 91.9099 1.3576 90.9101 0.727046C89.9103 0.0964885 88.7108 -0.135559 87.5485 0.0767422C86.2589 0.466875 85.1071 1.21746 84.2285 2.24038C83.4938 3.1439 82.838 4.10907 82.2685 5.12522C81.5259 4.32448 80.5956 3.72193 79.5619 3.37212C78.5282 3.02231 77.4238 2.93629 76.3485 3.12186C75.3301 3.4194 74.4714 4.11 73.9613 5.04175C73.4512 5.97349 73.3315 7.07005 73.6285 8.0902C73.9864 9.23612 74.5662 10.3001 75.335 11.2214C76.1037 12.1427 77.0462 12.9031 78.1085 13.4592V13.4592Z" fill="white"/>
<path d="M91.7485 16.304C91.9065 16.3401 92.0705 16.3401 92.2285 16.304C92.3496 16.3252 92.4739 16.3181 92.5919 16.2834C92.7098 16.2487 92.8181 16.1872 92.9085 16.1037C93.8685 14.5411 94.8285 12.9384 95.7485 11.3357C95.8229 11.247 95.8772 11.1432 95.9077 11.0315C95.9381 10.9198 95.9441 10.8027 95.9251 10.6885C95.9061 10.5742 95.8626 10.4655 95.7975 10.3697C95.7325 10.2739 95.6476 10.1934 95.5485 10.1337C95.3249 9.99869 95.0575 9.95667 94.8033 10.0166C94.5492 10.0765 94.3286 10.2335 94.1885 10.4542C93.2685 12.0168 92.3885 13.5794 91.5085 15.1421C91.3871 15.3282 91.3443 15.5549 91.3892 15.7726C91.4342 15.9903 91.5634 16.1814 91.7485 16.304V16.304Z" fill="white"/>
<path d="M72.2685 12.8983C72.4595 12.8927 72.643 12.822 72.7885 12.6979C72.9095 12.5592 72.9761 12.3813 72.9761 12.1971C72.9761 12.0129 72.9095 11.835 72.7885 11.6962C71.9608 10.7492 71.4317 9.57788 71.268 8.32998C71.1043 7.08207 71.3132 5.81354 71.8685 4.68447C71.9259 4.54823 71.9465 4.39924 71.9281 4.2525C71.9098 4.10577 71.8531 3.96647 71.7639 3.84865C71.6746 3.73083 71.556 3.63865 71.4199 3.5814C71.2837 3.52414 71.135 3.50384 70.9885 3.52252C70.8432 3.53658 70.7041 3.58832 70.5849 3.67263C70.4656 3.75694 70.3704 3.87092 70.3085 4.00333C69.6563 5.41123 69.4262 6.97856 69.6464 8.51492C69.8665 10.0513 70.5273 11.4905 71.5485 12.6579C71.6393 12.7545 71.7526 12.8271 71.8782 12.869C72.0039 12.911 72.138 12.921 72.2685 12.8983Z" fill="white"/>
<path d="M96.3485 8.89157C96.4854 8.87667 96.6181 8.83467 96.7387 8.76801C96.8593 8.70135 96.9654 8.61135 97.051 8.50325C97.1366 8.39515 97.1999 8.2711 97.2372 8.13829C97.2746 8.00549 97.2852 7.86657 97.2685 7.72962C97.2383 7.47086 97.1086 7.23407 96.907 7.06951C96.7053 6.90494 96.4476 6.82553 96.1885 6.84814C95.7885 6.84814 95.3485 7.24881 95.3885 7.64949C95.2992 7.67731 95.2242 7.73888 95.1794 7.82115C95.1346 7.90342 95.1235 7.99993 95.1485 8.09023C95.2063 8.35328 95.3636 8.58369 95.5873 8.7331C95.811 8.88251 96.0839 8.93931 96.3485 8.89157V8.89157ZM95.5485 7.72962C95.5485 7.28888 96.5485 7.24881 96.4685 7.72962C96.4688 7.78579 96.4573 7.84138 96.4347 7.8928C96.4122 7.94423 96.3791 7.99032 96.3376 8.0281C96.2961 8.06589 96.2471 8.09451 96.1939 8.11211C96.1406 8.12972 96.0843 8.13591 96.0285 8.13029C95.8019 8.06426 95.6044 7.92297 95.4685 7.72962C95.4685 7.72962 95.5485 7.76969 95.5485 7.72962Z" fill="white"/>
<path d="M72.7485 14.3006C72.7485 14.8215 73.2685 15.3824 73.8685 15.3023C74.1228 15.2536 74.3498 15.1116 74.5052 14.9041C74.6605 14.6967 74.733 14.4386 74.7085 14.1804C74.6722 13.9247 74.5488 13.6894 74.3594 13.5142C74.1699 13.339 73.9259 13.2347 73.6685 13.2188C73.5307 13.2088 73.3926 13.2314 73.2651 13.2849C73.1377 13.3383 73.0246 13.421 72.9351 13.5264C72.8455 13.6317 72.7819 13.7567 72.7495 13.8912C72.7171 14.0257 72.7168 14.1659 72.7485 14.3006V14.3006ZM74.2285 14.3006C74.2254 14.4082 74.1892 14.5122 74.1247 14.5983C74.0603 14.6844 73.9708 14.7483 73.8685 14.7814C73.7364 14.7647 73.6137 14.7044 73.5195 14.6101C73.4254 14.5158 73.3652 14.3928 73.3485 14.2605V14.2605C73.3471 14.2056 73.3583 14.1511 73.3812 14.1012C73.404 14.0512 73.438 14.0072 73.4804 13.9724C73.5229 13.9376 73.5727 13.913 73.6261 13.9004C73.6795 13.8879 73.735 13.8877 73.7885 13.8999C73.9088 13.9262 74.0171 13.9915 74.0967 14.0857C74.1762 14.1798 74.2225 14.2976 74.2285 14.4208V14.3006Z" fill="white"/>
</svg>
