<svg width="144" height="51" viewBox="0 0 144 51" fill="none" xmlns="http://www.w3.org/2000/svg">
<path d="M26.9658 14.8656C27.3858 14.8528 27.7968 14.7396 28.1643 14.5355C28.2381 14.4669 28.299 14.3856 28.344 14.2954C28.3627 14.1962 28.3627 14.0944 28.344 13.9953C28.344 13.9953 28.344 13.9953 28.344 13.9953C28.344 13.9953 28.344 13.9953 28.1343 13.9953H27.9545C28.0327 14.0186 28.116 14.0186 28.1942 13.9953C28.1942 13.9953 28.1942 13.9953 28.1942 13.8452C28.214 13.7977 28.2242 13.7467 28.2242 13.6951C28.2242 13.6436 28.214 13.5926 28.1942 13.5451C27.2452 13.1608 26.2136 13.0265 25.198 13.1549C23.0408 13.1549 20.1045 13.305 16.3892 13.6051C14.3518 13.7852 13.393 13.8452 13.0934 13.8452C12.7938 13.8452 12.6739 13.8452 12.6739 13.8452C12.6739 13.5151 12.8537 12.7047 13.0035 11.4742C13.1167 10.7588 13.1868 10.0372 13.2132 9.31333C13.2337 9.22446 13.2337 9.13209 13.2132 9.04322C13.2132 8.71308 13.0035 8.56302 12.9136 8.56302C12.9136 8.56302 12.9136 8.56302 12.7638 8.56302C12.614 8.56302 12.7638 8.56302 12.7638 8.56302V7.45256C12.7793 7.38339 12.7793 7.31164 12.7638 7.24247C12.7638 7.24247 12.7638 7.24247 12.5541 7.24247C12.3443 7.24247 12.5541 7.24247 12.3743 7.42255L11.9848 7.45256V7.0624C12.0042 7.03642 12.0148 7.00483 12.0148 6.97236C12.0148 6.93989 12.0042 6.9083 11.9848 6.88232C11.9848 6.88232 11.9848 6.88232 11.805 6.88232C11.6253 6.88232 11.5953 6.88232 11.5054 7.27249C11.4155 7.66265 11.3556 7.57261 11.3256 7.57261V6.97236C11.2724 6.97527 11.2212 6.99393 11.1785 7.02598C11.1359 7.05804 11.1036 7.10204 11.0859 7.15244C11.0859 7.15244 11.0859 7.33251 11.0859 7.33251C11.0859 7.33251 11.0859 7.12242 10.8762 7.12242C10.6665 7.12242 10.8762 7.12242 10.6964 7.12242C10.6026 7.13126 10.5124 7.16331 10.4339 7.21569C10.3555 7.26808 10.2912 7.33916 10.247 7.42255C10.247 7.42255 10.247 7.60262 10.247 7.60262C10.247 7.60262 8.9886 7.33251 8.9886 7.45256C8.9886 7.57261 8.68898 8.68307 8.29947 10.4538C8.05978 11.6543 7.82008 12.7648 7.61035 13.8452C6.97734 13.8752 6.34687 13.9453 5.72274 14.0553C4.40551 14.3293 3.11284 14.7108 1.85764 15.1958C0.59924 15.4359 0 15.886 0 16.3362C0 16.7864 0 16.3362 0 16.3362H0.14981C0.166123 16.4255 0.166123 16.517 0.14981 16.6063C0.14981 16.7864 -0.029962 16.9365 0.14981 16.9665C0.329582 16.9965 0.14981 16.9665 0.14981 16.9665H0.44943C0.44943 16.9665 0.269658 16.9665 0.269658 17.1466C0.269658 17.1466 0.269658 17.1466 0.44943 17.1466H1.2584C2.48685 17.1466 3.89506 16.9065 5.45308 16.6364L6.98114 16.4263H7.34069C7.34069 18.137 7.13095 20.538 6.95118 23.5992C6.68152 28.7013 6.44183 33.2032 6.23209 37.9152C6.0381 41.3739 6.0381 44.8407 6.23209 48.2994C6.23288 48.866 6.34486 49.4269 6.56168 49.9501C6.72404 50.3811 7.0313 50.742 7.43057 50.9705C7.55814 51.005 7.69252 51.005 7.82008 50.9705H8.1197C8.41389 50.9346 8.69522 50.8287 8.9402 50.6616C9.18518 50.4945 9.38669 50.2711 9.52791 50.0102C9.52791 49.8301 9.76761 46.7988 10.1272 41.0064C10.6665 32.3028 10.9961 27.3508 11.1159 26.1803C11.3697 22.928 11.7998 19.6919 12.4043 16.4863C15.7616 15.7933 19.1675 15.3619 22.5913 15.1958L26.9658 14.8656ZM3.29582 17.3867H2.9962H3.41567H3.29582ZM2.9962 17.0565H2.39696C2.63476 17.0138 2.87825 17.0138 3.11605 17.0565H3.65536H3.89506C3.59651 17.0924 3.29475 17.0924 2.9962 17.0565V17.0565ZM4.13476 17.2366H4.46434H4.76396H4.13476ZM4.85384 16.3062L2.09734 16.8765L1.28837 17.0265C2.39753 16.7026 3.52922 16.4618 4.67407 16.3062L6.83133 15.9461C6.21099 16.1088 5.58034 16.2291 4.94373 16.3062H4.85384ZM8.68898 29.0915C8.9886 26.4204 8.9886 24.1995 9.3781 22.1586C9.67772 19.5776 9.91742 18.077 10.0073 17.6268L9.55788 22.1286C9.55788 23.5392 9.25826 25.1299 9.07848 27.2307C9.07848 27.951 9.07848 28.6113 8.86875 29.1815C8.59909 32.1828 8.44928 33.6534 8.44928 33.6534C8.41932 32.813 8.50921 31.2824 8.68898 29.0915ZM8.9886 37.7051C8.96903 38.3783 8.90899 39.0498 8.80883 39.7159V39.7159C8.80883 39.7159 8.80883 38.3953 8.9886 36.1444C9.16837 32.603 9.46799 29.1515 9.88746 25.8502C9.86189 25.5205 9.86189 25.1894 9.88746 24.8598C9.88746 24.8598 9.88746 26.3304 9.55788 29.0615C9.22829 31.7926 9.13841 34.5238 8.9886 37.7051ZM10.4567 28.1611C10.0073 32.1528 9.70769 35.4541 9.52791 38.0952L9.34814 40.1061C9.34814 39.896 9.34814 39.2657 9.34814 38.1853C9.55788 34.2236 10.0073 29.6017 10.6665 24.3495C10.7027 23.8849 10.7728 23.4234 10.8762 22.969C10.8163 23.3291 10.6665 25.0398 10.3668 28.1611H10.4567Z" fill="white"/>
<path d="M143.818 16.3362C143.818 16.3362 143.818 16.3362 143.818 16.1261C143.819 16.0716 143.802 16.0181 143.77 15.9744C143.737 15.9308 143.691 15.8996 143.638 15.886C143.638 15.886 143.638 15.886 143.638 15.886C143.205 15.9693 142.783 16.1002 142.379 16.2761C139.605 17.7671 137.087 19.6921 134.919 21.9785C134.62 22.3014 134.288 22.593 133.93 22.8489V22.8489C133.93 22.6388 133.93 20.838 134.35 17.5067C134.379 17.1972 134.379 16.8857 134.35 16.5763C134.311 15.9058 134.105 15.2557 133.75 14.6855C133.457 14.2224 133.042 13.8487 132.552 13.605C132.192 13.4147 131.79 13.3216 131.383 13.3349C131.176 13.3433 130.972 13.3959 130.786 13.489C130.6 13.5821 130.436 13.7137 130.305 13.8752C130.044 14.2039 129.813 14.5554 129.616 14.9256C129.467 15.2385 129.253 15.5151 128.986 15.7359C128.986 15.7359 128.986 15.7359 128.986 15.2857C128.98 15.0522 128.913 14.8243 128.792 14.6244C128.671 14.4245 128.501 14.2594 128.297 14.1453C127.776 13.8596 127.176 13.7541 126.589 13.8451C125.773 13.9398 124.984 14.2018 124.273 14.6149C123.561 15.0279 122.943 15.5832 122.455 16.2461C122.101 16.6963 121.79 17.1786 121.526 17.6867L121.196 17.8668C120.255 18.4051 119.248 18.8188 118.2 19.0973H117.451H117.271V18.8272L116.312 18.1969L115.893 17.2065C115.765 16.9572 115.58 16.7414 115.354 16.5763C115.173 16.4039 114.959 16.271 114.724 16.1861C114.377 16.1279 114.023 16.1279 113.676 16.1861C113.51 16.1923 113.351 16.2559 113.226 16.3662C112.956 16.6662 112.725 16.9989 112.537 17.3566L111.638 18.7972C111.279 19.3374 110.949 19.8776 110.65 20.4179C110.32 21.0181 110.14 21.2882 110.14 21.2882C110.203 20.5615 110.313 19.8397 110.47 19.1273C110.707 17.9714 110.838 16.7959 110.859 15.6159C110.888 15.4772 110.888 15.3343 110.859 15.1957C110.859 15.1957 110.859 15.0156 110.68 15.0156C110.68 15.0156 110.68 15.0156 110.5 15.0156C110.385 15.2287 110.285 15.4493 110.2 15.6759V15.0757V14.8656C110.2 14.8656 110.2 14.8656 110.05 14.8656H109.841C109.661 14.8656 109.451 15.4358 109.181 16.5162C108.912 17.5967 108.672 18.7672 108.432 20.1778L108.223 20.4779C106.755 22.7288 105.436 24.6496 104.298 26.2403C103.159 27.8309 102.47 28.6413 102.26 28.6413C102.26 28.6413 102.26 28.6413 102.26 28.3711C102.242 28.1715 102.242 27.9706 102.26 27.7709C102.299 25.3902 102.621 23.0225 103.219 20.718C102.918 19.8538 102.557 19.0115 102.14 18.1969C102.18 17.7978 102.18 17.3956 102.14 16.9964C102.108 16.5561 101.903 16.1465 101.571 15.856C101.234 15.5803 100.807 15.4411 100.373 15.4658C100.047 15.5055 99.7371 15.6297 99.4738 15.826C99.1318 16.0519 98.8532 16.3619 98.6648 16.7263C98.6648 16.9664 98.3952 17.2065 98.2454 17.4466L97.7959 18.1069C97.7959 18.287 97.5862 18.377 97.5263 18.407C97.4664 18.437 97.5263 18.407 97.5263 18.407C97.5083 18.3078 97.5083 18.2061 97.5263 18.1069C97.5114 17.8713 97.4413 17.6424 97.3216 17.4391C97.2018 17.2357 97.0359 17.0635 96.8372 16.9364C96.3067 16.6796 95.7154 16.5757 95.1293 16.6363C94.3102 16.7346 93.5201 17.0012 92.8087 17.4195C92.0972 17.8379 91.4796 18.3988 90.9946 19.0673C90.4476 19.723 89.9752 20.4377 89.5864 21.1982C89.1819 22.0213 88.8704 22.887 88.6575 23.7792V23.7792C88.3879 24.3795 88.0883 25.1598 87.6688 26.1202C87.2493 27.0806 86.4104 29.3315 85.5115 31.8826L84.4029 34.8838C83.976 36.2045 83.445 37.4891 82.8149 38.7254C82.4818 39.3136 82.0904 39.8666 81.6464 40.3761C81.4667 40.6162 81.3468 40.7363 81.2869 40.7363C81.1071 40.7363 80.8674 40.3761 80.6277 39.5958C80.4597 38.8866 80.3593 38.1631 80.3281 37.4349C80.1808 35.6672 80.1808 33.8904 80.3281 32.1227C80.3281 31.1323 80.6876 29.1215 81.1071 26.1202C81.2869 24.8397 81.4367 23.8393 81.5565 23.119C81.7962 21.7084 82.3955 18.8572 83.3243 14.5354C83.6838 12.7947 84.0134 11.3541 84.2831 10.2136C84.7377 8.60888 85.0091 6.95765 85.0921 5.29161C85.0921 4.93146 85.0022 4.75138 84.8224 4.75138C84.8224 4.75138 84.8224 4.75138 84.8224 4.60132C84.8224 4.45126 84.8224 4.27118 84.5527 4.27118C84.4343 4.31394 84.3232 4.37467 84.2232 4.45126C84.2232 4.45126 84.2232 4.45126 84.2232 4.21116C84.2246 4.14095 84.2014 4.07246 84.1576 4.01762C84.1138 3.96278 84.0522 3.92507 83.9835 3.91104C83.8337 3.91104 83.6838 4.12112 83.5041 4.57131C83.3243 5.0215 83.5041 4.81141 83.5041 4.81141C83.5041 4.81141 83.5041 4.48127 83.5041 4.36122C83.5163 4.23146 83.5163 4.10082 83.5041 3.97106C83.5127 3.91135 83.5127 3.8507 83.5041 3.79099C83.5041 3.79099 83.5041 3.64092 83.2344 3.64092H83.0546C83.0546 3.64092 83.0546 3.64092 82.8449 3.64092C82.6352 3.64092 82.6651 3.64092 82.6651 3.64092C82.6034 3.63979 82.5425 3.65608 82.4895 3.68792C82.4366 3.71976 82.3936 3.76587 82.3655 3.821C82.2955 3.89324 82.2146 3.954 82.1258 4.00107C81.7171 4.41539 81.4095 4.91868 81.227 5.47168C80.7893 6.449 80.4092 7.45112 80.0884 8.47292C78.9856 12.1439 78.1249 15.8835 77.5117 19.6675C77.5117 20.3878 77.3019 21.0481 77.1821 21.7684C76.8525 22.2786 76.2832 23.0289 75.5042 24.0494C74.7252 25.0698 73.8863 26.1802 72.8975 27.3207C71.9776 28.3971 70.9759 29.4005 69.9013 30.322C69.2211 31.0209 68.3422 31.4925 67.3845 31.6725C67.2473 31.6907 67.1077 31.6816 66.974 31.6455C66.8403 31.6094 66.7151 31.5472 66.6055 31.4624C66.4105 31.2905 66.2557 31.0777 66.1521 30.8391C66.0486 30.6005 65.9988 30.3419 66.0063 30.0819C66.0303 28.2466 66.4386 26.4369 67.2047 24.7697C67.6095 24.948 68.0528 25.0203 68.4931 24.9797C68.635 24.9357 68.7749 24.8856 68.9126 24.8297C69.1517 24.7658 69.3828 24.6752 69.6017 24.5596C70.2081 24.1967 70.7457 23.7293 71.1897 23.179C71.645 22.5757 72.0085 21.9082 72.2683 21.1982C72.5604 20.5913 72.6944 19.9202 72.6578 19.2474C72.6359 18.9079 72.5332 18.5786 72.3582 18.287C72.1939 17.9662 71.9453 17.6964 71.6391 17.5067C71.0664 17.2142 70.4197 17.0993 69.7815 17.1765C69.2808 17.2099 68.787 17.3109 68.3133 17.4766C67.7865 17.6588 67.2911 17.922 66.8452 18.257C65.8118 19.0091 64.9363 19.9575 64.2685 21.0481C63.8727 21.6306 63.5221 22.2427 63.2198 22.8789H62.9202C61.8188 23.3579 60.6429 23.6422 59.4446 23.7192H58.4259H58.0663L57.5869 23.4491C57.4593 23.3211 57.3844 23.1497 57.3772 22.9689C57.3828 22.5545 57.4331 22.142 57.527 21.7384C57.527 21.1982 57.7967 20.4179 58.0364 19.3674C58.1522 19.0292 58.2129 18.6745 58.2161 18.317V18.1969H57.9465H57.7368H56.9278C56.8486 18.1816 56.7672 18.1816 56.6881 18.1969C56.5306 18.1587 56.3662 18.1587 56.2087 18.1969C56.0561 18.2522 55.9142 18.3334 55.7892 18.437C55.5265 18.7212 55.2955 19.0332 55.1001 19.3674C54.8979 19.753 54.7276 20.1545 54.5907 20.5679C54.4197 21.1211 54.3487 21.7004 54.381 22.2786C54.4323 22.8724 54.6166 23.4469 54.9203 23.9593V24.1694C54.9333 24.2287 54.9333 24.2902 54.9203 24.3495C54.934 24.4792 54.934 24.61 54.9203 24.7396C54.845 24.9552 54.7849 25.1759 54.7406 25.3999C54.4409 26.4504 54.0814 27.5008 53.6919 28.4012C53.377 29.2404 53.017 30.062 52.6133 30.8622C52.451 31.1436 52.2709 31.4143 52.0739 31.6725L51.4747 32.4228C51.265 32.6629 51.1451 32.753 51.1152 32.753C50.8994 32.586 50.742 32.3549 50.6657 32.0927C50.5515 31.6913 50.4812 31.2787 50.456 30.8622C50.3688 29.7234 50.3688 28.5796 50.456 27.4408C50.456 26.1202 50.6957 24.8897 50.8155 23.6892C50.9553 22.6945 51.0354 21.6923 51.0552 20.688C51.0429 20.6185 51.0429 20.5474 51.0552 20.4779V20.4779C51.0552 20.4779 51.0552 20.2978 50.8755 20.2978V20.0877C50.8755 20.0877 50.8755 20.0877 50.6957 20.0877C50.5159 20.0877 50.6957 20.0877 50.6957 20.0877C50.6957 20.0877 50.6957 19.8476 50.5459 19.8776H50.2762C50.1559 19.9419 50.0531 20.0347 49.9766 20.1477C49.1856 21.3082 48.7011 22.6505 48.5684 24.0494C48.554 24.2892 48.554 24.5298 48.5684 24.7697V24.7697C47.1002 27.0206 45.8119 28.9414 44.6434 30.532C43.4748 32.1227 42.8157 32.933 42.6359 32.933C42.6359 32.933 42.6359 32.933 42.6359 32.6329C42.6359 32.3328 42.6359 32.2728 42.6359 32.0627C42.6891 29.683 43.0107 27.317 43.5947 25.0098C43.8344 24.0494 43.9842 23.3291 44.0741 22.8789C44.1141 22.4797 44.1141 22.0775 44.0741 21.6784C44.0589 21.4614 44.0011 21.2496 43.9039 21.0551C43.8067 20.8606 43.6721 20.6872 43.5079 20.545C43.3436 20.4027 43.1529 20.2944 42.9467 20.2262C42.7405 20.1581 42.5229 20.1314 42.3063 20.1477C41.9805 20.1875 41.6707 20.3116 41.4075 20.5079C41.0654 20.7338 40.7869 21.0438 40.5985 21.4083L40.179 22.1286C40.0507 22.3626 39.9002 22.5837 39.7296 22.7888C39.6636 22.908 39.5713 23.0107 39.4599 23.089C39.4599 23.089 39.4599 23.089 39.4599 23.089C39.4599 23.089 39.4599 22.9089 39.4599 22.7888C39.4928 22.5531 39.4669 22.313 39.3845 22.0897C39.3021 21.8665 39.1658 21.6672 38.9877 21.5097C38.8097 21.3521 38.5954 21.2412 38.3641 21.1869C38.1328 21.1325 37.8917 21.1364 37.6622 21.1982C37.1349 20.9317 36.5408 20.8273 35.9544 20.8981C35.1376 20.9927 34.349 21.2547 33.6377 21.6678C32.9264 22.0808 32.3075 22.6361 31.8196 23.299C31.6099 23.5692 31.4301 23.8693 31.2204 24.1694L30.4414 24.5896C29.453 25.1402 28.3947 25.5541 27.2954 25.8201H26.5763H26.3666V25.55L26.1269 25.0398L25.5875 24.1994C25.4592 23.9501 25.2745 23.7343 25.0482 23.5692C24.8678 23.3968 24.6535 23.2639 24.419 23.179C24.071 23.1327 23.7184 23.1327 23.3704 23.179C23.1993 23.2104 23.0423 23.2943 22.9209 23.4191C22.6629 23.6527 22.4318 23.9144 22.2318 24.1994L21.3329 25.64C20.9825 26.1405 20.6623 26.6617 20.3742 27.2007L19.8348 28.071C19.8348 28.071 19.8348 27.2607 20.1644 25.9101C20.4123 24.7863 20.5429 23.6396 20.5539 22.4887C20.5538 22.2984 20.502 22.1116 20.4041 21.9485C20.4041 21.9485 20.4041 21.9485 20.4041 21.9485V21.7684C20.4247 21.7102 20.4247 21.6466 20.4041 21.5883C20.4041 21.5883 20.4041 21.5883 20.4041 21.5883C20.2895 21.8014 20.1894 22.022 20.1045 22.2486V22.2486V21.4983V21.2882C20.0359 21.3074 19.9634 21.3074 19.8948 21.2882V21.2882C19.8948 21.2882 19.5053 21.8585 19.2356 22.9389C18.9659 24.0193 16.9285 25.52 16.6589 27.2007C16.3892 28.8814 16.1495 30.2019 15.9997 31.8226C15.9027 33.0712 15.9027 34.3255 15.9997 35.5741C15.9997 36.2044 16.2094 36.5345 16.4491 36.5045C16.5321 36.6044 16.65 36.6688 16.7787 36.6846V36.6846H16.9884C16.9884 36.6846 17.1982 36.6846 17.4079 36.6846H17.7075H17.9772C17.9772 36.6846 18.1869 36.2944 18.3667 35.5741C19.1241 32.1441 20.5164 28.8866 22.4715 25.9702C22.6513 25.7301 22.7711 25.58 22.861 25.58C22.9509 25.58 22.861 25.58 23.1007 25.9101C23.2317 26.2028 23.4032 26.4756 23.61 26.7205C23.8115 26.9466 24.056 27.1303 24.3291 27.2607C24.7887 27.317 25.2544 27.2967 25.7074 27.2007C26.0758 27.2411 26.4475 27.2411 26.816 27.2007C27.4111 27.1375 27.9954 26.9962 28.5538 26.7805C29.1167 26.5503 29.6668 26.2898 30.2017 26.0002C29.8906 26.6976 29.64 27.4206 29.4526 28.1611C29.3782 28.8192 29.3782 29.4837 29.4526 30.1419C29.4826 30.7695 29.646 31.3834 29.932 31.9426C30.1082 32.2647 30.3667 32.534 30.6811 32.7229C31.0855 32.937 31.5199 33.0887 31.9694 33.1731C32.2682 33.2049 32.5695 33.2049 32.8683 33.1731C33.4705 33.1221 34.0539 32.9376 34.5761 32.6329C34.9838 32.3343 35.3383 31.9691 35.6248 31.5525C36.0143 31.0122 36.4937 30.2319 37.1229 29.1515C37.3088 28.7582 37.5511 28.3942 37.842 28.071V28.071C37.7558 28.8991 37.7558 29.734 37.842 30.5621C37.842 31.0423 37.842 31.4924 38.0517 31.9126C38.1652 32.6447 38.5234 33.3165 39.0677 33.8181C39.612 34.3197 40.3102 34.6214 41.0479 34.6738H41.5872C42.3609 34.639 43.0911 34.3056 43.6247 33.7434L44.4037 32.5729C44.8231 31.9726 45.2426 31.2823 45.722 30.532L46.9504 28.4912L47.6695 27.2307C47.6695 27.7409 47.6695 28.2811 47.6695 28.7913C47.7324 29.9971 48.0274 31.1792 48.5384 32.2728C48.7366 32.639 48.9891 32.9729 49.2875 33.2632C49.5273 33.4988 49.8128 33.6827 50.1264 33.8034C50.2341 33.8342 50.3483 33.8342 50.456 33.8034H50.9354H51.6245L52.1938 33.5333C52.5501 33.31 52.8729 33.0372 53.1526 32.7229C53.475 32.4169 53.7479 32.0625 53.9615 31.6725C54.2532 31.1175 54.5133 30.5463 54.7406 29.9618C55.0402 29.2415 55.2799 28.5212 55.5495 27.7409C55.5335 27.6922 55.5335 27.6396 55.5495 27.5908C55.5495 27.0806 55.8491 26.6905 55.939 26.3303C56.0289 25.9702 56.1488 25.7601 56.2087 25.55C56.2686 25.3399 56.2087 25.1898 56.3585 25.0998V24.8897H56.748H57.2274C57.9244 25.0505 58.6421 25.1011 59.3547 25.0398C60.086 24.9724 60.8087 24.8317 61.512 24.6196L62.0812 24.4095L61.9314 24.7096C61.4761 25.9988 61.2826 27.3661 61.3622 28.7313C61.4132 29.401 61.5965 30.0539 61.9015 30.6521C62.2006 31.2365 62.6573 31.7252 63.2198 32.0627C64.0004 32.678 64.9317 33.0719 65.9164 33.2031H66.6355C66.9613 33.1836 67.2835 33.1231 67.5942 33.0231L68.6429 32.7229C69.9184 32.0768 71.034 31.1541 71.9088 30.0218C72.8121 28.948 73.6429 27.815 74.3956 26.6304L74.5454 26.4203C75.1047 25.58 75.6141 24.7997 76.0735 24.0794C75.5633 27.5559 75.4027 31.075 75.5941 34.5837C75.9536 38.9655 77.1821 41.6066 79.3393 42.537C79.6444 42.612 79.9631 42.612 80.2682 42.537C81.0361 42.476 81.7674 42.183 82.3655 41.6967C82.7823 41.3608 83.1372 40.9545 83.4142 40.4962C83.9948 39.4283 84.4858 38.314 84.8823 37.1648C85.2419 36.2944 85.901 34.4036 86.9197 31.4924C87.5789 29.6617 88.1482 28.071 88.6875 26.6304C88.7505 26.8938 88.8514 27.1465 88.9871 27.3807C89.1555 27.7084 89.4159 27.9796 89.7362 28.1611C90.1384 28.3801 90.5736 28.5321 91.0245 28.6112C91.3224 28.6565 91.6255 28.6565 91.9234 28.6112C92.5247 28.5555 93.107 28.3713 93.6312 28.071C94.0335 27.8385 94.3974 27.5449 94.7099 27.2007C95.0694 26.6905 95.5788 25.8801 96.208 24.8297C96.4013 24.4381 96.6321 24.0662 96.8971 23.7192V23.7192C96.8107 24.5573 96.8107 25.4021 96.8971 26.2403C96.9354 26.6849 97.0055 27.1262 97.1068 27.5608C97.2151 28.2951 97.5717 28.97 98.1171 29.4725C98.6624 29.9751 99.3635 30.2749 100.103 30.322H100.642C101.41 30.2717 102.128 29.9279 102.65 29.3616C102.945 28.9898 103.215 28.5988 103.459 28.1911C103.878 27.5908 104.298 26.9005 104.777 26.1502C105.256 25.3999 105.646 24.7396 105.976 24.1394L106.545 23.149C106.545 23.6592 106.545 24.1694 106.335 24.6796C106.223 25.9276 106.223 27.1832 106.335 28.4312C106.335 29.0614 106.545 29.3916 106.785 29.3616C106.867 29.4614 106.985 29.5258 107.114 29.5416H107.264H107.474C107.474 29.5416 107.683 29.5416 107.893 29.5416H108.193C108.389 29.1984 108.521 28.822 108.582 28.4312C109.327 24.9969 110.72 21.737 112.687 18.8272C112.867 18.5871 112.987 18.437 113.077 18.437C113.166 18.437 113.077 18.437 113.316 18.7672C113.447 19.0599 113.619 19.3327 113.826 19.5775C114.027 19.8037 114.272 19.9873 114.545 20.1177C114.802 20.2557 115.073 20.3663 115.354 20.4479C115.722 20.4883 116.094 20.4883 116.462 20.4479C117.057 20.3847 117.642 20.2434 118.2 20.0277L119.518 19.4274C119.294 19.9619 119.113 20.514 118.979 21.0781C118.906 21.7263 118.906 22.3808 118.979 23.0289C119.013 23.6655 119.176 24.2885 119.458 24.8597C119.751 25.3131 120.182 25.6603 120.687 25.8501C121.321 26.0734 121.996 26.1553 122.664 26.0902C123.323 26.0327 123.945 25.7584 124.432 25.3099C125.121 24.5954 125.706 23.7871 126.17 22.9089C126.829 21.7884 127.279 21.0681 127.518 20.748C127.518 20.5379 127.908 20.2678 128.177 19.9677C128.374 19.6981 128.606 19.4559 128.867 19.2474C128.867 19.2474 128.867 19.2474 128.867 19.2474C128.881 19.4171 128.881 19.5878 128.867 19.7576C128.867 20.0277 128.687 20.6279 128.537 21.5583C128.387 22.4887 128.207 23.5391 127.998 24.5596C127.788 25.58 127.608 26.8705 127.458 27.5608C127.379 28.0683 127.206 28.5567 126.949 29.0014C126.657 29.4404 126.326 29.8522 125.96 30.2319C123.102 33.2552 120.8 36.7605 119.159 40.5862C118.252 42.6256 117.792 44.8363 117.811 47.0689C117.822 47.4158 117.883 47.7593 117.99 48.0893C118.073 48.3254 118.206 48.5405 118.38 48.7196C118.611 48.9065 118.862 49.0675 119.129 49.1998C119.431 49.3224 119.741 49.4228 120.058 49.4999C120.367 49.53 120.678 49.53 120.987 49.4999C121.401 49.4642 121.812 49.3939 122.215 49.2898C124.567 48.0237 126.417 45.9907 127.458 43.5274C128.643 41.2809 129.645 38.9424 130.455 36.5345C131.584 33.5023 132.456 30.3799 133.061 27.2007C133.093 26.7355 133.163 26.2737 133.271 25.8201C133.325 25.5764 133.439 25.3497 133.601 25.1598L134.469 24.1994L134.829 23.6892C137.23 20.7805 140.17 18.3651 143.488 16.5763C143.698 16.5763 143.818 16.5763 143.818 16.5763V16.3362ZM17.9772 34.3436C17.9544 34.5915 17.8938 34.8344 17.7974 35.0639C17.8061 34.4398 17.8663 33.8174 17.9772 33.2031C17.9772 32.4528 18.2469 31.6425 18.3667 30.7721V29.7817C18.3667 29.0614 18.3667 28.6713 18.3667 28.6713C18.3667 29.2715 18.3667 29.9018 18.157 30.5921C18.2468 32.0327 17.9772 33.2031 17.9772 34.2836V34.3436ZM18.5465 35.5741V35.9043V35.6041C18.5465 35.6041 18.5465 35.4241 18.5465 35.334V35.184V34.8838C18.5409 35.0951 18.5209 35.3056 18.4865 35.5141L18.5465 35.5741ZM18.936 29.8718C18.7562 31.2824 18.5764 32.873 18.3667 34.1335C18.3667 34.7338 18.2169 35.1239 18.1869 35.244H17.9772C17.9772 35.0639 17.9772 34.5837 18.1869 33.7734C18.4566 32.2728 18.6364 30.7721 18.7862 29.6017C18.7862 28.8213 18.7862 28.4312 18.7862 28.4312C18.7862 28.4312 18.936 29.1515 18.8761 29.8117L18.936 29.8718ZM23.9696 25.49C23.9534 25.4107 23.9534 25.3291 23.9696 25.2499C23.9468 25.1817 23.9468 25.1079 23.9696 25.0398C23.9696 25.0398 23.9696 25.0398 23.9696 25.0398C23.9881 25.1792 23.9881 25.3205 23.9696 25.4599V25.49ZM30.4114 32.0026L30.2616 31.8226C30.2518 31.7529 30.2518 31.6822 30.2616 31.6125L30.4414 31.7926V31.9726C30.4555 32.0217 30.4555 32.0737 30.4414 32.1227L30.4114 32.0026ZM34.4563 24.1994C34.4947 24.1034 34.545 24.0127 34.6061 23.9293L34.7859 23.6892L34.9357 23.5091V23.6892V23.9293L34.4862 24.1994V24.3795L34.4563 24.1994ZM33.1679 25.64C33.067 25.8988 32.9468 26.1496 32.8084 26.3903C32.8271 26.1837 32.8776 25.9812 32.9582 25.7901C33.0818 25.4486 33.232 25.1174 33.4076 24.7997C33.549 24.522 33.7198 24.2604 33.917 24.0193V24.0193L33.7672 24.3195L33.4675 24.8597L33.1679 25.64ZM36.9431 25.0698L35.8645 26.5704C35.3252 27.2607 34.9357 27.8309 34.6361 28.2211C34.3364 28.6112 34.1567 28.8513 34.0368 29.0014C33.9812 29.0929 33.9103 29.1742 33.8271 29.2415V29.2415C33.8343 28.9063 33.8847 28.5734 33.9769 28.2511C34.072 27.765 34.192 27.2842 34.3364 26.8105C34.4627 26.3725 34.6128 25.9416 34.7859 25.52C35.1155 24.7914 35.517 24.0977 35.9843 23.4491C36.4637 22.7588 36.7933 22.4287 36.9731 22.3987C37.1529 22.3687 37.1529 22.3987 37.2428 22.7588C37.3655 23.0458 37.4463 23.3491 37.4824 23.6592V23.8693C37.5269 24.0364 37.5269 24.2123 37.4824 24.3795C37.3172 24.5829 37.1369 24.7735 36.9431 24.9497V25.0698ZM37.5124 28.071L37.0929 28.7613L37.3326 28.2811L37.7821 27.5608L37.5124 28.071ZM37.5124 27.2907L37.1828 27.8309C37.1828 27.981 37.1828 28.041 37.0031 28.041L37.4525 27.2607L37.9618 26.5104C37.8538 26.7464 37.7338 26.9768 37.6023 27.2007L37.5124 27.2907ZM39.0105 33.8034C39.0105 33.8034 39.0105 33.8034 38.8307 33.6533C38.7443 33.566 38.6734 33.4645 38.621 33.3532V33.0831C38.621 33.0831 38.621 33.0831 38.8607 33.3832L39.0405 33.6533C39.0589 33.7119 39.0589 33.7748 39.0405 33.8334L39.0105 33.8034ZM40.6584 23.7792L40.4487 24.1994L40.1191 24.8897C40.0182 25.1538 39.8875 25.4055 39.7296 25.64C39.7593 25.4743 39.8096 25.313 39.8794 25.1598C39.9993 24.8597 40.1491 24.5296 40.3288 24.1694C40.4813 23.8984 40.6515 23.6377 40.8382 23.3891V23.3891C40.825 23.4839 40.7946 23.5754 40.7483 23.6592L40.6584 23.7792ZM41.1977 23.7792V23.5992C41.2433 23.5003 41.304 23.4092 41.3775 23.3291C41.438 23.2562 41.4884 23.1754 41.5273 23.089L41.9468 22.7588V22.9389V23.179L41.767 23.4491L41.1977 23.7792ZM49.3774 33.5933L49.2575 33.2031L49.0478 32.963V32.783H49.1976L49.4672 33.0531C49.5882 33.1538 49.6898 33.2759 49.7669 33.4132C49.7669 33.4132 49.5871 33.5333 49.4672 33.4432L49.3774 33.5933ZM55.3698 23.7192C55.3698 23.7192 55.3698 23.5692 55.3698 23.4791V23.269C55.381 23.3587 55.381 23.4495 55.3698 23.5391C55.3871 23.6384 55.3871 23.74 55.3698 23.8393V23.7192ZM70.6504 18.5871C70.7485 18.5603 70.8519 18.5603 70.95 18.5871C71.0271 18.557 71.1126 18.557 71.1897 18.5871C71.2058 18.6663 71.2058 18.748 71.1897 18.8272C71.202 18.8967 71.202 18.9678 71.1897 19.0373C71.2281 19.7617 71.0839 20.4842 70.7702 21.1382C70.4459 21.8919 69.9777 22.575 69.392 23.149C68.8572 23.6967 68.146 24.037 67.3845 24.1094C67.1357 24.139 66.8843 24.139 66.6355 24.1094C67.0839 23.0566 67.6359 22.0512 68.2834 21.1081C68.9134 20.0882 69.7141 19.1847 70.6504 18.437V18.5871ZM69.1223 19.6675L68.2534 20.748L67.804 21.1982L68.1036 20.778L68.553 20.1778L68.9126 19.6976L69.1223 19.6675ZM68.4931 19.9076L68.1635 20.3278L67.6242 20.9881C67.4444 21.2582 67.2647 21.4683 67.1448 21.6784L66.8452 22.0986C67.052 21.7626 67.2823 21.4416 67.5343 21.1382L68.4931 19.9076ZM63.849 32.0927L63.6393 31.8526L63.4595 31.5224V31.3124L63.6992 31.6125C63.8284 31.7635 63.9299 31.9362 63.9988 32.1227C63.9988 32.1227 63.9389 32.0627 63.849 31.9426V32.0927ZM64.7479 25.7601C64.7993 25.5052 64.8694 25.2544 64.9576 25.0098C65.2278 24.2295 65.548 23.4676 65.9164 22.7288C66.2564 22.0721 66.6577 21.4491 67.1149 20.868L67.3246 20.5979L67.025 21.0181C66.516 21.7992 66.0557 22.6111 65.6467 23.4491C65.5357 23.6537 65.4357 23.8641 65.3471 24.0794C65.3471 24.3495 65.1374 24.5896 65.0475 24.8297C64.9576 25.0698 64.7479 25.61 64.7479 25.61V25.7601ZM79.7289 20.3578C79.9386 19.3674 80.2082 18.1069 80.5978 16.6063C80.9873 15.1057 81.197 14.0852 81.2569 13.9352L80.5378 18.1969C79.8487 21.6184 79.4592 23.6292 79.3693 24.1994C79.2794 24.7697 79.1895 25.3099 79.0997 25.9702C78.607 29.0654 78.4563 32.2057 78.6502 35.334C78.6502 35.9943 78.83 37.0147 79.0098 38.3353V38.0351C78.794 37.0458 78.6438 36.0432 78.5603 35.0339C78.3496 30.0569 78.7826 25.0735 79.8487 20.2078L79.7289 20.3578ZM79.0997 35.6642C79.0997 36.2944 79.0997 36.5945 79.0997 36.5945V35.5441C78.8902 31.0584 79.2934 26.565 80.2981 22.1886C80.7775 19.8476 81.0472 18.6471 81.1071 18.5571C81.0444 19.0816 80.9544 19.6026 80.8374 20.1177C79.8366 24.8375 79.2749 29.64 79.1596 34.4637L79.0997 35.6642ZM78.7401 41.9368C78.9445 42.0002 79.1298 42.1137 79.2794 42.2669V42.2669C79.1189 42.1262 78.9778 41.9647 78.86 41.7867L78.7401 41.9368ZM79.5191 32.933C79.6301 30.6589 79.8803 28.3937 80.2682 26.1502C80.6077 23.9293 80.9673 21.9285 81.3468 20.1477C81.4834 19.3778 81.6634 18.6163 81.8861 17.8668C81.8861 17.8668 81.8861 18.6471 81.5266 19.9076C81.0472 22.1886 80.6277 24.7396 80.2382 27.5908C79.8487 30.442 79.6689 32.1527 79.639 33.2031C79.639 33.5033 79.639 34.5037 79.639 36.2044V37.585C79.7289 34.9739 79.639 33.4132 79.639 32.873L79.5191 32.933ZM89.5264 27.5008V27.3207C89.5178 27.261 89.5178 27.2004 89.5264 27.1406V27.1406C89.5264 27.1406 89.5264 27.1406 89.7062 27.1406V27.3207V27.4708C89.7062 27.4708 89.6762 27.4408 89.6463 27.4408L89.5264 27.5008ZM93.5114 19.5475L93.6911 19.3074C93.744 19.2129 93.8041 19.1225 93.8709 19.0373L94.0207 18.8572V19.0373L93.8709 19.2774L93.6911 19.5475L93.5413 19.7276L93.5114 19.5475ZM92.253 20.9881C92.1673 21.2588 92.0355 21.5127 91.8635 21.7384L92.1631 21.1982C92.2737 20.8516 92.4245 20.5192 92.6125 20.2078C92.7539 19.9301 92.9247 19.6685 93.1219 19.4274V19.4274L92.9721 19.7276C92.8581 19.8994 92.7579 20.0801 92.6724 20.2678L92.253 20.9881ZM95.9982 20.4179L94.9496 21.9185L93.7211 23.5692C93.5408 23.8437 93.3405 24.1045 93.1219 24.3495C93.1219 24.4995 92.9421 24.5896 92.9121 24.5896C92.8813 24.2602 92.8813 23.9286 92.9121 23.5992C92.9121 23.149 93.1518 22.6688 93.3016 22.1586C93.4225 21.7286 93.5727 21.3075 93.7511 20.8981C94.0736 20.1565 94.4755 19.452 94.9496 18.7972C95.4289 18.1369 95.7286 17.7768 95.9383 17.7768C96.148 17.7768 96.1181 17.7768 96.208 18.1069C96.3193 18.3958 96.3899 18.6988 96.4177 19.0073V19.0973C96.4608 19.2646 96.4608 19.4402 96.4177 19.6075C96.3436 19.8672 96.2432 20.1186 96.1181 20.3578L95.9982 20.4179ZM96.5975 23.4191L96.2978 24.1994C96.3483 24.0262 96.4295 23.8636 96.5375 23.7192L96.987 22.9989C96.9115 23.1291 96.821 23.25 96.7173 23.3591L96.5975 23.4191ZM96.5975 22.6388L96.2679 23.179C96.2679 23.3291 96.1181 23.3891 96.0881 23.3891L96.5675 22.6088L97.0469 21.8284C96.9844 22.0838 96.9044 22.3345 96.8072 22.5788L96.5975 22.6388ZM98.0956 29.1515C98.0956 29.1515 98.0956 29.1515 97.9158 29.1515C97.8253 29.056 97.754 28.9439 97.7061 28.8213C97.6856 28.7325 97.6856 28.6401 97.7061 28.5512C97.7061 28.5512 97.7061 28.5512 97.9757 28.8513C98.2454 29.1515 98.1255 29.0614 98.1555 29.1515C98.1629 29.2012 98.1629 29.2518 98.1555 29.3015L98.0956 29.1515ZM99.7435 19.1273C99.6295 19.2992 99.5293 19.4798 99.4438 19.6675L99.0843 20.3878C99.0843 20.808 98.8746 21.1982 98.8746 21.1982C98.8746 21.1982 98.8746 20.9881 98.8746 20.688C98.9852 20.3414 99.136 20.009 99.324 19.6976C99.4733 19.4246 99.6436 19.1637 99.8334 18.9172V18.9172L99.7435 19.1273ZM100.253 19.1273V18.9473L100.433 18.7072L100.612 18.437V18.257V18.437C100.622 18.5268 100.622 18.6174 100.612 18.7072L100.433 18.9473L100.253 19.1273ZM108.193 27.2007C108.235 27.4389 108.235 27.6828 108.193 27.921V27.921C108.193 27.921 108.193 27.2907 108.462 26.2403C108.732 25.1898 108.732 24.6796 108.852 23.8093V22.8189L109.032 21.7084C109.032 22.3086 109.032 22.9389 108.822 23.6292C108.552 25.0398 108.373 26.2703 108.193 27.2007ZM108.792 28.4312V28.7613V28.6112C108.792 28.6112 108.792 28.4312 108.792 28.3411V28.1911V27.8909C108.806 28.1008 108.806 28.3114 108.792 28.5212V28.4312ZM109.152 22.7288C109.152 24.1694 108.822 25.7301 108.612 26.9906C108.575 27.3662 108.505 27.7378 108.402 28.101V28.101C108.402 27.921 108.402 27.4408 108.612 26.6304C108.852 25.1298 109.062 23.6292 109.181 22.4587C109.181 21.6784 109.181 21.2882 109.181 21.2882C109.205 21.7985 109.195 22.3099 109.152 22.8189V22.7288ZM114.275 18.4971C114.269 18.4171 114.269 18.3369 114.275 18.257C114.275 18.257 114.275 18.1069 114.275 18.0769C114.275 18.0469 114.275 18.0769 114.275 18.0769C114.275 18.0769 114.275 18.287 114.275 18.4971ZM120.627 24.6796V24.4995C120.614 24.4402 120.614 24.3788 120.627 24.3195V24.1994C120.627 24.1994 120.627 24.1994 120.807 24.3795C120.886 24.4622 120.938 24.5668 120.957 24.6796C120.957 24.6796 120.657 24.6796 120.627 24.6796ZM124.792 16.4562L125.121 16.036C125.015 16.2916 124.862 16.5255 124.672 16.7263V16.9064C124.672 16.9064 124.612 16.7563 124.792 16.4562ZM122.994 18.9473C123.021 18.7713 123.072 18.5997 123.144 18.437C123.266 18.09 123.427 17.7578 123.623 17.4466C123.903 16.9064 124.083 16.6363 124.162 16.6363V16.9364L123.354 18.1969C123.26 18.4588 123.139 18.7103 122.994 18.9473V18.9473ZM125.99 18.9473C125.362 19.8753 124.682 20.7671 123.953 21.6184C123.953 21.6184 123.953 21.6184 123.953 21.6184C124.01 20.7883 124.181 19.9702 124.462 19.1874C124.738 18.2367 125.141 17.3281 125.661 16.4862C125.915 16.0687 126.195 15.6678 126.5 15.2857C126.799 14.9556 126.979 14.8055 127.099 14.7755C127.219 14.7455 127.279 14.7755 127.398 15.1357C127.525 15.5031 127.596 15.8876 127.608 16.2761C127.652 16.4333 127.652 16.5992 127.608 16.7563C127.143 17.5715 126.622 18.3537 126.05 19.0973L125.99 18.9473ZM127.249 21.0781L127.488 20.5979C127.622 20.3416 127.783 20.1002 127.968 19.8776C127.791 20.338 127.57 20.7802 127.309 21.1982L127.249 21.0781ZM127.249 20.2078V20.4179L128.267 18.7972C128.083 19.3575 127.81 19.8845 127.458 20.3578L127.249 20.2078ZM127.638 39.7458L128.327 38.0652C128.597 37.4349 128.717 37.1048 128.747 37.0747C128.683 37.3593 128.603 37.6399 128.507 37.9151L127.908 39.4757C127.733 39.9564 127.533 40.4273 127.309 40.8863C127.158 41.2849 126.967 41.667 126.739 42.0268C127.064 41.2939 127.434 40.5823 127.848 39.8959L127.638 39.7458ZM125.211 38.6954C124.448 41.3782 123.188 43.8931 121.496 46.1085C121.106 46.6187 120.867 46.8888 120.777 46.8888C120.687 46.8888 120.777 46.8888 120.777 46.4686C121.037 42.9252 122.283 39.5255 124.372 36.6546C125.029 35.5148 125.75 34.4126 126.529 33.3532C126.679 33.1431 126.739 33.0231 126.769 33.0231C126.769 33.1831 126.529 34.1835 126.05 36.0243L125.211 38.6954ZM126.5 43.6775C126.679 43.3473 127.099 42.507 127.698 41.1864C127.984 40.5299 128.304 39.8888 128.657 39.2657L128.387 39.9859C127.926 41.1524 127.386 42.2855 126.769 43.3773C126.615 43.6823 126.434 43.9735 126.23 44.2477L126.5 43.6775ZM128.926 40.166C128.387 41.3365 128.088 42.0268 127.938 42.2669V42.507C127.646 43.1708 127.274 43.7958 126.829 44.3678L127.069 43.9476C127.578 43.0772 128.267 41.6666 129.136 39.7759C129.292 39.37 129.482 38.9784 129.705 38.6054C129.551 39.1868 129.361 39.7582 129.136 40.3161L128.926 40.166ZM131.234 17.5967C130.934 19.0673 130.514 21.7984 129.945 25.7301C129.945 26.0302 129.945 26.1502 129.945 26.1502C129.934 26.0505 129.934 25.9498 129.945 25.8501C130.335 22.5187 130.754 19.8476 131.144 18.1369C131.206 17.7155 131.317 17.3026 131.473 16.9064C131.473 16.9064 131.503 17.2966 131.443 17.7468L131.234 17.5967Z" fill="white"/>
<path d="M58.5072 11.0779C60.0952 12.0684 61.7431 12.9087 63.421 13.749C63.0914 14.3193 63.9903 14.7695 64.3798 14.3193L65.3685 14.8295C65.8179 15.0396 66.2674 14.2893 65.8179 14.0492L65.009 13.539C66.0944 12.1294 67.0949 10.6561 68.0052 9.12714C68.644 8.37036 69.118 7.48821 69.3966 6.53723C69.6752 5.58625 69.7524 4.58744 69.6231 3.60485C69.39 2.7497 68.8451 2.01323 68.0963 1.54091C67.3474 1.06859 66.4489 0.894775 65.5782 1.0538C64.6122 1.34603 63.7495 1.90826 63.0914 2.67447C62.541 3.35125 62.0499 4.07422 61.6233 4.83536C61.067 4.23557 60.3702 3.78423 59.5959 3.5222C58.8216 3.26018 57.9943 3.19574 57.1889 3.33474C56.426 3.55762 55.7828 4.07491 55.4007 4.77284C55.0186 5.47076 54.929 6.29214 55.1515 7.05628C55.4195 7.91463 55.8539 8.71164 56.4297 9.40171C57.0055 10.0918 57.7115 10.6614 58.5072 11.0779V11.0779Z" fill="white"/>
<path d="M68.7242 13.2088C68.8426 13.2358 68.9654 13.2358 69.0838 13.2088C69.1745 13.2247 69.2676 13.2194 69.3559 13.1934C69.4443 13.1673 69.5254 13.1213 69.5931 13.0588C70.3122 11.8883 71.0313 10.6878 71.7204 9.48728C71.7761 9.42085 71.8168 9.34311 71.8396 9.25942C71.8625 9.17573 71.8669 9.08808 71.8527 9.00251C71.8385 8.91693 71.8059 8.83546 71.7572 8.76371C71.7085 8.69196 71.6448 8.63164 71.5706 8.5869C71.4031 8.48581 71.2028 8.45433 71.0125 8.4992C70.8221 8.54406 70.6568 8.66171 70.5519 8.827C69.8628 9.99749 69.2036 11.168 68.5445 12.3385C68.4535 12.4779 68.4214 12.6477 68.4551 12.8108C68.4888 12.9739 68.5855 13.117 68.7242 13.2088V13.2088Z" fill="white"/>
<path d="M54.1328 10.6576C54.2759 10.6534 54.4133 10.6005 54.5223 10.5075C54.6129 10.4036 54.6628 10.2703 54.6628 10.1324C54.6628 9.99441 54.6129 9.86113 54.5223 9.75722C53.9023 9.04787 53.506 8.17046 53.3833 7.23572C53.2607 6.30097 53.4172 5.35078 53.8331 4.50505C53.8762 4.403 53.8916 4.2914 53.8778 4.18148C53.864 4.07157 53.8216 3.96723 53.7548 3.87898C53.6879 3.79073 53.5991 3.72168 53.4971 3.67879C53.3951 3.6359 53.2837 3.62069 53.174 3.63469C53.0652 3.64522 52.961 3.68397 52.8716 3.74713C52.7823 3.81028 52.711 3.89566 52.6646 3.99484C52.1761 5.04942 52.0038 6.22344 52.1686 7.37425C52.3335 8.52506 52.8285 9.60314 53.5934 10.4775C53.6614 10.5499 53.7463 10.6043 53.8404 10.6357C53.9346 10.6671 54.035 10.6747 54.1328 10.6576Z" fill="white"/>
<path d="M72.1699 7.65651C72.2725 7.64535 72.3718 7.61389 72.4621 7.56396C72.5525 7.51402 72.632 7.44661 72.6961 7.36564C72.7602 7.28467 72.8076 7.19175 72.8356 7.09227C72.8636 6.99279 72.8715 6.88874 72.859 6.78615C72.8364 6.59233 72.7392 6.41496 72.5882 6.29169C72.4372 6.16842 72.2441 6.10894 72.05 6.12588C71.7504 6.12588 71.4208 6.426 71.4508 6.72613C71.3839 6.74697 71.3277 6.79309 71.2941 6.85471C71.2606 6.91634 71.2523 6.98862 71.271 7.05626C71.3143 7.25331 71.4321 7.42589 71.5997 7.53781C71.7673 7.64972 71.9717 7.69227 72.1699 7.65651V7.65651ZM71.5706 6.78615C71.5706 6.45602 72.3197 6.426 72.2598 6.78615C72.26 6.82822 72.2514 6.86987 72.2345 6.90838C72.2176 6.9469 72.1928 6.98143 72.1617 7.00973C72.1306 7.03803 72.094 7.05947 72.0541 7.07266C72.0142 7.08584 71.972 7.09048 71.9302 7.08628C71.7604 7.03682 71.6125 6.93098 71.5107 6.78615C71.5107 6.78615 71.5706 6.81616 71.5706 6.78615Z" fill="white"/>
<path d="M54.4923 11.7083C54.4923 12.0985 54.8818 12.5186 55.3312 12.4586C55.5217 12.4221 55.6918 12.3158 55.8081 12.1604C55.9245 12.005 55.9788 11.8117 55.9605 11.6183C55.9332 11.4267 55.8408 11.2505 55.6989 11.1192C55.557 10.988 55.3742 10.9099 55.1814 10.898C55.0782 10.8905 54.9747 10.9074 54.8793 10.9475C54.7838 10.9875 54.6991 11.0494 54.632 11.1283C54.5649 11.2072 54.5173 11.3009 54.4931 11.4016C54.4688 11.5024 54.4685 11.6074 54.4923 11.7083V11.7083ZM55.6009 11.7083C55.5986 11.7889 55.5714 11.8668 55.5232 11.9313C55.4749 11.9958 55.4078 12.0437 55.3312 12.0684C55.2323 12.0559 55.1403 12.0108 55.0698 11.9401C54.9993 11.8695 54.9543 11.7774 54.9417 11.6783V11.6783C54.9407 11.6371 54.9491 11.5963 54.9662 11.5589C54.9833 11.5215 55.0088 11.4885 55.0406 11.4625C55.0724 11.4364 55.1097 11.418 55.1497 11.4086C55.1897 11.3991 55.2313 11.399 55.2713 11.4082C55.3614 11.4279 55.4426 11.4768 55.5021 11.5473C55.5617 11.6178 55.5964 11.7061 55.6009 11.7983V11.7083Z" fill="white"/>
</svg>
