<svg width="192" height="67" viewBox="0 0 192 67" fill="none" xmlns="http://www.w3.org/2000/svg">
<path d="M36 18.5157C36.5608 18.4986 37.1093 18.3475 37.6 18.0749C37.6985 17.9834 37.7798 17.8748 37.84 17.7544C37.8649 17.622 37.8649 17.4861 37.84 17.3537C37.84 17.3537 37.84 17.3537 37.84 17.3537C37.84 17.3537 37.84 17.3537 37.56 17.3537H37.32C37.4244 17.3849 37.5356 17.3849 37.64 17.3537C37.64 17.3537 37.64 17.3537 37.64 17.1534C37.6664 17.0899 37.68 17.0218 37.68 16.9531C37.68 16.8843 37.6664 16.8162 37.64 16.7527C36.3729 16.2397 34.9958 16.0604 33.64 16.2318C30.76 16.2318 26.84 16.4322 21.88 16.8329C19.16 17.0733 17.88 17.1534 17.48 17.1534C17.08 17.1534 16.92 17.1534 16.92 17.1534C16.92 16.7127 17.16 15.6308 17.36 13.9881C17.5112 13.033 17.6047 12.0696 17.64 11.1032C17.6673 10.9846 17.6673 10.8613 17.64 10.7426C17.64 10.3019 17.36 10.1016 17.24 10.1016C17.24 10.1016 17.24 10.1016 17.04 10.1016C16.84 10.1016 17.04 10.1016 17.04 10.1016V8.61907C17.0607 8.52672 17.0607 8.43094 17.04 8.33859C17.04 8.33859 17.04 8.33859 16.76 8.33859C16.48 8.33859 16.76 8.3386 16.52 8.579L16 8.61907V8.09819C16.026 8.06351 16.04 8.02134 16.04 7.97799C16.04 7.93464 16.026 7.89247 16 7.85779C16 7.85779 16 7.85779 15.76 7.85779C15.52 7.85779 15.48 7.85779 15.36 8.37866C15.24 8.89954 15.16 8.77934 15.12 8.77934V7.97799C15.0489 7.98187 14.9805 8.00679 14.9236 8.04958C14.8666 8.09237 14.8236 8.15112 14.8 8.21839C14.8 8.21839 14.8 8.4588 14.8 8.4588C14.8 8.4588 14.8 8.17833 14.52 8.17833C14.24 8.17833 14.52 8.17833 14.28 8.17833C14.1547 8.19012 14.0343 8.23291 13.9295 8.30284C13.8248 8.37278 13.7391 8.46767 13.68 8.579C13.68 8.579 13.68 8.8194 13.68 8.8194C13.68 8.8194 12 8.4588 12 8.61907C12 8.77934 11.6 10.2618 11.08 12.6258C10.76 14.2285 10.44 15.711 10.16 17.1534C9.31492 17.1934 8.47323 17.2871 7.63999 17.4339C5.88145 17.7997 4.15571 18.3089 2.48 18.9564C0.799999 19.277 0 19.878 0 20.479C0 21.08 0 20.479 0 20.479H0.2C0.221778 20.5982 0.221778 20.7204 0.2 20.8396C0.2 21.08 -0.04 21.2803 0.2 21.3204C0.44 21.3605 0.2 21.3204 0.2 21.3204H0.6C0.6 21.3204 0.36 21.3204 0.36 21.5608C0.36 21.5608 0.36 21.5608 0.6 21.5608H1.68C3.32 21.5608 5.2 21.2403 7.28 20.8797L9.31999 20.5992H9.79999C9.79999 22.883 9.51999 26.0884 9.27999 30.1753C8.91999 36.9867 8.59999 42.9968 8.31999 49.2874C8.061 53.9048 8.061 58.5332 8.31999 63.1506C8.32104 63.907 8.47054 64.6558 8.75999 65.3543C8.97675 65.9297 9.38695 66.4115 9.91999 66.7166C10.0903 66.7626 10.2697 66.7626 10.44 66.7166H10.84C11.2327 66.6686 11.6083 66.5272 11.9354 66.3041C12.2624 66.0811 12.5315 65.7829 12.72 65.4345C12.72 65.1941 13.04 61.1473 13.52 53.4143C14.24 41.7948 14.68 35.1837 14.84 33.621C15.1788 29.2791 15.753 24.9588 16.56 20.6793C21.0421 19.7542 25.589 19.1782 30.16 18.9564L36 18.5157ZM4.4 21.8813H4H4.56H4.4ZM4 21.4406H3.2C3.51747 21.3836 3.84253 21.3836 4.16 21.4406H4.88H5.2C4.80142 21.4885 4.39857 21.4885 4 21.4406V21.4406ZM5.52 21.681H5.96H6.36H5.52ZM6.48 20.4389L2.8 21.2002L1.72 21.4005C3.20076 20.9681 4.7116 20.6467 6.24 20.4389L9.11999 19.9581C8.29182 20.1753 7.44989 20.3359 6.6 20.4389H6.48ZM11.6 37.5076C12 33.9416 12 30.9766 12.52 28.252C12.92 24.8062 13.24 22.8029 13.36 22.2019L12.76 28.212C12.76 30.0951 12.36 32.2187 12.12 35.0234C12.12 35.985 12.12 36.8665 11.84 37.6278C11.48 41.6345 11.28 43.5978 11.28 43.5978C11.24 42.4759 11.36 40.4325 11.6 37.5076ZM12 49.0069C11.9739 49.9057 11.8937 50.8022 11.76 51.6914V51.6914C11.76 51.6914 11.76 49.9284 12 46.9234C12.24 42.1954 12.64 37.5877 13.2 33.1803C13.1659 32.7402 13.1659 32.2982 13.2 31.8581C13.2 31.8581 13.2 33.8214 12.76 37.4675C12.32 41.1136 12.2 44.7598 12 49.0069ZM13.96 36.2655C13.36 41.5944 12.96 46.0018 12.72 49.5278L12.48 52.2123C12.48 51.9318 12.48 51.0904 12.48 49.648C12.76 44.3591 13.36 38.1887 14.24 31.1769C14.2884 30.5566 14.382 29.9406 14.52 29.3338C14.44 29.8147 14.24 32.0985 13.84 36.2655H13.96Z" fill="#006D77"/>
<path d="M192 20.4789C192 20.4789 192 20.4789 192 20.1985C192.002 20.1257 191.98 20.0543 191.936 19.996C191.892 19.9377 191.83 19.8961 191.76 19.8779C191.76 19.8779 191.76 19.8779 191.76 19.8779C191.182 19.9892 190.619 20.1639 190.08 20.3988C186.377 22.3892 183.014 24.9591 180.12 28.0116C179.72 28.4426 179.278 28.8319 178.8 29.1735V29.1735C178.8 28.8931 178.8 26.489 179.36 22.0416C179.399 21.6284 179.399 21.2126 179.36 20.7995C179.308 19.9043 179.033 19.0365 178.56 18.2752C178.168 17.657 177.615 17.1581 176.96 16.8328C176.48 16.5787 175.942 16.4544 175.4 16.4722C175.123 16.4834 174.851 16.5535 174.603 16.6779C174.354 16.8022 174.135 16.9779 173.96 17.1934C173.612 17.6323 173.304 18.1016 173.04 18.5958C172.842 19.0135 172.555 19.3828 172.2 19.6776C172.2 19.6776 172.2 19.6776 172.2 19.0766C172.191 18.7648 172.102 18.4605 171.94 18.1937C171.779 17.9268 171.552 17.7064 171.28 17.554C170.585 17.1727 169.783 17.0318 169 17.1533C167.909 17.2797 166.857 17.6295 165.907 18.1809C164.957 18.7324 164.131 19.4737 163.48 20.3587C163.008 20.9597 162.592 21.6035 162.24 22.282L161.8 22.5224C160.543 23.241 159.199 23.7932 157.8 24.1651H156.8H156.56V23.8045L155.28 22.9631L154.72 21.6409C154.549 21.3081 154.302 21.0199 154 20.7995C153.759 20.5694 153.473 20.392 153.16 20.2786C152.696 20.2009 152.223 20.2009 151.76 20.2786C151.538 20.2869 151.326 20.3718 151.16 20.519C150.799 20.9195 150.49 21.3637 150.24 21.8412L149.04 23.7644C148.56 24.4857 148.12 25.2069 147.72 25.9281C147.28 26.7294 147.04 27.09 147.04 27.09C147.124 26.1198 147.271 25.1562 147.48 24.2052C147.797 22.662 147.971 21.0926 148 19.5173C148.038 19.3322 148.038 19.1414 148 18.9564C148 18.9564 148 18.716 147.76 18.716C147.76 18.716 147.76 18.716 147.52 18.716C147.367 19.0004 147.233 19.2949 147.12 19.5974V18.7961V18.5156C147.12 18.5156 147.12 18.5156 146.92 18.5156H146.64C146.4 18.5156 146.12 19.2769 145.76 20.7193C145.4 22.1618 145.08 23.7244 144.76 25.6075L144.48 26.0082C142.52 29.0133 140.76 31.5776 139.24 33.7011C137.72 35.8247 136.8 36.9065 136.52 36.9065C136.52 36.9065 136.52 36.9065 136.52 36.5459C136.496 36.2793 136.496 36.0111 136.52 35.7446C136.572 32.5662 137.002 29.4054 137.8 26.3288C137.398 25.1751 136.916 24.0505 136.36 22.9631C136.413 22.4302 136.413 21.8933 136.36 21.3604C136.316 20.7726 136.043 20.2257 135.6 19.8379C135.15 19.4698 134.58 19.284 134 19.317C133.565 19.37 133.151 19.5357 132.8 19.7978C132.343 20.0994 131.971 20.5133 131.72 20.9998C131.72 21.3203 131.36 21.6409 131.16 21.9614L130.56 22.8429C130.56 23.0833 130.28 23.2035 130.2 23.2436C130.12 23.2836 130.2 23.2436 130.2 23.2436C130.176 23.1111 130.176 22.9754 130.2 22.8429C130.18 22.5283 130.086 22.2228 129.927 21.9513C129.767 21.6798 129.545 21.4499 129.28 21.2803C128.572 20.9375 127.782 20.7987 127 20.8796C125.906 21.0108 124.852 21.3668 123.902 21.9253C122.952 22.4837 122.127 23.2326 121.48 24.125C120.75 25.0004 120.119 25.9545 119.6 26.9698C119.06 28.0687 118.644 29.2244 118.36 30.4156V30.4156C118 31.217 117.6 32.2587 117.04 33.5409C116.48 34.823 115.36 37.8281 114.16 41.2338L112.68 45.2405C112.11 47.0036 111.401 48.7185 110.56 50.3691C110.115 51.1544 109.593 51.8927 109 52.5728C108.76 52.8934 108.6 53.0536 108.52 53.0536C108.28 53.0536 107.96 52.5728 107.64 51.5311C107.416 50.5843 107.282 49.6184 107.24 48.6462C107.043 46.2864 107.043 43.9142 107.24 41.5543C107.24 40.2321 107.72 37.5476 108.28 33.5409C108.52 31.8313 108.72 30.4957 108.88 29.5341C109.2 27.651 110 23.8446 111.24 18.0749C111.72 15.751 112.16 13.8278 112.52 12.3052C113.127 10.1628 113.489 7.95837 113.6 5.73417C113.6 5.25336 113.48 5.01296 113.24 5.01296C113.24 5.01296 113.24 5.01296 113.24 4.81262C113.24 4.61229 113.24 4.37188 112.88 4.37188C112.722 4.42896 112.573 4.51004 112.44 4.61229C112.44 4.61229 112.44 4.61229 112.44 4.29175C112.442 4.19801 112.411 4.10658 112.352 4.03337C112.294 3.96016 112.212 3.90981 112.12 3.89107C111.92 3.89107 111.72 4.17155 111.48 4.77256C111.24 5.37356 111.48 5.09309 111.48 5.09309C111.48 5.09309 111.48 4.65235 111.48 4.49208C111.496 4.31885 111.496 4.14445 111.48 3.97121C111.491 3.89149 111.491 3.81053 111.48 3.73081C111.48 3.73081 111.48 3.53047 111.12 3.53047H110.88C110.88 3.53047 110.88 3.53047 110.6 3.53047C110.32 3.53047 110.36 3.53047 110.36 3.53047C110.277 3.52896 110.196 3.5507 110.126 3.5932C110.055 3.63571 109.997 3.69728 109.96 3.77087C109.866 3.86731 109.759 3.94843 109.64 4.01128C109.094 4.56441 108.684 5.2363 108.44 5.97457C107.856 7.27931 107.348 8.61717 106.92 9.9813C105.448 14.8822 104.299 19.8746 103.48 24.9264C103.48 25.888 103.2 26.7695 103.04 27.7311C102.6 28.4122 101.84 29.4139 100.8 30.7762C99.7599 32.1385 98.6399 33.621 97.3199 35.1436C96.0918 36.5805 94.7545 37.9201 93.3199 39.1503C92.4119 40.0833 91.2385 40.713 89.9599 40.9533C89.7767 40.9776 89.5904 40.9654 89.4119 40.9173C89.2334 40.8691 89.0662 40.786 88.9199 40.6728C88.6596 40.4434 88.4529 40.1592 88.3147 39.8407C88.1764 39.5221 88.1099 39.177 88.1199 38.8297C88.152 36.3797 88.6971 33.9636 89.7199 31.7378C90.2602 31.9759 90.8521 32.0724 91.4399 32.0183C91.6294 31.9595 91.8162 31.8927 91.9999 31.818C92.3191 31.7327 92.6278 31.6118 92.9199 31.4574C93.7295 30.973 94.4472 30.349 95.0399 29.6143C95.6477 28.8089 96.133 27.9177 96.4799 26.9698C96.8699 26.1596 97.0488 25.2636 96.9999 24.3655C96.9707 23.9122 96.8335 23.4726 96.5999 23.0833C96.3806 22.655 96.0486 22.2948 95.6399 22.0416C94.8753 21.6511 94.012 21.4977 93.1599 21.6008C92.4916 21.6454 91.8323 21.7802 91.1999 22.0015C90.4965 22.2446 89.8353 22.5961 89.2399 23.0432C87.8604 24.0473 86.6915 25.3134 85.7999 26.7695C85.2716 27.5471 84.8035 28.3642 84.3999 29.2136H83.9999C82.5296 29.8531 80.9597 30.2327 79.3599 30.3355H77.9999H77.5199L76.8799 29.9749C76.7095 29.804 76.6096 29.5751 76.5999 29.3338C76.6074 28.7806 76.6745 28.2298 76.7999 27.691C76.7999 26.9698 77.1599 25.9281 77.4799 24.5257C77.6346 24.0742 77.7156 23.6007 77.7199 23.1234V22.9631H77.3599H77.0799H75.9999C75.8943 22.9426 75.7856 22.9426 75.6799 22.9631C75.4697 22.9121 75.2502 22.9121 75.0399 22.9631C74.8362 23.0368 74.6468 23.1453 74.48 23.2836C74.1292 23.663 73.8208 24.0795 73.5599 24.5257C73.29 25.0405 73.0626 25.5765 72.8799 26.1284C72.6516 26.8669 72.5568 27.6403 72.5999 28.4122C72.6684 29.2049 72.9145 29.9719 73.3199 30.656V30.9365C73.3373 31.0157 73.3373 31.0977 73.3199 31.1769C73.3382 31.35 73.3382 31.5246 73.3199 31.6978C73.2194 31.9856 73.1392 32.2801 73.0799 32.5792C72.6799 33.9816 72.1999 35.384 71.6799 36.586C71.2596 37.7064 70.7789 38.8032 70.2399 39.8715C70.0234 40.2472 69.7829 40.6086 69.5199 40.9533L68.72 41.955C68.44 42.2755 68.2799 42.3957 68.2399 42.3957C67.9519 42.1729 67.7418 41.8643 67.64 41.5142C67.4875 40.9784 67.3936 40.4276 67.36 39.8715C67.2435 38.3512 67.2435 36.8241 67.36 35.3038C67.36 33.5409 67.6799 31.8981 67.8399 30.2954C68.0266 28.9675 68.1335 27.6295 68.16 26.2887C68.1435 26.1959 68.1435 26.101 68.16 26.0082V26.0082C68.16 26.0082 68.1599 25.7678 67.9199 25.7678V25.4873C67.9199 25.4873 67.92 25.4873 67.68 25.4873C67.44 25.4873 67.68 25.4873 67.68 25.4873C67.68 25.4873 67.68 25.1668 67.48 25.2069H67.12C66.9593 25.2927 66.822 25.4165 66.72 25.5675C65.6639 27.1167 65.0171 28.9087 64.8399 30.7762C64.8207 31.0965 64.8207 31.4176 64.8399 31.7378V31.7378C62.88 34.7429 61.16 37.3072 59.6 39.4307C58.04 41.5543 57.16 42.6361 56.92 42.6361C56.92 42.6361 56.92 42.6361 56.92 42.2355C56.92 41.8348 56.92 41.7547 56.92 41.4742C56.9909 38.2973 57.4203 35.1386 58.2 32.0584C58.52 30.7762 58.72 29.8146 58.84 29.2136C58.8934 28.6807 58.8934 28.1438 58.84 27.6109C58.8197 27.3212 58.7425 27.0384 58.6128 26.7788C58.483 26.5191 58.3033 26.2877 58.084 26.0978C57.8647 25.9079 57.6101 25.7633 57.3348 25.6723C57.0595 25.5813 56.769 25.5456 56.48 25.5675C56.045 25.6205 55.6314 25.7862 55.28 26.0483C54.8233 26.3499 54.4515 26.7638 54.2 27.2503L53.64 28.2119C53.4686 28.5243 53.2677 28.8195 53.04 29.0934C52.9518 29.2525 52.8287 29.3895 52.68 29.4941C52.68 29.4941 52.68 29.4941 52.68 29.4941C52.68 29.4941 52.68 29.2537 52.68 29.0934C52.7239 28.7787 52.6893 28.4581 52.5793 28.1601C52.4693 27.8621 52.2873 27.596 52.0496 27.3857C51.8118 27.1754 51.5258 27.0273 51.217 26.9547C50.9082 26.8821 50.5863 26.8873 50.28 26.9698C49.576 26.6141 48.7828 26.4747 48 26.5692C46.9096 26.6955 45.8568 27.0453 44.9071 27.5968C43.9575 28.1482 43.1313 28.8895 42.48 29.7745C42.2 30.1351 41.96 30.5358 41.68 30.9365L40.64 31.4974C39.3204 32.2325 37.9076 32.7851 36.44 33.1402H35.48H35.2V32.7796L34.88 32.0984L34.16 30.9766C33.9887 30.6437 33.7421 30.3556 33.44 30.1351C33.1991 29.905 32.913 29.7277 32.6 29.6143C32.1353 29.5525 31.6646 29.5525 31.2 29.6143C30.9716 29.6562 30.762 29.7683 30.6 29.9348C30.2556 30.2467 29.947 30.5961 29.68 30.9766L28.48 32.8998C28.0121 33.568 27.5846 34.2638 27.2 34.9833L26.48 36.1452C26.48 36.1452 26.48 35.0634 26.92 33.2604C27.251 31.76 27.4252 30.2292 27.44 28.6927C27.4398 28.4386 27.3706 28.1893 27.24 27.9715C27.24 27.9715 27.24 27.9715 27.24 27.9715V27.7311C27.2674 27.6533 27.2674 27.5685 27.24 27.4907C27.24 27.4907 27.24 27.4907 27.24 27.4907C27.087 27.7752 26.9533 28.0697 26.84 28.3722V28.3722V27.3705V27.09C26.7484 27.1157 26.6516 27.1157 26.56 27.09V27.09C26.56 27.09 26.04 27.8513 25.68 29.2937C25.32 30.7362 22.6 32.7395 22.24 34.9833C21.88 37.227 21.56 38.99 21.36 41.1536C21.2306 42.8206 21.2306 44.4951 21.36 46.1621C21.36 47.0035 21.64 47.4442 21.96 47.4041C22.0707 47.5375 22.2281 47.6234 22.4 47.6445V47.6445H22.68C22.68 47.6445 22.96 47.6445 23.24 47.6445H23.64H24C24 47.6445 24.28 47.1237 24.52 46.1621C25.5311 41.5829 27.3899 37.234 30 33.3405C30.24 33.02 30.4 32.8196 30.52 32.8196C30.64 32.8196 30.52 32.8196 30.84 33.2604C31.0149 33.6511 31.2438 34.0153 31.52 34.3422C31.789 34.6441 32.1153 34.8893 32.48 35.0634C33.0935 35.1386 33.7153 35.1115 34.32 34.9833C34.8118 35.0372 35.3081 35.0372 35.8 34.9833C36.5945 34.8989 37.3745 34.7103 38.12 34.4223C38.8715 34.115 39.6059 33.7672 40.32 33.3806C39.9047 34.3117 39.5701 35.2769 39.32 36.2654C39.2205 37.1441 39.2205 38.0312 39.32 38.9099C39.36 39.7477 39.5782 40.5674 39.96 41.3139C40.1952 41.7438 40.5403 42.1034 40.96 42.3557C41.4999 42.6414 42.0798 42.844 42.68 42.9567C43.0788 42.9991 43.4811 42.9991 43.88 42.9567C44.684 42.8886 45.4628 42.6423 46.16 42.2355C46.7042 41.8369 47.1775 41.3492 47.56 40.793C48.08 40.0718 48.72 39.0301 49.56 37.5877C49.8082 37.0626 50.1316 36.5767 50.52 36.1452V36.1452C50.4048 37.2508 50.4048 38.3653 50.52 39.4708C50.52 40.1119 50.52 40.7129 50.8 41.2738C50.9515 42.2512 51.4297 43.1481 52.1563 43.8177C52.883 44.4873 53.815 44.8901 54.8 44.96H55.52C56.5528 44.9137 57.5276 44.4685 58.24 43.7179L59.28 42.1553C59.84 41.354 60.4 40.4324 61.04 39.4307L62.68 36.7062L63.64 35.0234C63.64 35.7045 63.64 36.4257 63.64 37.1068C63.7239 38.7165 64.1178 40.2948 64.8 41.7547C65.0645 42.2436 65.4017 42.6894 65.8 43.0769C66.1201 43.3914 66.5013 43.6369 66.92 43.7981C67.0637 43.8393 67.2162 43.8393 67.36 43.7981H68H68.9199L69.68 43.4375C70.1556 43.1395 70.5866 42.7752 70.9599 42.3557C71.3903 41.9471 71.7547 41.474 72.0399 40.9533C72.4293 40.2123 72.7766 39.4498 73.0799 38.6695C73.4799 37.7079 73.8 36.7462 74.16 35.7045C74.1386 35.6394 74.1386 35.5692 74.16 35.5042C74.16 34.823 74.5599 34.3021 74.6799 33.8213C74.7999 33.3405 74.9599 33.0601 75.0399 32.7796C75.1199 32.4991 75.0399 32.2988 75.2399 32.1786V31.8981H75.7599H76.3999C77.3304 32.1127 78.2886 32.1803 79.2399 32.0984C80.2163 32.0085 81.1811 31.8206 82.1199 31.5375L82.8799 31.257L82.6799 31.6577C82.0721 33.3788 81.8137 35.2042 81.9199 37.0267C81.9881 37.9208 82.2328 38.7924 82.6399 39.591C83.0393 40.3713 83.649 41.0237 84.3999 41.4742C85.4421 42.2956 86.6854 42.8215 87.9999 42.9967H88.9599C89.395 42.9706 89.825 42.8899 90.2399 42.7563L91.6399 42.3557C93.3427 41.4931 94.8321 40.2612 95.9999 38.7496C97.2059 37.316 98.315 35.8035 99.3199 34.222L99.5199 33.9415C100.267 32.8196 100.947 31.7779 101.56 30.8163C100.879 35.4576 100.664 40.1556 100.92 44.8398C101.4 50.6897 103.04 54.2156 105.92 55.4577C106.327 55.5578 106.753 55.5578 107.16 55.4577C108.185 55.3762 109.161 54.985 109.96 54.3358C110.516 53.8875 110.99 53.345 111.36 52.7331C112.135 51.3075 112.791 49.8199 113.32 48.2856C113.8 47.1237 114.68 44.5994 116.04 40.7129C116.92 38.2688 117.68 36.1452 118.4 34.222C118.484 34.5736 118.619 34.911 118.8 35.2237C119.025 35.6611 119.372 36.0232 119.8 36.2654C120.337 36.5578 120.918 36.7608 121.52 36.8664C121.918 36.9269 122.322 36.9269 122.72 36.8664C123.523 36.792 124.3 36.5461 125 36.1452C125.537 35.8348 126.023 35.4428 126.44 34.9833C126.92 34.3021 127.6 33.2203 128.44 31.818C128.698 31.2952 129.006 30.7987 129.36 30.3355V30.3355C129.245 31.4544 129.245 32.5822 129.36 33.7011C129.411 34.2947 129.505 34.8839 129.64 35.4641C129.784 36.4444 130.261 37.3453 130.989 38.0163C131.717 38.6872 132.653 39.0875 133.64 39.1503H134.36C135.384 39.0832 136.344 38.6242 137.04 37.8681C137.434 37.3719 137.795 36.8498 138.12 36.3055C138.68 35.5042 139.24 34.5826 139.88 33.5809C140.52 32.5792 141.04 31.6978 141.48 30.8964L142.24 29.5742C142.24 30.2553 142.24 30.9365 141.96 31.6176C141.811 33.2838 141.811 34.9599 141.96 36.626C141.96 37.4675 142.24 37.9082 142.56 37.8681C142.671 38.0015 142.828 38.0874 143 38.1085H143.2H143.48C143.48 38.1085 143.76 38.1085 144.04 38.1085H144.44C144.702 37.6503 144.878 37.1478 144.96 36.626C145.954 32.0412 147.814 27.6892 150.44 23.8045C150.68 23.484 150.84 23.2836 150.96 23.2836C151.08 23.2836 150.96 23.2836 151.28 23.7244C151.455 24.1151 151.684 24.4793 151.96 24.8062C152.229 25.1081 152.555 25.3533 152.92 25.5274C153.264 25.7116 153.626 25.8593 154 25.9681C154.492 26.0221 154.988 26.0221 155.48 25.9681C156.274 25.8838 157.054 25.6952 157.8 25.4072L159.56 24.6059C159.26 25.3193 159.019 26.0564 158.84 26.8096C158.742 27.6749 158.742 28.5486 158.84 29.4139C158.885 30.2638 159.103 31.0955 159.48 31.858C159.871 32.4634 160.446 32.9269 161.12 33.1803C161.966 33.4784 162.867 33.5878 163.76 33.5008C164.64 33.4241 165.47 33.0578 166.12 32.459C167.04 31.5052 167.821 30.4261 168.44 29.2537C169.32 27.7578 169.92 26.7962 170.24 26.3688C170.24 26.0883 170.76 25.7277 171.12 25.3271C171.383 24.9672 171.692 24.6439 172.04 24.3655C172.04 24.3655 172.04 24.3655 172.04 24.3655C172.059 24.5921 172.059 24.82 172.04 25.0466C172.04 25.4072 171.8 26.2085 171.6 27.4506C171.4 28.6927 171.16 30.0951 170.88 31.4574C170.6 32.8196 170.36 34.5425 170.16 35.4641C170.053 36.1416 169.823 36.7937 169.48 37.3873C169.09 37.9733 168.648 38.5231 168.16 39.0301C164.344 43.0663 161.27 47.7459 159.08 52.8533C157.869 55.5759 157.255 58.5272 157.28 61.5078C157.296 61.971 157.376 62.4296 157.52 62.8701C157.63 63.1853 157.807 63.4725 158.04 63.7115C158.349 63.9611 158.684 64.1761 159.04 64.3526C159.443 64.5164 159.857 64.6503 160.28 64.7533C160.692 64.7935 161.108 64.7935 161.52 64.7533C162.073 64.7056 162.622 64.6118 163.16 64.4728C166.3 62.7826 168.77 60.0684 170.16 56.7799C171.742 53.7807 173.079 50.6587 174.16 47.4442C175.668 43.3961 176.832 39.2276 177.64 34.9833C177.683 34.3623 177.776 33.7458 177.92 33.1402C177.993 32.8148 178.144 32.5122 178.36 32.2587L179.52 30.9766L180 30.2954C183.205 26.4123 187.131 23.1876 191.56 20.7995C191.84 20.7995 192 20.7995 192 20.7995V20.4789ZM24 44.5193C23.9696 44.8503 23.8887 45.1746 23.76 45.4809C23.7716 44.6476 23.8519 43.8168 24 42.9967C24 41.9951 24.36 40.9132 24.52 39.7513V38.4291C24.52 37.4675 24.52 36.9466 24.52 36.9466C24.52 37.7479 24.52 38.5893 24.24 39.5109C24.36 41.4341 24 42.9967 24 44.4392V44.5193ZM24.76 46.1621V46.6028V46.2021C24.76 46.2021 24.76 45.9617 24.76 45.8415V45.6412V45.2405C24.7525 45.5225 24.7258 45.8036 24.68 46.0819L24.76 46.1621ZM25.28 38.5493C25.04 40.4324 24.8 42.556 24.52 44.2388C24.52 45.0402 24.32 45.561 24.28 45.7213H24C24 45.4809 24 44.8398 24.28 43.758C24.64 41.7547 24.88 39.7513 25.08 38.1887C25.08 37.1469 25.08 36.626 25.08 36.626C25.08 36.626 25.28 37.5877 25.2 38.4691L25.28 38.5493ZM32 32.6994C31.9784 32.5937 31.9784 32.4847 32 32.3789C31.9695 32.2879 31.9695 32.1894 32 32.0984C32 32.0984 32 32.0984 32 32.0984C32.0247 32.2846 32.0247 32.4732 32 32.6594V32.6994ZM40.6 41.394L40.4 41.1536C40.3868 41.0606 40.3868 40.9662 40.4 40.8732L40.64 41.1136V41.354C40.6589 41.4194 40.6589 41.4889 40.64 41.5543L40.6 41.394ZM46 30.9766C46.0512 30.8484 46.1184 30.7273 46.2 30.6159L46.44 30.2954L46.64 30.055V30.2954V30.6159L46.04 30.9766V31.217L46 30.9766ZM44.28 32.8998C44.1452 33.2452 43.9848 33.5801 43.8 33.9015C43.825 33.6256 43.8924 33.3553 44 33.1001C44.1649 32.6443 44.3655 32.2021 44.6 31.7779C44.7887 31.4073 45.0167 31.058 45.28 30.7362V30.7362L45.08 31.1368L44.68 31.858L44.28 32.8998ZM49.32 32.1385L47.88 34.1419C47.16 35.0634 46.64 35.8247 46.24 36.3456C45.84 36.8664 45.6 37.187 45.44 37.3873C45.3658 37.5095 45.271 37.618 45.16 37.7079V37.7079C45.1696 37.2603 45.2369 36.8159 45.36 36.3856C45.4869 35.7367 45.6471 35.0948 45.84 34.4624C46.0086 33.8776 46.2089 33.3025 46.44 32.7395C46.88 31.7669 47.416 30.8407 48.04 29.9749C48.68 29.0533 49.12 28.6126 49.36 28.5725C49.6 28.5325 49.6 28.5725 49.72 29.0533C49.8839 29.4365 49.9917 29.8413 50.04 30.2553V30.5358C50.0993 30.759 50.0993 30.9938 50.04 31.217C49.8194 31.4885 49.5787 31.7429 49.32 31.9782V32.1385ZM50.08 36.1452L49.52 37.0668L49.84 36.4257L50.44 35.4641L50.08 36.1452ZM50.08 35.1035L49.64 35.8247C49.64 36.025 49.64 36.1052 49.4 36.1052L50 35.0634L50.68 34.0617C50.5357 34.3769 50.3755 34.6845 50.2 34.9833L50.08 35.1035ZM52.08 43.7981C52.08 43.7981 52.08 43.7981 51.84 43.5977C51.7245 43.4811 51.6298 43.3456 51.56 43.1971V42.8365C51.56 42.8365 51.56 42.8365 51.88 43.2371L52.12 43.5977C52.1445 43.676 52.1445 43.7599 52.12 43.8382L52.08 43.7981ZM54.28 30.4156L54 30.9766L53.56 31.8981C53.4252 32.2507 53.2507 32.5868 53.04 32.8998C53.0796 32.6785 53.1468 32.4632 53.24 32.2587C53.4 31.858 53.6 31.4173 53.84 30.9365C54.0435 30.5747 54.2707 30.2267 54.52 29.8947V29.8947C54.5024 30.0213 54.4617 30.1435 54.4 30.2553L54.28 30.4156ZM55 30.4156V30.1752C55.0608 30.0433 55.1418 29.9216 55.24 29.8146C55.3208 29.7173 55.388 29.6095 55.44 29.4941L56 29.0533V29.2937V29.6143L55.76 29.9749L55 30.4156ZM65.92 43.5176L65.76 42.9967L65.48 42.6762V42.4358H65.68L66.04 42.7964C66.2015 42.9309 66.337 43.0938 66.44 43.2772C66.44 43.2772 66.2 43.4375 66.04 43.3173L65.92 43.5176ZM73.9199 30.3355C73.9199 30.3355 73.9199 30.1351 73.9199 30.0149V29.7345C73.935 29.8542 73.935 29.9753 73.9199 30.0951C73.9431 30.2276 73.9431 30.3632 73.9199 30.4957V30.3355ZM94.3199 23.484C94.4509 23.4482 94.589 23.4482 94.7199 23.484C94.8228 23.4437 94.937 23.4437 95.0399 23.484C95.0615 23.5897 95.0615 23.6988 95.0399 23.8045C95.0564 23.8973 95.0564 23.9922 95.0399 24.085C95.0912 25.0521 94.8987 26.0167 94.4799 26.8897C94.047 27.896 93.4219 28.8079 92.6399 29.5742C91.9259 30.3054 90.9765 30.7597 89.9599 30.8564C89.6278 30.8959 89.2921 30.8959 88.9599 30.8564C89.5586 29.4509 90.2955 28.1087 91.1599 26.8496C92.0011 25.488 93.07 24.2817 94.3199 23.2836V23.484ZM92.2799 24.9264L91.1199 26.3688L90.5199 26.9698L90.9199 26.4089L91.5199 25.6075L91.9999 24.9665L92.2799 24.9264ZM91.4399 25.2469L90.9999 25.8079L90.2799 26.6894C90.0399 27.05 89.7999 27.3304 89.6399 27.6109L89.2399 28.1718C89.516 27.7233 89.8235 27.2948 90.1599 26.8897L91.4399 25.2469ZM85.2399 41.5142L84.9599 41.1937L84.7199 40.753V40.4725L85.0399 40.8732C85.2125 41.0747 85.3479 41.3054 85.4399 41.5543C85.4399 41.5543 85.3599 41.4742 85.2399 41.3139V41.5142ZM86.4399 33.0601C86.5087 32.7197 86.6023 32.385 86.7199 32.0584C87.0806 31.0167 87.5082 29.9996 87.9999 29.0133C88.4539 28.1365 88.9896 27.3048 89.5999 26.5291L89.8799 26.1685L89.4799 26.7294C88.8004 27.7722 88.1859 28.8561 87.6399 29.9749C87.4917 30.248 87.3582 30.5289 87.2399 30.8163C87.2399 31.1769 86.9599 31.4974 86.8399 31.818C86.7199 32.1385 86.4399 32.8597 86.4399 32.8597V33.0601ZM106.44 25.8479C106.72 24.5257 107.08 22.8429 107.6 20.8395C108.12 18.8362 108.4 17.4739 108.48 17.2735L107.52 22.9631C106.6 27.5308 106.08 30.2153 105.96 30.9766C105.84 31.7378 105.72 32.459 105.6 33.3405C104.942 37.4728 104.741 41.6651 105 45.8415C105 46.723 105.24 48.0853 105.48 49.8482V49.4476C105.192 48.1267 104.991 46.7882 104.88 45.4408C104.599 38.7964 105.177 32.1434 106.6 25.6476L106.44 25.8479ZM105.6 46.2823C105.6 47.1237 105.6 47.5243 105.6 47.5243V46.122C105.32 40.1334 105.859 34.1347 107.2 28.292C107.84 25.1668 108.2 23.5641 108.28 23.4439C108.196 24.1442 108.076 24.8396 107.92 25.5274C106.584 31.8284 105.834 38.2399 105.68 44.6796L105.6 46.2823ZM105.12 54.6563C105.393 54.7411 105.64 54.8925 105.84 55.0971V55.0971C105.626 54.9093 105.437 54.6937 105.28 54.456L105.12 54.6563ZM106.16 42.6361C106.308 39.6001 106.642 36.576 107.16 33.5809C107.613 30.6159 108.093 27.9448 108.6 25.5675C108.782 24.5396 109.023 23.5229 109.32 22.5224C109.32 22.5224 109.32 23.5641 108.84 25.2469C108.2 28.292 107.64 31.6978 107.12 35.5042C106.6 39.3105 106.36 41.5944 106.32 42.9967C106.32 43.3974 106.32 44.733 106.32 47.0035V48.8466C106.44 45.3607 106.32 43.2772 106.32 42.556L106.16 42.6361ZM119.52 35.384V35.1436C119.508 35.0638 119.508 34.9829 119.52 34.9031V34.9031C119.52 34.9031 119.52 34.9031 119.76 34.9031V35.1436V35.3439C119.76 35.3439 119.72 35.3038 119.68 35.3038L119.52 35.384ZM124.84 24.7661L125.08 24.4456C125.151 24.3194 125.231 24.1988 125.32 24.085L125.52 23.8446V24.085L125.32 24.4055L125.08 24.7661L124.88 25.0065L124.84 24.7661ZM123.16 26.6894C123.046 27.0508 122.87 27.3897 122.64 27.691L123.04 26.9698C123.188 26.5071 123.389 26.0633 123.64 25.6476C123.829 25.277 124.057 24.9277 124.32 24.6059V24.6059L124.12 25.0065C123.968 25.236 123.834 25.4771 123.72 25.7277L123.16 26.6894ZM128.16 25.9281L126.76 27.9314L125.12 30.1351C124.879 30.5016 124.612 30.8498 124.32 31.1769C124.32 31.3772 124.08 31.4974 124.04 31.4974C123.999 31.0577 123.999 30.615 124.04 30.1752C124.04 29.5742 124.36 28.9331 124.56 28.252C124.721 27.678 124.922 27.1157 125.16 26.5692C125.591 25.5791 126.127 24.6387 126.76 23.7644C127.4 22.883 127.8 22.4022 128.08 22.4022C128.36 22.4022 128.32 22.4022 128.44 22.8429C128.589 23.2286 128.683 23.6332 128.72 24.0449V24.1651C128.777 24.3885 128.777 24.6229 128.72 24.8463C128.621 25.1929 128.487 25.5286 128.32 25.8479L128.16 25.9281ZM128.96 29.9348L128.56 30.9766C128.627 30.7453 128.736 30.5282 128.88 30.3355L129.48 29.3739C129.379 29.5477 129.258 29.7091 129.12 29.8547L128.96 29.9348ZM128.96 28.8931L128.52 29.6143C128.52 29.8146 128.32 29.8947 128.28 29.8947L128.92 28.853L129.56 27.8112C129.477 28.1522 129.37 28.4869 129.24 28.8129L128.96 28.8931ZM130.96 37.5877C130.96 37.5877 130.96 37.5877 130.72 37.5877C130.599 37.4602 130.504 37.3105 130.44 37.1469C130.413 37.0283 130.413 36.9049 130.44 36.7863C130.44 36.7863 130.44 36.7863 130.8 37.187C131.16 37.5877 131 37.4675 131.04 37.5877C131.05 37.6541 131.05 37.7216 131.04 37.788L130.96 37.5877ZM133.16 24.2052C133.008 24.4346 132.874 24.6758 132.76 24.9264L132.28 25.888C132.28 26.449 132 26.9698 132 26.9698C132 26.9698 132 26.6894 132 26.2887C132.148 25.826 132.349 25.3822 132.6 24.9665C132.799 24.6021 133.027 24.2538 133.28 23.9247V23.9247L133.16 24.2052ZM133.84 24.2052V23.9648L134.08 23.6442L134.32 23.2836V23.0432V23.2836C134.333 23.4035 134.333 23.5244 134.32 23.6442L134.08 23.9648L133.84 24.2052ZM144.44 34.9833C144.497 35.3013 144.497 35.6269 144.44 35.9449V35.9449C144.44 35.9449 144.44 35.1035 144.8 33.7011C145.16 32.2988 145.16 31.6176 145.32 30.4557V29.1335L145.56 27.651C145.56 28.4523 145.56 29.2937 145.28 30.2153C144.92 32.0984 144.68 33.7412 144.44 34.9833ZM145.24 36.626V37.0668V36.8664C145.24 36.8664 145.24 36.626 145.24 36.5058V36.3055V35.9048C145.259 36.185 145.259 36.4661 145.24 36.7462V36.626ZM145.72 29.0133C145.72 30.9365 145.28 33.02 145 34.7028C144.95 35.2043 144.857 35.7003 144.72 36.1853V36.1853C144.72 35.9449 144.72 35.3038 145 34.222C145.32 32.2186 145.6 30.2153 145.76 28.6527C145.76 27.6109 145.76 27.09 145.76 27.09C145.792 27.7713 145.778 28.454 145.72 29.1335V29.0133ZM152.56 23.3638C152.552 23.2571 152.552 23.1499 152.56 23.0432C152.56 23.0432 152.56 22.8429 152.56 22.8028C152.56 22.7628 152.56 22.8028 152.56 22.8028C152.56 22.8028 152.56 23.0833 152.56 23.3638ZM161.04 31.6176V31.3772C161.023 31.298 161.023 31.216 161.04 31.1368V30.9766C161.04 30.9766 161.04 30.9766 161.28 31.217C161.385 31.3274 161.455 31.467 161.48 31.6176C161.48 31.6176 161.08 31.6176 161.04 31.6176ZM166.6 20.6392L167.04 20.0783C166.897 20.4194 166.694 20.7317 166.44 20.9998V21.2402C166.44 21.2402 166.36 21.0399 166.6 20.6392ZM164.2 23.9648C164.236 23.7299 164.303 23.5008 164.4 23.2836C164.563 22.8203 164.778 22.3768 165.04 21.9614C165.413 21.2402 165.653 20.8796 165.76 20.8796V21.2803L164.68 22.9631C164.555 23.3127 164.394 23.6484 164.2 23.9648V23.9648ZM168.2 23.9648C167.361 25.2038 166.453 26.3943 165.48 27.5308C165.48 27.5308 165.48 27.5308 165.48 27.5308C165.556 26.4227 165.785 25.3305 166.16 24.2853C166.528 23.0162 167.066 21.8031 167.76 20.6793C168.099 20.1219 168.473 19.5866 168.88 19.0766C169.28 18.6358 169.52 18.4355 169.68 18.3954C169.84 18.3554 169.92 18.3954 170.08 18.8762C170.249 19.3668 170.343 19.8801 170.36 20.3988C170.418 20.6085 170.418 20.8301 170.36 21.0399C169.739 22.1281 169.044 23.1723 168.28 24.1651L168.2 23.9648ZM169.88 26.8096L170.2 26.1685C170.379 25.8263 170.593 25.504 170.84 25.2069C170.604 25.8215 170.309 26.4118 169.96 26.9698L169.88 26.8096ZM169.88 25.6476V25.9281L171.24 23.7644C170.994 24.5125 170.629 25.2161 170.16 25.8479L169.88 25.6476ZM170.4 51.7314L171.32 49.4876C171.68 48.6462 171.84 48.2055 171.88 48.1654C171.795 48.5453 171.688 48.9199 171.56 49.2873L170.76 51.3708C170.527 52.0125 170.26 52.6411 169.96 53.254C169.759 53.786 169.504 54.2962 169.2 54.7765C169.633 53.7982 170.128 52.848 170.68 51.9317L170.4 51.7314ZM167.16 50.329C166.142 53.9107 164.459 57.2681 162.2 60.2257C161.68 60.9068 161.36 61.2674 161.24 61.2674C161.12 61.2674 161.24 61.2674 161.24 60.7065C161.587 55.9759 163.25 51.4373 166.04 47.6045C166.917 46.0828 167.879 44.6114 168.92 43.1971C169.12 42.9166 169.2 42.7563 169.24 42.7563C169.24 42.97 168.92 44.3056 168.28 46.7631L167.16 50.329ZM168.88 56.9802C169.12 56.5395 169.68 55.4176 170.48 53.6546C170.862 52.7782 171.289 51.9222 171.76 51.0903L171.4 52.0519C170.785 53.6091 170.063 55.1219 169.24 56.5795C169.033 56.9867 168.792 57.3754 168.52 57.7415L168.88 56.9802ZM172.12 52.2923C171.4 53.855 171 54.7765 170.8 55.0971V55.4176C170.411 56.3038 169.914 57.1382 169.32 57.9018L169.64 57.3408C170.32 56.1789 171.24 54.2957 172.4 51.7715C172.608 51.2297 172.862 50.7069 173.16 50.2088C172.954 50.9851 172.7 51.7479 172.4 52.4927L172.12 52.2923ZM175.2 22.1618C174.8 24.1251 174.24 27.7712 173.48 33.02C173.48 33.4207 173.48 33.5809 173.48 33.5809C173.465 33.4478 173.465 33.3134 173.48 33.1803C174 28.7328 174.56 25.1668 175.08 22.883C175.163 22.3204 175.311 21.7692 175.52 21.2402C175.52 21.2402 175.56 21.7611 175.48 22.3621L175.2 22.1618Z" fill="#006D77"/>
<path d="M78.1085 13.4592C80.2285 14.7814 82.4285 15.9033 84.6685 17.0252C84.2285 17.7864 85.4285 18.3875 85.9485 17.7864L87.2685 18.4676C87.8685 18.7481 88.4685 17.7464 87.8685 17.4258L86.7885 16.7447C88.2376 14.8628 89.5733 12.8961 90.7885 10.8548C91.6414 9.8445 92.2742 8.6668 92.6461 7.39722C93.0181 6.12764 93.1211 4.79421 92.9485 3.48243C92.6373 2.34078 91.9099 1.35757 90.9101 0.727016C89.9103 0.096458 88.7108 -0.135589 87.5485 0.0767117C86.2589 0.466845 85.1071 1.21743 84.2285 2.24034C83.4938 3.14387 82.838 4.10904 82.2685 5.12519C81.5259 4.32445 80.5956 3.7219 79.5619 3.37209C78.5282 3.02228 77.4238 2.93626 76.3485 3.12182C75.3301 3.41937 74.4714 4.10997 73.9613 5.04172C73.4512 5.97346 73.3315 7.07002 73.6285 8.09017C73.9864 9.23609 74.5662 10.3001 75.335 11.2214C76.1037 12.1426 77.0462 12.9031 78.1085 13.4592V13.4592Z" fill="#006D77"/>
<path d="M91.7485 16.304C91.9065 16.34 92.0705 16.34 92.2285 16.304C92.3496 16.3251 92.4739 16.3181 92.5918 16.2833C92.7098 16.2486 92.8181 16.1871 92.9085 16.1036C93.8685 14.541 94.8285 12.9383 95.7485 11.3356C95.8229 11.2469 95.8772 11.1431 95.9076 11.0314C95.9381 10.9197 95.9441 10.8027 95.9251 10.6884C95.906 10.5742 95.8625 10.4654 95.7975 10.3696C95.7325 10.2739 95.6475 10.1933 95.5485 10.1336C95.3249 9.99863 95.0574 9.95661 94.8033 10.0165C94.5492 10.0764 94.3285 10.2335 94.1885 10.4541C93.2685 12.0168 92.3885 13.5794 91.5085 15.142C91.3871 15.3281 91.3442 15.5548 91.3892 15.7726C91.4342 15.9903 91.5633 16.1813 91.7485 16.304V16.304Z" fill="#006D77"/>
<path d="M72.2685 12.8982C72.4596 12.8927 72.643 12.822 72.7885 12.6979C72.9095 12.5592 72.9762 12.3812 72.9762 12.1971C72.9762 12.0129 72.9095 11.8349 72.7885 11.6962C71.9608 10.7492 71.4317 9.57785 71.268 8.32995C71.1043 7.08204 71.3132 5.81351 71.8685 4.68444C71.9259 4.5482 71.9465 4.39921 71.9281 4.25247C71.9098 4.10574 71.8531 3.96644 71.7639 3.84862C71.6747 3.7308 71.556 3.63862 71.4199 3.58137C71.2838 3.52411 71.135 3.5038 70.9885 3.52249C70.8432 3.53655 70.7041 3.58829 70.5849 3.6726C70.4656 3.75691 70.3704 3.87089 70.3085 4.0033C69.6563 5.4112 69.4262 6.97853 69.6464 8.51489C69.8665 10.0512 70.5273 11.4905 71.5485 12.6578C71.6393 12.7545 71.7526 12.827 71.8782 12.869C72.0039 12.911 72.138 12.921 72.2685 12.8982Z" fill="#006D77"/>
<path d="M96.3485 8.89157C96.4854 8.87667 96.6181 8.83467 96.7387 8.76801C96.8593 8.70135 96.9654 8.61135 97.051 8.50325C97.1366 8.39515 97.1999 8.2711 97.2372 8.13829C97.2746 8.00549 97.2852 7.86657 97.2685 7.72962C97.2383 7.47086 97.1086 7.23407 96.907 7.06951C96.7053 6.90494 96.4476 6.82553 96.1885 6.84814C95.7885 6.84814 95.3485 7.24881 95.3885 7.64949C95.2992 7.67731 95.2242 7.73888 95.1794 7.82115C95.1346 7.90342 95.1235 7.99993 95.1485 8.09023C95.2063 8.35328 95.3636 8.58369 95.5873 8.7331C95.811 8.88251 96.0839 8.93931 96.3485 8.89157V8.89157ZM95.5485 7.72962C95.5485 7.28888 96.5485 7.24881 96.4685 7.72962C96.4688 7.78579 96.4573 7.84138 96.4347 7.8928C96.4122 7.94423 96.3791 7.99032 96.3376 8.0281C96.2961 8.06589 96.2471 8.09451 96.1939 8.11211C96.1406 8.12972 96.0843 8.13591 96.0285 8.13029C95.8019 8.06426 95.6044 7.92297 95.4685 7.72962C95.4685 7.72962 95.5485 7.76969 95.5485 7.72962Z" fill="#006D77"/>
<path d="M72.7485 14.3005C72.7485 14.8214 73.2685 15.3824 73.8685 15.3022C74.1228 15.2535 74.3499 15.1115 74.5052 14.9041C74.6605 14.6966 74.7331 14.4385 74.7085 14.1803C74.6722 13.9246 74.5489 13.6893 74.3594 13.5141C74.1699 13.3389 73.9259 13.2346 73.6685 13.2187C73.5308 13.2087 73.3926 13.2314 73.2651 13.2848C73.1377 13.3382 73.0246 13.421 72.9351 13.5263C72.8455 13.6316 72.7819 13.7566 72.7495 13.8911C72.7171 14.0256 72.7168 14.1659 72.7485 14.3005V14.3005ZM74.2285 14.3005C74.2255 14.4081 74.1892 14.5121 74.1247 14.5982C74.0603 14.6843 73.9708 14.7483 73.8685 14.7814C73.7364 14.7646 73.6137 14.7044 73.5195 14.6101C73.4254 14.5158 73.3652 14.3928 73.3485 14.2605V14.2605C73.3472 14.2056 73.3583 14.1511 73.3812 14.1011C73.4041 14.0512 73.438 14.0071 73.4805 13.9723C73.5229 13.9376 73.5727 13.9129 73.6261 13.9004C73.6795 13.8878 73.7351 13.8877 73.7885 13.8999C73.9088 13.9262 74.0171 13.9914 74.0967 14.0856C74.1762 14.1798 74.2226 14.2976 74.2285 14.4208V14.3005Z" fill="#006D77"/>
</svg>
