<svg width="145" height="51" viewBox="0 0 145 51" fill="none" xmlns="http://www.w3.org/2000/svg">
<path d="M27.1875 13.9833C27.611 13.9703 28.0253 13.8562 28.3958 13.6504C28.4702 13.5813 28.5316 13.4993 28.5771 13.4083C28.5959 13.3083 28.5959 13.2057 28.5771 13.1057C28.5771 13.1057 28.5771 13.1057 28.5771 13.1057C28.5771 13.1057 28.5771 13.1057 28.3656 13.1057H28.1844C28.2632 13.1293 28.3472 13.1293 28.426 13.1057C28.426 13.1057 28.426 13.1057 28.426 12.9544C28.446 12.9065 28.4562 12.8551 28.4562 12.8032C28.4562 12.7512 28.446 12.6998 28.426 12.6519C27.4691 12.2644 26.4291 12.129 25.4052 12.2585C23.2302 12.2585 20.2698 12.4098 16.5239 12.7124C14.4698 12.8939 13.5031 12.9544 13.201 12.9544C12.8989 12.9544 12.7781 12.9544 12.7781 12.9544C12.7781 12.6216 12.9594 11.8046 13.1104 10.564C13.2246 9.84268 13.2952 9.11513 13.3219 8.38532C13.3425 8.29572 13.3425 8.20258 13.3219 8.11298C13.3219 7.78013 13.1104 7.62884 13.0198 7.62884C13.0198 7.62884 13.0198 7.62884 12.8687 7.62884C12.7177 7.62884 12.8687 7.62884 12.8687 7.62884V6.50925C12.8843 6.43951 12.8843 6.36717 12.8687 6.29744C12.8687 6.29744 12.8687 6.29744 12.6573 6.29744C12.4458 6.29744 12.6573 6.29744 12.476 6.47899L12.0833 6.50925V6.11588C12.1029 6.08969 12.1135 6.05784 12.1135 6.0251C12.1135 5.99237 12.1029 5.96051 12.0833 5.93433C12.0833 5.93433 12.0833 5.93433 11.9021 5.93433C11.7208 5.93433 11.6906 5.93433 11.6 6.32769C11.5094 6.72106 11.4489 6.63029 11.4187 6.63029V6.0251C11.3651 6.02804 11.3134 6.04685 11.2704 6.07917C11.2274 6.11148 11.1949 6.15585 11.1771 6.20666C11.1771 6.20666 11.1771 6.38821 11.1771 6.38821C11.1771 6.38821 11.1771 6.1764 10.9656 6.1764C10.7542 6.1764 10.9656 6.1764 10.7844 6.1764C10.6897 6.18531 10.5988 6.21762 10.5197 6.27044C10.4406 6.32325 10.3759 6.39491 10.3312 6.47899C10.3312 6.47899 10.3312 6.66055 10.3312 6.66055C10.3312 6.66055 9.06249 6.38821 9.06249 6.50925C9.06249 6.63029 8.76041 7.74987 8.3677 9.53516C8.12604 10.7455 7.88437 11.8651 7.67291 12.9544C7.0347 12.9847 6.39905 13.0554 5.76979 13.1663C4.44172 13.4425 3.13843 13.8271 1.87292 14.3161C0.604166 14.5582 0 15.0121 0 15.466C0 15.9198 0 15.466 0 15.466H0.151042C0.167488 15.556 0.167488 15.6483 0.151042 15.7383C0.151042 15.9198 -0.0302083 16.0711 0.151042 16.1014C0.332291 16.1317 0.151042 16.1014 0.151042 16.1014H0.453125C0.453125 16.1014 0.271875 16.1014 0.271875 16.283C0.271875 16.283 0.271875 16.283 0.453125 16.283H1.26875C2.50729 16.283 3.92708 16.0409 5.49791 15.7685L7.03854 15.5567H7.40104C7.40104 17.2815 7.18958 19.7022 7.00833 22.7887C6.73645 27.9327 6.49479 32.4716 6.28333 37.2223C6.08773 40.7094 6.08773 44.2048 6.28333 47.6919C6.28412 48.2631 6.39703 48.8286 6.61562 49.3562C6.77932 49.7907 7.0891 50.1545 7.49166 50.385C7.62027 50.4197 7.75576 50.4197 7.88437 50.385H8.18645C8.48306 50.3488 8.7667 50.2419 9.01369 50.0735C9.26069 49.9051 9.46386 49.6799 9.60624 49.4167C9.60624 49.2352 9.84791 46.179 10.2104 40.339C10.7542 31.5638 11.0865 26.5711 11.2073 25.391C11.4632 22.1119 11.8968 18.8492 12.5062 15.6173C15.8912 14.9186 19.3251 14.4836 22.7771 14.3161L27.1875 13.9833ZM3.32291 16.525H3.02083H3.44375H3.32291ZM3.02083 16.1922H2.41666C2.65642 16.1491 2.90191 16.1491 3.14166 16.1922H3.68541H3.92708C3.62608 16.2283 3.32184 16.2283 3.02083 16.1922V16.1922ZM4.16875 16.3737H4.50104H4.80312H4.16875ZM4.89375 15.4357L2.11458 16.0106L1.29896 16.1619C2.41724 15.8353 3.55824 15.5926 4.7125 15.4357L6.88749 15.0726C6.26205 15.2366 5.62622 15.3579 4.98437 15.4357H4.89375ZM8.76041 28.3261C9.06249 25.633 9.06249 23.3939 9.4552 21.3362C9.75728 18.7339 9.99895 17.221 10.0896 16.7671L9.63645 21.306C9.63645 22.7281 9.33437 24.3319 9.15312 26.45C9.15312 27.1762 9.15312 27.8419 8.94166 28.4169C8.66979 31.4428 8.51874 32.9255 8.51874 32.9255C8.48854 32.0782 8.57916 30.535 8.76041 28.3261ZM9.06249 37.0105C9.04276 37.6893 8.98223 38.3663 8.88124 39.0378V39.0378C8.88124 39.0378 8.88124 37.7064 9.06249 35.437C9.24374 31.8664 9.54583 28.3866 9.96874 25.0581C9.94296 24.7258 9.94296 24.3919 9.96874 24.0596C9.96874 24.0596 9.96874 25.5422 9.63645 28.2958C9.30416 31.0494 9.21353 33.803 9.06249 37.0105ZM10.5427 27.3881C10.0896 31.4125 9.78749 34.741 9.60624 37.4038L9.42499 39.4312C9.42499 39.2194 9.42499 38.5839 9.42499 37.4946C9.63645 33.5004 10.0896 28.8405 10.7542 23.5451C10.7907 23.0766 10.8614 22.6114 10.9656 22.1532C10.9052 22.5163 10.7542 24.2411 10.4521 27.3881H10.5427Z" fill="white"/>
<path d="M145 15.4659C145 15.4659 145 15.4659 145 15.2541C145.002 15.1991 144.985 15.1452 144.952 15.1012C144.919 15.0572 144.872 15.0258 144.819 15.012C144.819 15.012 144.819 15.012 144.819 15.012C144.383 15.0961 143.957 15.228 143.55 15.4054C140.753 16.9086 138.214 18.8494 136.028 21.1547C135.726 21.4802 135.392 21.7742 135.031 22.0322V22.0322C135.031 21.8204 135.031 20.0048 135.454 16.646C135.483 16.334 135.483 16.02 135.454 15.708C135.415 15.032 135.207 14.3766 134.85 13.8017C134.554 13.3348 134.136 12.958 133.642 12.7123C133.279 12.5205 132.873 12.4266 132.463 12.44C132.254 12.4485 132.049 12.5014 131.861 12.5953C131.674 12.6892 131.508 12.8219 131.376 12.9847C131.113 13.3161 130.881 13.6706 130.681 14.0438C130.532 14.3592 130.315 14.6381 130.047 14.8607C130.047 14.8607 130.047 14.8607 130.047 14.4069C130.04 14.1714 129.973 13.9416 129.851 13.7401C129.729 13.5385 129.557 13.3721 129.352 13.257C128.827 12.969 128.222 12.8627 127.63 12.9544C126.807 13.0499 126.012 13.314 125.294 13.7305C124.577 14.1469 123.953 14.7068 123.461 15.3752C123.105 15.829 122.791 16.3152 122.525 16.8276L122.193 17.0091C121.244 17.5519 120.228 17.9689 119.172 18.2498H118.417H118.235V17.9774L117.269 17.342L116.846 16.3434C116.716 16.0921 116.53 15.8745 116.302 15.708C116.12 15.5342 115.904 15.4003 115.668 15.3146C115.318 15.256 114.96 15.256 114.61 15.3146C114.443 15.3209 114.283 15.385 114.157 15.4962C113.885 15.7986 113.651 16.1341 113.462 16.4947L112.556 17.9472C112.194 18.4918 111.861 19.0365 111.559 19.5812C111.227 20.1864 111.046 20.4587 111.046 20.4587C111.109 19.726 111.22 18.9982 111.378 18.28C111.618 17.1146 111.749 15.9294 111.771 14.7397C111.799 14.5999 111.799 14.4559 111.771 14.3161C111.771 14.3161 111.771 14.1345 111.589 14.1345C111.589 14.1345 111.59 14.1345 111.408 14.1345C111.293 14.3494 111.192 14.5718 111.106 14.8002V14.195V13.9832C111.106 13.9832 111.106 13.9832 110.955 13.9832H110.744C110.562 13.9832 110.351 14.5582 110.079 15.6475C109.807 16.7368 109.566 17.9169 109.324 19.3391L109.112 19.6417C107.632 21.9111 106.303 23.8477 105.155 25.4514C104.007 27.0552 103.312 27.8722 103.101 27.8722C103.101 27.8722 103.101 27.8722 103.101 27.5998C103.083 27.3985 103.083 27.196 103.101 26.9947C103.14 24.5943 103.465 22.2073 104.068 19.8838C103.764 19.0125 103.4 18.1632 102.98 17.342C103.021 16.9396 103.021 16.5341 102.98 16.1316C102.947 15.6877 102.741 15.2747 102.406 14.9818C102.067 14.7038 101.636 14.5635 101.198 14.5884C100.869 14.6285 100.557 14.7536 100.292 14.9515C99.9467 15.1793 99.6659 15.4919 99.476 15.8593C99.476 16.1014 99.2041 16.3434 99.0531 16.5855L98.5999 17.2512C98.5999 17.4328 98.3885 17.5236 98.328 17.5538C98.2676 17.5841 98.328 17.5538 98.328 17.5538C98.3099 17.4538 98.3099 17.3513 98.328 17.2512C98.3131 17.0136 98.2424 16.7829 98.1216 16.5779C98.0009 16.3728 97.8336 16.1992 97.6333 16.0711C97.0984 15.8122 96.5023 15.7075 95.9114 15.7685C95.0855 15.8676 94.289 16.1365 93.5716 16.5582C92.8543 16.98 92.2316 17.5455 91.7426 18.2195C91.1911 18.8806 90.7149 19.6011 90.3228 20.3679C89.9151 21.1978 89.601 22.0706 89.3864 22.9702V22.9702C89.1145 23.5754 88.8124 24.3621 88.3895 25.3304C87.9666 26.2987 87.1208 28.5681 86.2145 31.1402L85.0968 34.1661C84.6664 35.4976 84.131 36.7927 83.4958 38.0393C83.1599 38.6323 82.7652 39.1899 82.3176 39.7035C82.1364 39.9456 82.0156 40.0666 81.9551 40.0666C81.7739 40.0666 81.5322 39.7035 81.2906 38.9168C81.1211 38.2018 81.02 37.4723 80.9885 36.7381C80.84 34.9559 80.84 33.1644 80.9885 31.3822C80.9885 30.3837 81.351 28.3563 81.7739 25.3304C81.9551 24.0394 82.1062 23.0307 82.227 22.3045C82.4687 20.8823 83.0729 18.0077 84.0093 13.6504C84.3718 11.8954 84.7041 10.4429 84.976 9.29307C85.4343 7.67511 85.7079 6.0103 85.7916 4.33057C85.7916 3.96746 85.701 3.7859 85.5197 3.7859C85.5197 3.7859 85.5197 3.7859 85.5197 3.63461C85.5197 3.48331 85.5197 3.30176 85.2478 3.30176C85.1285 3.34486 85.0164 3.4061 84.9156 3.48331C84.9156 3.48331 84.9156 3.48331 84.9156 3.24124C84.917 3.17045 84.8936 3.1014 84.8494 3.04611C84.8053 2.99082 84.7432 2.95279 84.6739 2.93865C84.5229 2.93865 84.3718 3.15046 84.1906 3.60435C84.0093 4.05824 84.1906 3.84642 84.1906 3.84642C84.1906 3.84642 84.1906 3.51357 84.1906 3.39253C84.2029 3.2617 84.2029 3.13 84.1906 2.99917C84.1992 2.93896 84.1992 2.87782 84.1906 2.81761C84.1906 2.81761 84.1906 2.66632 83.9187 2.66632H83.7374C83.7374 2.66632 83.7374 2.66632 83.526 2.66632C83.3145 2.66632 83.3447 2.66632 83.3447 2.66632C83.2824 2.66517 83.2211 2.68159 83.1677 2.71369C83.1143 2.7458 83.0709 2.79229 83.0426 2.84787C82.9721 2.9207 82.8905 2.98197 82.801 3.02943C82.3889 3.44715 82.0788 3.95458 81.8947 4.51212C81.4535 5.49747 81.0702 6.50784 80.7468 7.53804C79.635 11.2392 78.7672 15.0095 78.1489 18.8247C78.1489 19.5509 77.9374 20.2166 77.8166 20.9428C77.4843 21.4572 76.9104 22.2137 76.1249 23.2425C75.3395 24.2713 74.4937 25.3909 73.4968 26.5408C72.5693 27.626 71.5594 28.6376 70.476 29.5667C69.7902 30.2714 68.9041 30.7469 67.9385 30.9284C67.8001 30.9467 67.6594 30.9375 67.5246 30.9011C67.3898 30.8648 67.2635 30.802 67.1531 30.7165C66.9565 30.5432 66.8004 30.3287 66.696 30.0881C66.5915 29.8475 66.5413 29.5868 66.5489 29.3246C66.5731 27.4743 66.9848 25.6497 67.7572 23.9687C68.1653 24.1486 68.6123 24.2215 69.0562 24.1806C69.1992 24.1362 69.3403 24.0857 69.4791 24.0293C69.7202 23.9649 69.9532 23.8736 70.1739 23.7569C70.7853 23.3911 71.3273 22.9199 71.7749 22.365C72.234 21.7568 72.6004 21.0838 72.8624 20.3679C73.157 19.756 73.2921 19.0794 73.2552 18.4011C73.2331 18.0588 73.1295 17.7268 72.9531 17.4328C72.7874 17.1093 72.5367 16.8373 72.2281 16.646C71.6506 16.3512 70.9986 16.2353 70.3552 16.3132C69.8504 16.3468 69.3525 16.4486 68.8749 16.6158C68.3437 16.7994 67.8443 17.0648 67.3947 17.4025C66.3529 18.1608 65.4702 19.117 64.7968 20.2166C64.3978 20.8039 64.0443 21.421 63.7395 22.0624H63.4374C62.327 22.5454 61.1414 22.8321 59.9333 22.9097H58.9062H58.5437L58.0604 22.6373C57.9317 22.5083 57.8562 22.3355 57.8489 22.1532C57.8546 21.7354 57.9052 21.3195 58 20.9126C58 20.3679 58.2718 19.5812 58.5135 18.5221C58.6303 18.1811 58.6915 17.8235 58.6947 17.463V17.342H58.4229H58.2114H57.3958C57.316 17.3265 57.2339 17.3265 57.1541 17.342C56.9953 17.3035 56.8296 17.3035 56.6708 17.342C56.5169 17.3977 56.3739 17.4796 56.2479 17.5841C55.983 17.8706 55.75 18.1851 55.5531 18.5221C55.3492 18.9109 55.1775 19.3157 55.0395 19.7325C54.8671 20.2902 54.7955 20.8743 54.8281 21.4572C54.8798 22.0559 55.0656 22.6351 55.3718 23.1518V23.3636C55.3849 23.4234 55.3849 23.4853 55.3718 23.5451C55.3856 23.6759 55.3856 23.8077 55.3718 23.9385C55.2959 24.1559 55.2353 24.3783 55.1906 24.6042C54.8885 25.6633 54.526 26.7223 54.1333 27.6301C53.8159 28.4763 53.4528 29.3046 53.0458 30.1114C52.8823 30.3951 52.7006 30.668 52.502 30.9284L51.8979 31.6848C51.6864 31.9269 51.5656 32.0177 51.5354 32.0177C51.3178 31.8494 51.1592 31.6163 51.0823 31.352C50.9671 30.9473 50.8962 30.5313 50.8708 30.1114C50.7828 28.9632 50.7828 27.81 50.8708 26.6618C50.8708 25.3304 51.1125 24.0898 51.2333 22.8794C51.3742 21.8765 51.4549 20.8661 51.475 19.8535C51.4625 19.7835 51.4625 19.7117 51.475 19.6417V19.6417C51.475 19.6417 51.475 19.4601 51.2937 19.4601V19.2483C51.2937 19.2483 51.2937 19.2483 51.1125 19.2483C50.9312 19.2483 51.1125 19.2483 51.1125 19.2483C51.1125 19.2483 51.1125 19.0063 50.9614 19.0365H50.6895C50.5683 19.1013 50.4646 19.1948 50.3875 19.3088C49.5899 20.4788 49.1014 21.8322 48.9677 23.2425C48.9532 23.4844 48.9532 23.7269 48.9677 23.9687V23.9687C47.4875 26.2382 46.1885 28.1748 45.0104 29.7785C43.8323 31.3822 43.1677 32.1992 42.9864 32.1992C42.9864 32.1992 42.9864 32.1992 42.9864 31.8966C42.9864 31.5941 42.9864 31.5335 42.9864 31.3217C43.04 28.9225 43.3643 26.537 43.9531 24.2108C44.1948 23.2425 44.3458 22.5163 44.4364 22.0624C44.4768 21.66 44.4768 21.2545 44.4364 20.8521C44.4211 20.6333 44.3628 20.4197 44.2648 20.2236C44.1669 20.0275 44.0312 19.8527 43.8655 19.7093C43.6999 19.5659 43.5076 19.4567 43.2997 19.388C43.0918 19.3193 42.8724 19.2924 42.6541 19.3088C42.3257 19.3489 42.0133 19.4741 41.7479 19.672C41.403 19.8997 41.1222 20.2123 40.9323 20.5797L40.5093 21.3059C40.3799 21.5419 40.2282 21.7648 40.0562 21.9716C39.9896 22.0918 39.8967 22.1953 39.7843 22.2742C39.7843 22.2742 39.7843 22.2742 39.7843 22.2742C39.7843 22.2742 39.7843 22.0927 39.7843 21.9716C39.8175 21.734 39.7914 21.4919 39.7083 21.2668C39.6252 21.0418 39.4878 20.8408 39.3083 20.682C39.1287 20.5231 38.9127 20.4113 38.6795 20.3565C38.4463 20.3017 38.2032 20.3056 37.9718 20.3679C37.4402 20.0993 36.8412 19.994 36.25 20.0653C35.4265 20.1608 34.6314 20.4249 33.9142 20.8414C33.1971 21.2578 32.5731 21.8177 32.0812 22.4861C31.8698 22.7584 31.6885 23.061 31.4771 23.3636L30.6916 23.7872C29.6951 24.3423 28.6281 24.7596 27.5198 25.0278H26.7948H26.5833V24.7555L26.3416 24.2411L25.7979 23.3938C25.6685 23.1425 25.4823 22.9249 25.2541 22.7584C25.0722 22.5846 24.8562 22.4507 24.6198 22.365C24.2689 22.3184 23.9134 22.3184 23.5625 22.365C23.39 22.3967 23.2317 22.4813 23.1094 22.6071C22.8493 22.8426 22.6162 23.1065 22.4146 23.3938L21.5083 24.8463C21.1549 25.3509 20.8321 25.8763 20.5416 26.4197L19.9979 27.2973C19.9979 27.2973 19.9979 26.4803 20.3302 25.1186C20.5801 23.9855 20.7118 22.8294 20.7229 21.6691C20.7227 21.4771 20.6705 21.2889 20.5719 21.1244C20.5719 21.1244 20.5719 21.1244 20.5719 21.1244V20.9428C20.5926 20.8841 20.5926 20.82 20.5719 20.7613C20.5719 20.7613 20.5719 20.7613 20.5719 20.7613C20.4563 20.9761 20.3554 21.1985 20.2698 21.427V21.427V20.6705V20.4587C20.2006 20.4781 20.1275 20.4781 20.0583 20.4587V20.4587C20.0583 20.4587 19.6656 21.0336 19.3937 22.1229C19.1219 23.2123 17.0677 24.7252 16.7958 26.4197C16.5239 28.1143 16.2823 29.4457 16.1312 31.0796C16.0335 32.3385 16.0335 33.6031 16.1312 34.862C16.1312 35.4975 16.3427 35.8303 16.5844 35.8001C16.668 35.9008 16.7868 35.9657 16.9166 35.9816V35.9816H17.1281C17.1281 35.9816 17.3396 35.9816 17.551 35.9816H17.8531H18.125C18.125 35.9816 18.3364 35.5883 18.5177 34.862C19.2813 31.4038 20.685 28.1195 22.6562 25.1791C22.8375 24.937 22.9583 24.7857 23.0489 24.7857C23.1396 24.7857 23.0489 24.7857 23.2906 25.1186C23.4227 25.4137 23.5956 25.6887 23.8041 25.9356C24.0073 26.1636 24.2537 26.3488 24.5291 26.4803C24.9925 26.537 25.462 26.5166 25.9187 26.4197C26.2902 26.4605 26.665 26.4605 27.0364 26.4197C27.6365 26.356 28.2255 26.2136 28.7885 25.9961C29.3561 25.764 29.9107 25.5014 30.45 25.2094C30.1364 25.9126 29.8837 26.6415 29.6948 27.388C29.6197 28.0516 29.6197 28.7216 29.6948 29.3851C29.725 30.0179 29.8898 30.6369 30.1781 31.2007C30.3557 31.5254 30.6164 31.7969 30.9333 31.9874C31.3411 32.2032 31.779 32.3562 32.2323 32.4413C32.5335 32.4734 32.8373 32.4734 33.1385 32.4413C33.7457 32.3899 34.3339 32.2039 34.8604 31.8966C35.2714 31.5956 35.6289 31.2273 35.9177 30.8073C36.3104 30.2627 36.7937 29.4759 37.4281 28.3866C37.6156 27.9901 37.8598 27.6231 38.1531 27.2973V27.2973C38.0661 28.1322 38.0661 28.9739 38.1531 29.8088C38.1531 30.2929 38.1531 30.7468 38.3645 31.1704C38.479 31.9085 38.8401 32.5858 39.3889 33.0916C39.9377 33.5973 40.6416 33.9014 41.3854 33.9543H41.9291C42.7091 33.9193 43.4453 33.5831 43.9833 33.0162L44.7687 31.8361C45.1916 31.2309 45.6145 30.535 46.0979 29.7785L47.3364 27.7209L48.0614 26.45C48.0614 26.9644 48.0614 27.5091 48.0614 28.0235C48.1248 29.2391 48.4223 30.431 48.9375 31.5335C49.1372 31.9028 49.3919 32.2395 49.6927 32.5321C49.9345 32.7697 50.2223 32.955 50.5385 33.0768C50.6471 33.1079 50.7622 33.1079 50.8708 33.0768H51.3541H52.0489L52.6229 32.8044C52.9821 32.5793 53.3076 32.3043 53.5895 31.9874C53.9146 31.6789 54.1897 31.3216 54.4052 30.9284C54.6992 30.3687 54.9615 29.7929 55.1906 29.2036C55.4927 28.4774 55.7343 27.7511 56.0062 26.9644C55.9901 26.9153 55.9901 26.8622 56.0062 26.8131C56.0062 26.2987 56.3083 25.9053 56.3989 25.5422C56.4895 25.1791 56.6104 24.9673 56.6708 24.7555C56.7312 24.5437 56.6708 24.3924 56.8218 24.3016V24.0898H57.2145H57.6979C58.4006 24.2519 59.1242 24.3029 59.8427 24.2411C60.58 24.1732 61.3087 24.0313 62.0177 23.8175L62.5916 23.6056L62.4406 23.9082C61.9815 25.208 61.7864 26.5866 61.8666 27.963C61.9181 28.6382 62.1029 29.2964 62.4104 29.8995C62.7119 30.4888 63.1724 30.9815 63.7395 31.3217C64.5266 31.9421 65.4655 32.3392 66.4583 32.4716H67.1833C67.5118 32.4519 67.8366 32.3909 68.1499 32.29L69.2072 31.9874C70.4932 31.336 71.618 30.4057 72.4999 29.2641C73.4107 28.1815 74.2483 27.0392 75.0072 25.8448L75.1583 25.633C75.7222 24.7857 76.2357 23.999 76.6989 23.2728C76.1845 26.7779 76.0226 30.3259 76.2156 33.8635C76.5781 38.2813 77.8166 40.9441 79.9916 41.8822C80.2992 41.9578 80.6205 41.9578 80.9281 41.8822C81.7023 41.8207 82.4396 41.5252 83.0426 41.0349C83.4629 40.6963 83.8207 40.2867 84.0999 39.8245C84.6853 38.7479 85.1804 37.6245 85.5801 36.4658C85.9426 35.5883 86.6072 33.6819 87.6343 30.7468C88.2989 28.901 88.8728 27.2973 89.4166 25.8448C89.4801 26.1103 89.5819 26.3652 89.7187 26.6013C89.8885 26.9317 90.151 27.2051 90.4739 27.388C90.8795 27.6088 91.3182 27.7621 91.7728 27.8419C92.0732 27.8876 92.3787 27.8876 92.6791 27.8419C93.2853 27.7857 93.8725 27.6 94.401 27.2973C94.8066 27.0628 95.1734 26.7668 95.4885 26.4197C95.851 25.9053 96.3645 25.0883 96.9989 24.0293C97.1938 23.6344 97.4265 23.2595 97.6937 22.9097V22.9097C97.6066 23.7547 97.6066 24.6064 97.6937 25.4514C97.7323 25.8997 97.803 26.3447 97.9051 26.7828C98.0143 27.5232 98.3739 28.2036 98.9237 28.7103C99.4735 29.217 100.18 29.5193 100.926 29.5667H101.47C102.243 29.5161 102.968 29.1694 103.494 28.5984C103.791 28.2236 104.064 27.8294 104.309 27.4183C104.732 26.8131 105.155 26.1171 105.638 25.3607C106.122 24.6042 106.514 23.9385 106.847 23.3333L107.421 22.3348C107.421 22.8492 107.421 23.3636 107.209 23.878C107.097 25.1362 107.097 26.4021 107.209 27.6604C107.209 28.2958 107.421 28.6287 107.662 28.5984C107.746 28.6991 107.865 28.764 107.995 28.78H108.146H108.357C108.357 28.78 108.569 28.78 108.78 28.78H109.082C109.28 28.4339 109.413 28.0544 109.475 27.6604C110.225 24.1979 111.63 20.9112 113.613 17.9774C113.795 17.7354 113.916 17.5841 114.006 17.5841C114.097 17.5841 114.006 17.5841 114.248 17.9169C114.38 18.212 114.553 18.487 114.761 18.7339C114.965 18.9619 115.211 19.1471 115.486 19.2786C115.746 19.4177 116.019 19.5292 116.302 19.6114C116.673 19.6522 117.048 19.6522 117.42 19.6114C118.02 19.5477 118.609 19.4053 119.172 19.1878L120.501 18.5826C120.274 19.1214 120.092 19.6781 119.957 20.2469C119.883 20.9004 119.883 21.5602 119.957 22.2137C119.991 22.8555 120.156 23.4836 120.441 24.0595C120.736 24.5167 121.17 24.8667 121.679 25.0581C122.318 25.2832 122.999 25.3658 123.673 25.3002C124.337 25.2422 124.964 24.9656 125.455 24.5134C126.15 23.793 126.74 22.9781 127.207 22.0927C127.872 20.963 128.325 20.2368 128.567 19.914C128.567 19.7022 128.959 19.4299 129.231 19.1273C129.43 18.8555 129.663 18.6113 129.926 18.4011C129.926 18.4011 129.926 18.4011 129.926 18.4011C129.941 18.5722 129.941 18.7443 129.926 18.9155C129.926 19.1878 129.745 19.793 129.594 20.731C129.443 21.6691 129.261 22.7281 129.05 23.7569C128.838 24.7857 128.657 26.0869 128.506 26.7828C128.426 27.2945 128.252 27.787 127.993 28.2353C127.698 28.6779 127.364 29.0931 126.996 29.4759C124.114 32.5241 121.793 36.0582 120.138 39.9153C119.224 41.9715 118.76 44.2003 118.779 46.4513C118.791 46.8011 118.852 47.1474 118.96 47.4801C119.043 47.7181 119.177 47.935 119.353 48.1155C119.586 48.304 119.84 48.4664 120.108 48.5997C120.413 48.7234 120.726 48.8245 121.045 48.9023C121.356 48.9326 121.67 48.9326 121.981 48.9023C122.399 48.8663 122.813 48.7954 123.22 48.6905C125.591 47.414 127.457 45.3642 128.506 42.8807C129.701 40.6157 130.711 38.258 131.527 35.8303C132.666 32.7731 133.545 29.6251 134.155 26.4197C134.187 25.9507 134.258 25.4852 134.367 25.0278C134.421 24.7821 134.536 24.5535 134.699 24.3621L135.575 23.3938L135.937 22.8794C138.358 19.9468 141.323 17.5115 144.668 15.708C144.879 15.708 145 15.708 145 15.708V15.4659ZM18.125 33.6214C18.102 33.8714 18.0409 34.1163 17.9437 34.3476C17.9525 33.7183 18.0131 33.0909 18.125 32.4716C18.125 31.7151 18.3969 30.8981 18.5177 30.0206V29.022C18.5177 28.2958 18.5177 27.9024 18.5177 27.9024C18.5177 28.5076 18.5177 29.1431 18.3062 29.839C18.3969 31.2915 18.125 32.4716 18.125 33.5609V33.6214ZM18.6989 34.862V35.1949V34.8923C18.6989 34.8923 18.6989 34.7107 18.6989 34.62V34.4687V34.1661C18.6933 34.379 18.6731 34.5913 18.6385 34.8015L18.6989 34.862ZM19.0916 29.1128C18.9104 30.535 18.7291 32.1387 18.5177 33.4096C18.5177 34.0148 18.3666 34.4082 18.3364 34.5292H18.125C18.125 34.3476 18.125 33.8635 18.3364 33.0465C18.6083 31.5335 18.7896 30.0206 18.9406 28.8405C18.9406 28.0537 18.9406 27.6604 18.9406 27.6604C18.9406 27.6604 19.0916 28.3866 19.0312 29.0523L19.0916 29.1128ZM24.1666 24.695C24.1504 24.6151 24.1504 24.5328 24.1666 24.4529C24.1436 24.3842 24.1436 24.3098 24.1666 24.2411C24.1666 24.2411 24.1666 24.2411 24.1666 24.2411C24.1853 24.3817 24.1853 24.5241 24.1666 24.6647V24.695ZM30.6614 31.2612L30.5104 31.0796C30.5005 31.0094 30.5005 30.9381 30.5104 30.8678L30.6916 31.0494V31.2309C30.7059 31.2804 30.7059 31.3328 30.6916 31.3822L30.6614 31.2612ZM34.7396 23.3938C34.7783 23.2971 34.829 23.2056 34.8906 23.1215L35.0718 22.8794L35.2229 22.6979V22.8794V23.1215L34.7698 23.3938V23.5754L34.7396 23.3938ZM33.4406 24.8463C33.3388 25.1072 33.2177 25.36 33.0781 25.6027C33.097 25.3944 33.1479 25.1903 33.2291 24.9976C33.3537 24.6533 33.5052 24.3194 33.6823 23.999C33.8248 23.7191 33.997 23.4553 34.1958 23.2123V23.2123L34.0448 23.5149L33.7427 24.0595L33.4406 24.8463ZM37.2468 24.2713L36.1593 25.7843C35.6156 26.4803 35.2229 27.0552 34.9208 27.4486C34.6187 27.8419 34.4375 28.084 34.3166 28.2353C34.2606 28.3276 34.1891 28.4095 34.1052 28.4774V28.4774C34.1125 28.1394 34.1632 27.8038 34.2562 27.4788C34.3521 26.9888 34.4731 26.504 34.6187 26.0264C34.746 25.5847 34.8973 25.1504 35.0718 24.7252C35.4042 23.9907 35.809 23.2912 36.2802 22.6373C36.7635 21.9414 37.0958 21.6085 37.2771 21.5783C37.4583 21.548 37.4583 21.5783 37.5489 21.9414C37.6727 22.2307 37.7541 22.5365 37.7906 22.8492V23.061C37.8354 23.2295 37.8354 23.4069 37.7906 23.5754C37.624 23.7804 37.4422 23.9726 37.2468 24.1503V24.2713ZM37.8208 27.2973L37.3979 27.9932L37.6396 27.5091L38.0927 26.7828L37.8208 27.2973ZM37.8208 26.5105L37.4885 27.0552C37.4885 27.2065 37.4885 27.267 37.3073 27.267L37.7604 26.4803L38.2739 25.7238C38.165 25.9618 38.044 26.1941 37.9114 26.4197L37.8208 26.5105ZM39.3312 33.0768C39.3312 33.0768 39.3312 33.0767 39.15 32.9255C39.0628 32.8374 38.9913 32.7351 38.9385 32.6229V32.3505C38.9385 32.3505 38.9385 32.3505 39.1802 32.6531L39.3614 32.9255C39.38 32.9845 39.38 33.0479 39.3614 33.107L39.3312 33.0768ZM40.9927 22.9702L40.7812 23.3938L40.4489 24.0898C40.3471 24.3561 40.2154 24.6099 40.0562 24.8463C40.0861 24.6792 40.1369 24.5165 40.2073 24.3621C40.3281 24.0595 40.4791 23.7267 40.6604 23.3636C40.8141 23.0903 40.9857 22.8275 41.1739 22.5768V22.5768C41.1606 22.6724 41.1299 22.7647 41.0833 22.8492L40.9927 22.9702ZM41.5364 22.9702V22.7886C41.5824 22.689 41.6435 22.5971 41.7177 22.5163C41.7787 22.4428 41.8295 22.3614 41.8687 22.2742L42.2916 21.9414V22.1229V22.365L42.1104 22.6373L41.5364 22.9702ZM49.7833 32.8649L49.6625 32.4716L49.451 32.2295V32.0479H49.602L49.8739 32.3203C49.9959 32.4218 50.0983 32.5449 50.176 32.6834C50.176 32.6834 49.9948 32.8044 49.8739 32.7136L49.7833 32.8649ZM55.825 22.9097C55.825 22.9097 55.825 22.7584 55.825 22.6676V22.4558C55.8363 22.5462 55.8363 22.6377 55.825 22.7281C55.8424 22.8282 55.8424 22.9306 55.825 23.0307V22.9097ZM71.2312 17.7354C71.3301 17.7083 71.4344 17.7083 71.5333 17.7354C71.611 17.705 71.6972 17.705 71.7749 17.7354C71.7912 17.8152 71.7912 17.8976 71.7749 17.9774C71.7874 18.0475 71.7874 18.1192 71.7749 18.1893C71.8137 18.9197 71.6682 19.6481 71.352 20.3074C71.025 21.0674 70.553 21.7561 69.9624 22.3348C69.4232 22.887 68.7062 23.23 67.9385 23.303C67.6876 23.3329 67.4341 23.3329 67.1833 23.303C67.6354 22.2416 68.1919 21.228 68.8447 20.2771C69.48 19.2489 70.2872 18.3378 71.2312 17.5841V17.7354ZM69.6906 18.8247L68.8145 19.914L68.3614 20.3679L68.6635 19.9443L69.1166 19.3391L69.4791 18.855L69.6906 18.8247ZM69.0562 19.0668L68.7239 19.4904L68.1802 20.1561C67.9989 20.4284 67.8177 20.6402 67.6968 20.8521L67.3947 21.2757C67.6033 20.9369 67.8354 20.6134 68.0895 20.3074L69.0562 19.0668ZM64.3739 31.352L64.1624 31.1099L63.9812 30.7771V30.5652L64.2229 30.8678C64.3532 31.0201 64.4554 31.1942 64.525 31.3822C64.525 31.3822 64.4645 31.3217 64.3739 31.2007V31.352ZM65.2802 24.9673C65.3321 24.7103 65.4027 24.4575 65.4916 24.2108C65.764 23.4242 66.0869 22.656 66.4583 21.9111C66.8011 21.249 67.2057 20.6209 67.6666 20.0351L67.8781 19.7627L67.576 20.1864C67.0628 20.9739 66.5987 21.7924 66.1864 22.6373C66.0744 22.8436 65.9736 23.0557 65.8843 23.2728C65.8843 23.5451 65.6729 23.7872 65.5822 24.0293C65.4916 24.2713 65.2802 24.816 65.2802 24.816V24.9673ZM80.3843 19.5207C80.5958 18.5221 80.8676 17.2512 81.2604 15.7383C81.6531 14.2253 81.8645 13.1965 81.9249 13.0452L81.1999 17.342C80.5051 20.7915 80.1124 22.8189 80.0218 23.3938C79.9312 23.9687 79.8406 24.5134 79.7499 25.1791C79.2533 28.2999 79.1013 31.4659 79.2968 34.62C79.2968 35.2857 79.4781 36.3145 79.6593 37.6459V37.3433C79.4417 36.3458 79.2904 35.3349 79.2062 34.3174C78.9937 29.2994 79.4303 24.275 80.5051 19.3694L80.3843 19.5207ZM79.7499 34.9528C79.7499 35.5883 79.7499 35.8909 79.7499 35.8909V34.8318C79.5387 30.3092 79.9453 25.7789 80.9583 21.3665C81.4416 19.0063 81.7135 17.7959 81.7739 17.7051C81.7107 18.234 81.6199 18.7592 81.502 19.2786C80.4929 24.0371 79.9266 28.8791 79.8104 33.7425L79.7499 34.9528ZM79.3874 41.277C79.5935 41.341 79.7803 41.4554 79.9312 41.6098V41.6098C79.7693 41.468 79.6271 41.3052 79.5083 41.1257L79.3874 41.277ZM80.1729 32.1992C80.2848 29.9064 80.537 27.6226 80.9281 25.3607C81.2704 23.1215 81.6329 21.1042 82.0156 19.3088C82.1533 18.5326 82.3348 17.7648 82.5593 17.0091C82.5593 17.0091 82.5593 17.7959 82.1968 19.0668C81.7135 21.3665 81.2906 23.9385 80.8979 26.8131C80.5051 29.6877 80.3239 31.4125 80.2937 32.4716C80.2937 32.7742 80.2937 33.7828 80.2937 35.4975V36.8894C80.3843 34.2569 80.2937 32.6834 80.2937 32.1387L80.1729 32.1992ZM90.2624 26.7223V26.5408C90.2538 26.4806 90.2538 26.4194 90.2624 26.3592V26.3592C90.2624 26.3592 90.2624 26.3592 90.4437 26.3592V26.5408V26.6921C90.4437 26.6921 90.4135 26.6618 90.3833 26.6618L90.2624 26.7223ZM94.2801 18.7037L94.4614 18.4616C94.5147 18.3663 94.5753 18.2752 94.6426 18.1893L94.7937 18.0077V18.1893L94.6426 18.4313L94.4614 18.7037L94.3103 18.8852L94.2801 18.7037ZM93.0114 20.1561C92.925 20.4291 92.7922 20.685 92.6187 20.9126L92.9208 20.3679C93.0323 20.0185 93.1844 19.6833 93.3739 19.3694C93.5164 19.0895 93.6886 18.8257 93.8874 18.5826V18.5826L93.7364 18.8852C93.6215 19.0585 93.5205 19.2406 93.4343 19.4299L93.0114 20.1561ZM96.7874 19.5812L95.7301 21.0941L94.4916 22.7584C94.3098 23.0351 94.1078 23.2981 93.8874 23.5451C93.8874 23.6964 93.7062 23.7872 93.676 23.7872C93.6449 23.4551 93.6449 23.1208 93.676 22.7886C93.676 22.3348 93.9176 21.8506 94.0687 21.3362C94.1906 20.9027 94.342 20.4781 94.5218 20.0653C94.847 19.3176 95.2521 18.6074 95.7301 17.9472C96.2135 17.2815 96.5156 16.9184 96.727 16.9184C96.9385 16.9184 96.9083 16.9184 96.9989 17.2512C97.1112 17.5425 97.1823 17.848 97.2103 18.159V18.2498C97.2538 18.4185 97.2538 18.5955 97.2103 18.7642C97.1357 19.026 97.0344 19.2795 96.9083 19.5207L96.7874 19.5812ZM97.3916 22.6071L97.0895 23.3938C97.1404 23.2192 97.2222 23.0552 97.3312 22.9097L97.7843 22.1835C97.7082 22.3148 97.6169 22.4366 97.5124 22.5466L97.3916 22.6071ZM97.3916 21.8204L97.0593 22.365C97.0593 22.5163 96.9083 22.5768 96.878 22.5768L97.3614 21.7901L97.8447 21.0034C97.7818 21.2608 97.701 21.5136 97.6031 21.7598L97.3916 21.8204ZM98.902 28.3866C98.902 28.3866 98.902 28.3866 98.7208 28.3866C98.6295 28.2903 98.5577 28.1773 98.5093 28.0537C98.4886 27.9641 98.4886 27.871 98.5093 27.7814C98.5093 27.7814 98.5093 27.7814 98.7812 28.084C99.0531 28.3866 98.9322 28.2958 98.9624 28.3866C98.9699 28.4367 98.9699 28.4877 98.9624 28.5379L98.902 28.3866ZM100.563 18.28C100.449 18.4533 100.348 18.6354 100.261 18.8247L99.8989 19.5509C99.8989 19.9745 99.6874 20.3679 99.6874 20.3679C99.6874 20.3679 99.6874 20.1561 99.6874 19.8535C99.799 19.504 99.951 19.1689 100.141 18.855C100.291 18.5798 100.463 18.3167 100.654 18.0682V18.0682L100.563 18.28ZM101.077 18.28V18.0985L101.258 17.8564L101.44 17.5841V17.4025V17.5841C101.449 17.6746 101.449 17.7659 101.44 17.8564L101.258 18.0985L101.077 18.28ZM109.082 26.4197C109.125 26.6599 109.125 26.9058 109.082 27.146V27.146C109.082 27.146 109.082 26.5105 109.354 25.4514C109.626 24.3924 109.626 23.878 109.747 23.0005V22.0019L109.928 20.8823C109.928 21.4875 109.928 22.1229 109.717 22.8189C109.445 24.2411 109.263 25.4817 109.082 26.4197ZM109.686 27.6604V27.9932V27.8419C109.686 27.8419 109.686 27.6604 109.686 27.5696V27.4183V27.1157C109.701 27.3273 109.701 27.5396 109.686 27.7511V27.6604ZM110.049 21.9111C110.049 23.3636 109.717 24.937 109.505 26.2079C109.468 26.5866 109.397 26.9613 109.294 27.3275V27.3275C109.294 27.146 109.294 26.6618 109.505 25.8448C109.747 24.3319 109.958 22.8189 110.079 21.6388C110.079 20.8521 110.079 20.4587 110.079 20.4587C110.103 20.9732 110.093 21.4887 110.049 22.0019V21.9111ZM115.214 17.6446C115.209 17.564 115.209 17.4831 115.214 17.4025C115.214 17.4025 115.214 17.2512 115.214 17.221C115.214 17.1907 115.214 17.221 115.214 17.221C115.214 17.221 115.214 17.4328 115.214 17.6446ZM121.619 23.878V23.6964C121.606 23.6366 121.606 23.5747 121.619 23.5149V23.3938C121.619 23.3938 121.619 23.3938 121.8 23.5754C121.879 23.6588 121.932 23.7642 121.951 23.878C121.951 23.878 121.649 23.878 121.619 23.878ZM125.818 15.587L126.15 15.1633C126.042 15.421 125.889 15.6568 125.697 15.8593V16.0409C125.697 16.0409 125.636 15.8896 125.818 15.587ZM124.005 18.0985C124.032 17.9211 124.083 17.7481 124.156 17.5841C124.279 17.2342 124.442 16.8992 124.639 16.5855C124.921 16.0409 125.103 15.7685 125.183 15.7685V16.0711L124.368 17.342C124.273 17.606 124.152 17.8596 124.005 18.0985V18.0985ZM127.026 18.0985C126.392 19.0342 125.707 19.9333 124.972 20.7915C124.972 20.7915 124.972 20.7915 124.972 20.7915C125.029 19.9547 125.202 19.1299 125.485 18.3405C125.763 17.3821 126.17 16.466 126.694 15.6172C126.95 15.1963 127.232 14.792 127.539 14.4069C127.842 14.074 128.023 13.9227 128.144 13.8925C128.264 13.8622 128.325 13.8925 128.446 14.2556C128.573 14.626 128.645 15.0137 128.657 15.4054C128.701 15.5638 128.701 15.7312 128.657 15.8896C128.188 16.7114 127.663 17.5 127.086 18.2498L127.026 18.0985ZM128.295 20.2469L128.536 19.7627C128.672 19.5043 128.834 19.2609 129.02 19.0365C128.841 19.5007 128.619 19.9465 128.355 20.3679L128.295 20.2469ZM128.295 19.3694V19.5812L129.322 17.9472C129.136 18.5121 128.861 19.0434 128.506 19.5207L128.295 19.3694ZM128.687 39.0681L129.382 37.3735C129.654 36.7381 129.775 36.4053 129.805 36.375C129.741 36.6619 129.66 36.9448 129.563 37.2223L128.959 38.7957C128.784 39.2803 128.582 39.7551 128.355 40.2179C128.203 40.6197 128.011 41.005 127.781 41.3678C128.108 40.6289 128.482 39.9113 128.899 39.2194L128.687 39.0681ZM126.241 38.009C125.472 40.7139 124.201 43.2494 122.495 45.483C122.102 45.9974 121.86 46.2697 121.77 46.2697C121.679 46.2697 121.77 46.2697 121.77 45.8461C122.032 42.2735 123.288 38.8459 125.395 35.9514C126.057 34.8022 126.783 33.691 127.57 32.6229C127.721 32.4111 127.781 32.29 127.811 32.29C127.811 32.4514 127.57 33.46 127.086 35.3159L126.241 38.009ZM127.539 43.032C127.721 42.6992 128.144 41.8519 128.748 40.5205C129.036 39.8586 129.359 39.2122 129.714 38.5839L129.443 39.3101C128.978 40.4861 128.433 41.6286 127.811 42.7294C127.655 43.0369 127.473 43.3305 127.268 43.6069L127.539 43.032ZM129.986 39.4917C129.443 40.6718 129.141 41.3678 128.989 41.6098V41.8519C128.696 42.5212 128.32 43.1513 127.872 43.728L128.113 43.3043C128.627 42.4268 129.322 41.0046 130.198 39.0983C130.355 38.6892 130.547 38.2943 130.772 37.9182C130.616 38.5045 130.425 39.0805 130.198 39.643L129.986 39.4917ZM132.312 16.7368C132.01 18.2195 131.587 20.9731 131.013 24.937C131.013 25.2396 131.013 25.3607 131.013 25.3607C131.002 25.2601 131.002 25.1586 131.013 25.0581C131.406 21.6993 131.829 19.0063 132.222 17.2815C132.285 16.8566 132.396 16.4403 132.554 16.0409C132.554 16.0409 132.584 16.4342 132.524 16.8881L132.312 16.7368Z" fill="white"/>
<path d="M58.9882 10.1645C60.5892 11.163 62.2507 12.0103 63.9423 12.8576C63.6101 13.4325 64.5163 13.8864 64.909 13.4325L65.9059 13.9469C66.359 14.1587 66.8121 13.4022 66.359 13.1601L65.5434 12.6457C66.6378 11.2245 67.6465 9.73921 68.5642 8.19764C69.2083 7.43465 69.6862 6.54524 69.9671 5.58644C70.248 4.62765 70.3258 3.62063 70.1955 2.62996C69.9604 1.76778 69.4111 1.02525 68.6561 0.549048C67.901 0.0728459 66.9951 -0.102398 66.1173 0.0579333C65.1434 0.352565 64.2736 0.919414 63.61 1.69193C63.0552 2.37427 62.5599 3.10318 62.1298 3.87058C61.569 3.26586 60.8665 2.81081 60.0858 2.54663C59.3052 2.28245 58.4711 2.21749 57.659 2.35763C56.8899 2.58233 56.2414 3.10389 55.8561 3.80755C55.4709 4.51121 55.3805 5.33934 55.6048 6.10976C55.8751 6.97517 56.313 7.77873 56.8936 8.47447C57.4741 9.17022 58.1859 9.7445 58.9882 10.1645V10.1645Z" fill="white"/>
<path d="M69.2892 12.3129C69.4085 12.3401 69.5324 12.3401 69.6517 12.3129C69.7432 12.3289 69.8371 12.3236 69.9261 12.2973C70.0152 12.2711 70.097 12.2246 70.1653 12.1616C70.8903 10.9815 71.6153 9.77111 72.31 8.56075C72.3662 8.49377 72.4072 8.4154 72.4302 8.33102C72.4533 8.24665 72.4578 8.15827 72.4434 8.07199C72.429 7.98571 72.3962 7.90357 72.3471 7.83124C72.298 7.7589 72.2338 7.69808 72.159 7.65297C71.9901 7.55105 71.7882 7.51931 71.5963 7.56455C71.4043 7.60978 71.2377 7.72839 71.1319 7.89505C70.4371 9.07515 69.7726 10.2553 69.108 11.4354C69.0163 11.5759 68.9839 11.7472 69.0179 11.9116C69.0519 12.076 69.1494 12.2203 69.2892 12.3129V12.3129Z" fill="white"/>
<path d="M54.5778 9.74101C54.722 9.73679 54.8606 9.68342 54.9705 9.58971C55.0618 9.48495 55.1122 9.35057 55.1122 9.21147C55.1122 9.07237 55.0618 8.93799 54.9705 8.83323C54.3454 8.11805 53.9458 7.23343 53.8222 6.291C53.6985 5.34857 53.8563 4.39056 54.2757 3.53788C54.3191 3.43499 54.3346 3.32247 54.3207 3.21165C54.3068 3.10084 54.2641 2.99564 54.1967 2.90666C54.1293 2.81768 54.0397 2.74807 53.9369 2.70483C53.8341 2.66159 53.7217 2.64625 53.6111 2.66037C53.5014 2.67099 53.3963 2.71006 53.3063 2.77373C53.2162 2.8374 53.1443 2.92348 53.0976 3.02348C52.605 4.08673 52.4313 5.27039 52.5975 6.43067C52.7637 7.59094 53.2628 8.67788 54.034 9.55945C54.1026 9.63244 54.1881 9.68724 54.283 9.71893C54.3779 9.75062 54.4792 9.7582 54.5778 9.74101Z" fill="white"/>
<path d="M72.7632 6.71502C72.8666 6.70376 72.9668 6.67204 73.0578 6.6217C73.1489 6.57136 73.2291 6.50339 73.2937 6.42176C73.3584 6.34012 73.4062 6.24643 73.4344 6.14613C73.4626 6.04584 73.4706 5.94093 73.458 5.8375C73.4352 5.64208 73.3372 5.46326 73.1849 5.33898C73.0327 5.21469 72.838 5.15473 72.6424 5.1718C72.3403 5.1718 72.008 5.47439 72.0382 5.77698C71.9707 5.798 71.9141 5.8445 71.8802 5.90663C71.8464 5.96876 71.8381 6.04164 71.8569 6.10983C71.9006 6.3085 72.0194 6.4825 72.1883 6.59534C72.3573 6.70817 72.5633 6.75107 72.7632 6.71502V6.71502ZM72.159 5.8375C72.159 5.50465 72.9142 5.47439 72.8538 5.8375C72.854 5.87992 72.8453 5.92191 72.8283 5.96074C72.8113 5.99957 72.7863 6.03439 72.7549 6.06292C72.7236 6.09145 72.6866 6.11307 72.6464 6.12636C72.6062 6.13966 72.5637 6.14434 72.5215 6.14009C72.3504 6.09023 72.2012 5.98352 72.0986 5.8375C72.0986 5.8375 72.159 5.86776 72.159 5.8375Z" fill="white"/>
<path d="M54.9403 10.7999C54.9403 11.1933 55.333 11.6169 55.7861 11.5564C55.9782 11.5196 56.1496 11.4124 56.2669 11.2557C56.3843 11.099 56.439 10.9041 56.4205 10.7092C56.393 10.516 56.2999 10.3383 56.1568 10.206C56.0137 10.0737 55.8294 9.99493 55.6351 9.98294C55.531 9.97539 55.4267 9.99249 55.3304 10.0328C55.2342 10.0732 55.1488 10.1357 55.0812 10.2152C55.0135 10.2948 54.9655 10.3891 54.941 10.4907C54.9166 10.5923 54.9163 10.6982 54.9403 10.7999V10.7999ZM56.058 10.7999C56.0557 10.8812 56.0283 10.9597 55.9796 11.0247C55.9309 11.0898 55.8633 11.1381 55.7861 11.163C55.6864 11.1504 55.5936 11.1049 55.5226 11.0337C55.4515 10.9625 55.406 10.8696 55.3934 10.7697V10.7697C55.3924 10.7282 55.4008 10.687 55.4181 10.6493C55.4353 10.6116 55.461 10.5783 55.493 10.5521C55.5251 10.5258 55.5627 10.5072 55.603 10.4977C55.6434 10.4882 55.6853 10.4881 55.7257 10.4973C55.8166 10.5172 55.8984 10.5665 55.9584 10.6376C56.0185 10.7087 56.0535 10.7977 56.058 10.8907V10.7999Z" fill="white"/>
</svg>
