<svg width="2900" height="344" viewBox="0 0 2900 344" fill="none" xmlns="http://www.w3.org/2000/svg">
<path d="M0 291.917V0H2900V268.603C2894.58 267.864 2890.72 267.454 2886.86 266.715C2862.21 262.364 2837.56 257.192 2812.92 253.744C2800.92 252.76 2788.85 252.76 2776.85 253.744C2771.1 253.744 2765.27 255.468 2759.6 255.14C2748.92 254.401 2738.32 252.677 2727.89 251.364C2723.54 273.939 2715.24 280.999 2692.81 278.372C2671.7 275.827 2650.91 270.984 2629.96 267.125C2625.85 266.017 2621.64 265.302 2617.39 264.991C2591.52 264.991 2565.64 266.058 2539.76 266.633C2527.91 267.143 2516.21 263.896 2506.32 257.357C2497.97 251.668 2488.3 248.219 2478.23 247.341C2465.19 247.192 2452.35 244.194 2440.6 238.558C2424.99 230.348 2415.38 234.289 2408.15 250.132C2406.68 253.408 2404.4 256.257 2401.53 258.411C2398.65 260.565 2395.28 261.953 2391.72 262.446C2380.91 265.355 2369.94 267.63 2358.86 269.26C2347.23 270.095 2335.55 269.655 2324.03 267.946C2316.29 266.319 2308.85 263.552 2301.93 259.737C2298.98 258.393 2295.75 257.759 2292.51 257.888C2289.27 258.016 2286.11 258.902 2283.28 260.476C2254.69 273.871 2223.58 281.062 2192.01 281.573C2174.01 281.573 2156.1 279.029 2138.11 278.454C2135.88 278.314 2133.65 278.66 2131.56 279.467C2129.48 280.275 2127.59 281.526 2126.04 283.133C2121.76 290.583 2115.57 296.752 2108.1 300.997C2100.63 305.241 2092.16 307.407 2083.56 307.268C2060.3 307.665 2037.03 306.623 2013.9 304.149C1998.12 302.589 1985.88 309.895 1972.82 315.395C1968.66 317.741 1964.29 319.692 1959.76 321.224C1939.59 324.537 1918.91 322.989 1899.46 316.709C1890.85 314.254 1882.01 312.659 1873.09 311.947C1848.92 310.552 1824.69 310.717 1800.55 312.44C1766.29 314.985 1731.7 312.44 1697.28 312.44C1693.91 312.637 1690.61 313.415 1687.5 314.738C1682 316.955 1676.66 321.798 1671.07 321.552C1647.91 320.731 1624.74 318.35 1601.57 316.709C1597.06 316.339 1592.53 316.339 1588.02 316.709C1579.8 317.53 1571.59 318.679 1563.86 319.828C1542.18 322.948 1520.49 325.903 1498.88 329.433C1495.06 330.317 1491.63 332.42 1489.1 335.425C1486.32 338.66 1482.75 341.117 1478.73 342.556C1474.71 343.995 1470.39 344.367 1466.18 343.635C1461.91 343.224 1457.97 343.635 1453.37 343.635C1411.06 343.635 1368.75 343.635 1326.52 342.485C1313.21 340.94 1300.07 338.192 1287.26 334.276C1276.49 331.813 1265.65 329.597 1254.97 327.052C1248.4 325.492 1241.91 323.522 1235.33 321.716C1229.68 319.448 1223.73 318.01 1217.67 317.447C1202.56 317.94 1186.95 313.014 1172.32 320.813C1171.04 321.227 1169.66 321.227 1168.38 320.813C1145.05 315.888 1121.55 311.373 1098.47 305.626C1080.8 301.193 1063.63 294.544 1046.05 289.783C1031.27 285.76 1014.92 285.432 1001.36 279.029C987.807 272.626 976.717 268.439 963.49 277.387C961.012 278.257 958.347 278.455 955.768 277.961C942.295 277.961 928.822 276.73 915.431 276.73C884.13 276.73 852.748 276.73 825.062 293.148C816.627 298.185 807.203 301.342 797.434 302.405C787.665 303.467 777.781 302.41 768.459 299.305C764.026 298.047 759.373 297.767 754.822 298.484C738.511 300.438 721.969 298.554 706.516 292.984C695.318 288.305 683.236 286.12 671.108 286.581C655.154 287.891 639.097 286.164 623.788 281.491C619.76 280.79 615.623 281.043 611.711 282.23C596.759 286.335 581.232 289.372 567.924 280.178C557.983 273.2 548.7 274.678 538.266 275.499C529.6 276.505 520.826 276.061 512.306 274.185C490.289 268.11 467.533 262.118 445.762 269.013C432.357 272.447 418.439 273.42 404.686 271.887C402.017 272.267 399.433 273.1 397.045 274.349C391.459 276.155 385.544 280.096 380.615 279.275C362.377 276.484 344.221 272.461 326.229 268.028C320.636 266.319 314.705 266.024 308.97 267.17C303.234 268.317 297.873 270.868 293.368 274.596C288.615 278.105 283.212 280.638 277.473 282.047C271.734 283.456 265.772 283.714 259.932 282.805C254.78 282.103 249.557 282.103 244.405 282.805C222.176 286.94 199.21 284.072 178.683 274.596C167.263 270.902 157.241 266.058 146.725 262.692C142.099 261.838 137.322 262.381 133.006 264.252C119.779 268.931 107.21 275.663 93.7365 279.111C76.6487 283.462 58.9037 284.857 41.5694 288.387C27.7677 291.342 14.2946 295.939 0 291.917Z" fill="white"/>
</svg>
