<svg width="202" height="112" viewBox="0 0 202 112" fill="none" xmlns="http://www.w3.org/2000/svg">
<g clip-path="url(#clip0_345_1138)">
<path d="M52.9632 35.0852C59.3525 35.0852 64.532 29.9077 64.532 23.5208C64.532 17.134 59.3525 11.9564 52.9632 11.9564C46.5739 11.9564 41.3943 17.134 41.3943 23.5208C41.3943 29.9077 46.5739 35.0852 52.9632 35.0852Z" fill="#FDC500"/>
<path d="M89.2418 59.1581H32.4885C32.4174 59.159 32.3464 59.1534 32.2764 59.1413L59.1181 12.6655C59.2819 12.376 59.5197 12.1353 59.807 11.9677C60.0944 11.8002 60.4211 11.7119 60.7538 11.7119C61.0865 11.7119 61.4132 11.8002 61.7006 11.9677C61.988 12.1353 62.2258 12.376 62.3896 12.6655L80.4037 43.8544L81.2667 45.3468L89.2418 59.1581Z" fill="#3F3D56"/>
<path opacity="0.2" d="M89.2418 59.1581H69.8647L79.3769 45.3467L80.0615 44.3518L80.4038 43.8545L81.2668 45.3467L89.2418 59.1581Z" fill="black"/>
<path d="M120.842 59.1581H71.7547L81.2668 45.3467L81.9513 44.3518L94.3464 26.353C95.159 25.1733 97.1139 25.0999 98.0693 26.1305C98.1335 26.2008 98.1931 26.2751 98.2478 26.353L120.842 59.1581Z" fill="#3F3D56"/>
<path d="M135.251 51.5122C137.176 51.5122 138.737 49.952 138.737 48.0275C138.737 46.1029 137.176 44.5427 135.251 44.5427C133.325 44.5427 131.765 46.1029 131.765 48.0275C131.765 49.952 133.325 51.5122 135.251 51.5122Z" fill="#006D77"/>
<path d="M135.587 58.5238H134.873L135.198 47.5027L135.587 58.5238Z" fill="#3F3D56"/>
<path d="M135.261 49.5915L136.028 48.5312L135.251 49.8539L135.167 49.707L135.261 49.5915Z" fill="#3F3D56"/>
<path d="M135.177 50.6619L134.411 49.6019L135.188 50.9244L135.272 50.7774L135.177 50.6619Z" fill="#3F3D56"/>
<path d="M167.229 51.5122C169.154 51.5122 170.715 49.952 170.715 48.0275C170.715 46.1029 169.154 44.5427 167.229 44.5427C165.304 44.5427 163.743 46.1029 163.743 48.0275C163.743 49.952 165.304 51.5122 167.229 51.5122Z" fill="#006D77"/>
<path d="M167.565 58.5238H166.851L167.177 47.5027L167.565 58.5238Z" fill="#3F3D56"/>
<path d="M167.239 49.5915L168.006 48.5312L167.229 49.8539L167.145 49.707L167.239 49.5915Z" fill="#3F3D56"/>
<path d="M167.156 50.6619L166.389 49.6019L167.166 50.9244L167.25 50.7774L167.156 50.6619Z" fill="#3F3D56"/>
<path d="M145.349 48.1683C148.193 48.1683 150.498 45.8641 150.498 43.0217C150.498 40.1792 148.193 37.875 145.349 37.875C142.506 37.875 140.201 40.1792 140.201 43.0217C140.201 45.8641 142.506 48.1683 145.349 48.1683Z" fill="#006D77"/>
<path d="M145.845 58.5238H144.791L145.272 42.2466L145.845 58.5238Z" fill="#3F3D56"/>
<path d="M145.365 45.3314L146.497 43.7659L145.349 45.7191L145.225 45.502L145.365 45.3314Z" fill="#3F3D56"/>
<path d="M145.241 46.9126L144.109 45.347L145.256 47.3001L145.38 47.0832L145.241 46.9126Z" fill="#3F3D56"/>
<path d="M157.905 48.1683C160.749 48.1683 163.054 45.8641 163.054 43.0217C163.054 40.1792 160.749 37.875 157.905 37.875C155.062 37.875 152.756 40.1792 152.756 43.0217C152.756 45.8641 155.062 48.1683 157.905 48.1683Z" fill="#006D77"/>
<path d="M158.401 58.5238H157.347L157.828 42.2466L158.401 58.5238Z" fill="#3F3D56"/>
<path d="M157.921 45.3314L159.053 43.7659L157.905 45.7191L157.781 45.502L157.921 45.3314Z" fill="#3F3D56"/>
<path d="M157.797 46.9126L156.664 45.347L157.812 47.3001L157.936 47.0832L157.797 46.9126Z" fill="#3F3D56"/>
<path d="M125.338 48.1683C128.182 48.1683 130.487 45.8641 130.487 43.0217C130.487 40.1792 128.182 37.875 125.338 37.875C122.495 37.875 120.19 40.1792 120.19 43.0217C120.19 45.8641 122.495 48.1683 125.338 48.1683Z" fill="#006D77"/>
<path d="M125.834 58.5238H124.78L125.261 42.2466L125.834 58.5238Z" fill="#3F3D56"/>
<path d="M125.354 45.3314L126.486 43.7659L125.338 45.7191L125.214 45.502L125.354 45.3314Z" fill="#3F3D56"/>
<path d="M125.23 46.9126L124.098 45.347L125.245 47.3001L125.369 47.0832L125.23 46.9126Z" fill="#3F3D56"/>
<path d="M186.252 112H18.2284C16.1114 112 14.0152 111.583 12.0594 110.773C10.1036 109.964 8.32648 108.777 6.82957 107.28C5.33266 105.784 4.14524 104.008 3.33512 102.052C2.525 100.097 2.10803 98.002 2.10803 95.8858C2.10803 93.7697 2.525 91.6743 3.33512 89.7192C4.14524 87.7642 5.33266 85.9878 6.82957 84.4914C8.32648 82.9951 10.1036 81.8081 12.0594 80.9983C14.0152 80.1885 16.1114 79.7717 18.2284 79.7717H185.88C187.524 79.7717 189.101 79.1187 190.264 77.9564C191.427 76.7941 192.08 75.2177 192.08 73.574C192.08 71.9302 191.427 70.3538 190.264 69.1915C189.101 68.0292 187.524 67.3762 185.88 67.3762H12.6482V57.4598H185.88C190.155 57.4598 194.255 59.1576 197.278 62.1796C200.302 65.2015 202 69.3002 202 73.574C202 77.8477 200.302 81.9464 197.278 84.9684C194.255 87.9904 190.155 89.6881 185.88 89.6881H18.2284C16.584 89.6881 15.007 90.3411 13.8442 91.5034C12.6815 92.6657 12.0282 94.2421 12.0282 95.8858C12.0282 97.5296 12.6815 99.106 13.8442 100.268C15.007 101.431 16.584 102.084 18.2284 102.084H186.252V112Z" fill="#E6E6E6"/>
<path d="M26.5365 62.1702H18.8484V62.666H26.5365V62.1702Z" fill="white"/>
<path d="M48.3609 62.1702H40.6728V62.666H48.3609V62.1702Z" fill="white"/>
<path d="M70.1854 62.1702H62.4972V62.666H70.1854V62.1702Z" fill="white"/>
<path d="M92.0098 62.1702H84.3217V62.666H92.0098V62.1702Z" fill="white"/>
<path d="M113.834 62.1702H106.146V62.666H113.834V62.1702Z" fill="white"/>
<path d="M135.659 62.1702H127.971V62.666H135.659V62.1702Z" fill="white"/>
<path d="M157.483 62.1702H149.795V62.666H157.483V62.1702Z" fill="white"/>
<path d="M179.308 62.1702H171.619V62.666H179.308V62.1702Z" fill="white"/>
<path d="M26.5365 84.4821H18.8484V84.9779H26.5365V84.4821Z" fill="white"/>
<path d="M48.3609 84.4821H40.6728V84.9779H48.3609V84.4821Z" fill="white"/>
<path d="M70.1854 84.4821H62.4972V84.9779H70.1854V84.4821Z" fill="white"/>
<path d="M92.0098 84.4821H84.3217V84.9779H92.0098V84.4821Z" fill="white"/>
<path d="M113.834 84.4821H106.146V84.9779H113.834V84.4821Z" fill="white"/>
<path d="M135.659 84.4821H127.971V84.9779H135.659V84.4821Z" fill="white"/>
<path d="M157.483 84.4821H149.795V84.9779H157.483V84.4821Z" fill="white"/>
<path d="M179.308 84.4821H171.619V84.9779H179.308V84.4821Z" fill="white"/>
<path d="M26.5365 106.794H18.8484V107.29H26.5365V106.794Z" fill="white"/>
<path d="M48.3609 106.794H40.6728V107.29H48.3609V106.794Z" fill="white"/>
<path d="M70.1854 106.794H62.4972V107.29H70.1854V106.794Z" fill="white"/>
<path d="M92.0098 106.794H84.3217V107.29H92.0098V106.794Z" fill="white"/>
<path d="M113.834 106.794H106.146V107.29H113.834V106.794Z" fill="white"/>
<path d="M135.659 106.794H127.971V107.29H135.659V106.794Z" fill="white"/>
<path d="M157.483 106.794H149.795V107.29H157.483V106.794Z" fill="white"/>
<path d="M179.308 106.794H171.619V107.29H179.308V106.794Z" fill="white"/>
<path d="M134.887 19.6771C135.695 19.6764 136.489 19.8816 137.195 20.2734H132.584C133.289 19.8817 134.081 19.6765 134.887 19.6771V19.6771Z" fill="#E6E6E6"/>
<path d="M125.939 19.0808C127.289 19.0792 128.605 19.4959 129.708 20.2734H122.176C123.277 19.4968 124.592 19.0802 125.939 19.0808Z" fill="#E6E6E6"/>
<path d="M75.2554 11.5325C75.4191 8.64026 76.605 5.9001 78.6017 3.80057C80.5985 1.70105 83.2763 0.37865 86.1577 0.069138C89.0391 -0.240374 91.9368 0.483122 94.3342 2.11064C96.7316 3.73815 98.4729 6.16389 99.2475 8.95537C99.3957 8.95005 99.5437 8.9441 99.6931 8.9441C102.335 8.94459 104.906 9.80013 107.021 11.3827C109.136 12.9653 110.681 15.1899 111.426 17.7236C113.177 16.9547 115.133 16.7879 116.988 17.2493C118.844 17.7107 120.494 18.7742 121.68 20.2734H83.5363C82.4235 20.2765 81.3215 20.0552 80.2963 19.6226C79.2711 19.19 78.3437 18.5551 77.5698 17.7558C76.7958 16.9565 76.1912 16.0094 75.792 14.971C75.3929 13.9327 75.2074 12.8245 75.2468 11.7128C75.2492 11.6528 75.2521 11.5927 75.2554 11.5325Z" fill="#E6E6E6"/>
<path d="M137.67 28.6019C136.863 28.6012 136.068 28.8064 135.362 29.1982H139.973C139.269 28.8065 138.476 28.6013 137.67 28.6019Z" fill="#E6E6E6"/>
<path d="M146.618 28.0056C145.269 28.004 143.952 28.4207 142.85 29.1982H150.381C149.28 28.4216 147.965 28.005 146.618 28.0056Z" fill="#E6E6E6"/>
<path d="M197.302 20.4573C197.138 17.5651 195.952 14.8249 193.956 12.7254C191.959 10.6259 189.281 9.30345 186.4 8.99394C183.518 8.68443 180.621 9.40793 178.223 11.0354C175.826 12.663 174.085 15.0887 173.31 17.8802C173.162 17.8749 173.014 17.8689 172.864 17.8689C170.222 17.8694 167.652 18.7249 165.537 20.3075C163.422 21.8901 161.876 24.1147 161.131 26.6484C159.381 25.8795 157.425 25.7127 155.569 26.1741C153.713 26.6355 152.063 27.699 150.877 29.1982H189.021C190.134 29.2013 191.236 28.98 192.261 28.5474C193.286 28.1148 194.214 27.4799 194.988 26.6806C195.762 25.8813 196.366 24.9342 196.765 23.8958C197.165 22.8575 197.35 21.7493 197.311 20.6376C197.308 20.5776 197.305 20.5175 197.302 20.4573Z" fill="#E6E6E6"/>
<path d="M171.872 105.07L176.305 105.073L176.305 104.369L171.872 104.367L171.872 105.07Z" fill="#3F3D56"/>
<path d="M139.819 104.526L140.733 104.737L175.496 104.756L175.808 104.028C176.354 102.779 176.541 101.403 176.349 100.054C176.199 99.0487 175.824 98.0496 174.972 97.6156L173.429 87.3448L154.197 87.3104L146.756 93.3097C146.756 93.3097 143.246 93.2466 141.339 95.6196C140.651 96.502 140.245 97.571 140.174 98.6873L140.098 99.9218L139.819 104.526Z" fill="#006D77"/>
<path d="M147.454 108.645C149.825 108.645 151.746 106.724 151.746 104.354C151.746 101.984 149.825 100.063 147.454 100.063C145.083 100.063 143.161 101.984 143.161 104.354C143.161 106.724 145.083 108.645 147.454 108.645Z" fill="#3F3D56"/>
<path d="M147.454 106.612C148.702 106.612 149.713 105.601 149.713 104.354C149.713 103.107 148.702 102.095 147.454 102.095C146.206 102.095 145.195 103.107 145.195 104.354C145.195 105.601 146.206 106.612 147.454 106.612Z" fill="#CCCCCC"/>
<path d="M168.635 108.656C171.006 108.656 172.928 106.735 172.928 104.365C172.928 101.995 171.006 100.074 168.635 100.074C166.264 100.074 164.342 101.995 164.342 104.365C164.342 106.735 166.264 108.656 168.635 108.656Z" fill="#3F3D56"/>
<path d="M168.635 106.623C169.883 106.623 170.894 105.612 170.894 104.365C170.894 103.118 169.883 102.107 168.635 102.107C167.387 102.107 166.376 103.118 166.376 104.365C166.376 105.612 167.387 106.623 168.635 106.623Z" fill="#CCCCCC"/>
<path d="M149.712 92.6086L160.096 92.6129H161.364L163.504 92.6145V92.4584L163.505 90.5772L163.507 88.4649H162.083L160.816 88.4635L158.57 88.4619H157.303L154.711 88.4603L149.712 92.6086Z" fill="white"/>
<path d="M165.194 92.616L170.681 92.619L170.683 91.5426V89.6613L170.684 88.4694H169.881L168.613 88.4678L165.195 88.4664L165.194 92.616Z" fill="white"/>
<path d="M162.798 97.0464L163.502 97.0468L163.503 95.7102L162.799 95.7099L162.798 97.0464Z" fill="#3F3D56"/>
<path d="M152.526 94.5085L152.526 93.8051L151.189 93.8043L151.189 94.5078L152.526 94.5085Z" fill="#3F3D56"/>
<path d="M152.033 94.1144L151.956 94.1143C151.763 94.1142 151.572 94.0761 151.393 94.0021C151.215 93.9281 151.053 93.8198 150.916 93.6832C150.78 93.5466 150.671 93.3845 150.598 93.2061C150.524 93.0277 150.486 92.8365 150.486 92.6434V92.6434C150.486 92.4503 150.524 92.2592 150.598 92.0809C150.672 91.9025 150.781 91.7405 150.917 91.6041C151.054 91.4676 151.216 91.3594 151.395 91.2856C151.573 91.2118 151.764 91.1739 151.957 91.174L152.035 91.1741L152.033 94.1144Z" fill="#3F3D56"/>
<path d="M140.098 99.9218C140.631 99.9797 141.166 99.8479 141.611 99.5498C142.055 99.2518 142.38 98.8064 142.528 98.2922C142.677 97.7781 142.639 97.2281 142.421 96.7392C142.204 96.2503 141.82 95.8538 141.339 95.6196C140.651 96.502 140.245 97.571 140.174 98.6873L140.098 99.9218Z" fill="#3F3D56"/>
<path d="M160.816 88.4635L163.504 92.4584L163.505 90.5771L162.083 88.4649L160.816 88.4635Z" fill="#F2F2F2"/>
<path d="M168.613 88.4678L170.683 91.5426V89.6613L169.881 88.4694L168.613 88.4678Z" fill="#F2F2F2"/>
<path d="M157.303 88.4619L160.096 92.6129H161.364L158.57 88.4619H157.303Z" fill="#F2F2F2"/>
<path d="M11.4082 70.847C17.7088 70.847 22.8165 65.7413 22.8165 59.4432C22.8165 53.145 17.7088 48.0393 11.4082 48.0393C5.10764 48.0393 0 53.145 0 59.4432C0 65.7413 5.10764 70.847 11.4082 70.847Z" fill="#3F3D56"/>
<path d="M11.4557 62.8764L5.74661 57.1695C5.5609 56.9835 5.45667 56.7313 5.45682 56.4685C5.45696 56.2057 5.56147 55.9537 5.74739 55.7678C5.93331 55.582 6.18543 55.4775 6.44835 55.4774C6.71128 55.4772 6.96351 55.5814 7.14963 55.767L11.3608 59.9765L24.7987 44.6586C24.9723 44.4613 25.2171 44.3409 25.4794 44.3239C25.7417 44.3068 26 44.3946 26.1976 44.5678C26.3953 44.7411 26.516 44.9856 26.5334 45.2478C26.5508 45.51 26.4634 45.7683 26.2903 45.9661L11.4557 62.8764Z" fill="#006D77"/>
</g>
<defs>
<clipPath id="clip0_345_1138">
<rect width="202" height="112" fill="white"/>
</clipPath>
</defs>
</svg>
