<svg width="161" height="112" viewBox="0 0 161 112" fill="none" xmlns="http://www.w3.org/2000/svg">
<g clip-path="url(#clip0_345_1215)">
<path d="M33.6549 4.62671L34.3582 62.5458L64.7502 77.3227L64.0468 19.4037L33.6549 4.62671Z" fill="#F2F2F2"/>
<path d="M24.4193 0L1.70977 46.5353L32.5235 61.5175L31.8201 3.59836L24.4193 0Z" fill="#F2F2F2"/>
<path d="M161 65.3741L99.6643 35.552L100.368 93.471L138.29 111.909L161 65.3741Z" fill="#F2F2F2"/>
<path d="M66.7943 19.4038L67.4976 77.3228L97.8898 92.0998L97.1864 34.1808L66.7943 19.4038Z" fill="#F2F2F2"/>
<path d="M77.3579 65.6365L76.4993 84.8332C76.4993 84.8332 78.7316 103.002 78.2165 103.516C77.7013 104.03 76.3276 105.058 77.3579 106.258C78.3882 107.458 82.1659 108.315 82.3376 107.629C82.5094 106.944 82.8528 87.4042 82.8528 87.4042L84.0548 64.2653L77.3579 65.6365Z" fill="#2F2E41"/>
<path opacity="0.2" d="M77.3579 65.6365L76.4993 84.8332C76.4993 84.8332 78.7316 103.002 78.2165 103.516C77.7013 104.03 76.3276 105.058 77.3579 106.258C78.3882 107.458 82.1659 108.315 82.3376 107.629C82.5094 106.944 82.8528 87.4042 82.8528 87.4042L84.0548 64.2653L77.3579 65.6365Z" fill="black"/>
<path d="M78.2165 105.915C78.2165 105.915 73.9236 109.172 73.4084 109.172C72.8933 109.172 68.257 110.714 71.5196 111.4C74.7822 112.086 82.6811 111.743 82.8528 110.714C83.0245 109.686 82.3377 106.565 82.3377 106.565L78.2165 105.915Z" fill="#2F2E41"/>
<path opacity="0.2" d="M78.2165 105.915C78.2165 105.915 73.9236 109.172 73.4084 109.172C72.8933 109.172 68.257 110.714 71.5196 111.4C74.7822 112.086 82.6811 111.743 82.8528 110.714C83.0245 109.686 82.3377 106.565 82.3377 106.565L78.2165 105.915Z" fill="black"/>
<path d="M67.5701 51.2389C67.5701 51.2389 65.6812 51.9245 65.6812 52.4387C65.6812 52.9529 63.9641 59.4661 63.6206 59.8089C63.2772 60.1517 63.1055 61.6943 63.1055 61.6943C63.1055 61.6943 61.3883 65.6364 61.7318 65.6364C62.0752 65.6364 64.9944 64.9508 65.1661 65.6364C65.3378 66.322 66.7115 61.3515 66.7115 61.3515L69.6307 55.5239L67.5701 51.2389Z" fill="#4361EE"/>
<path d="M61.7318 66.3221C61.7318 66.3221 62.2469 70.0929 63.6206 70.4357C64.9944 70.7785 63.6206 65.6365 63.6206 65.6365L61.7318 66.3221Z" fill="#FFB8B8"/>
<path d="M66.1964 49.1821C66.1964 49.1821 67.2267 51.4103 67.7418 52.6101C68.257 53.8099 73.065 49.5249 73.065 49.5249C73.065 49.5249 70.4893 47.6395 70.4893 46.7825C70.4893 45.9255 66.1964 49.1821 66.1964 49.1821Z" fill="#FFB8B8"/>
<path d="M16.6631 104.896C17.8147 109.146 21.7592 111.777 21.7592 111.777C21.7592 111.777 23.8365 107.52 22.6849 103.27C21.5333 99.0214 17.5889 96.3898 17.5889 96.3898C17.5889 96.3898 15.5116 100.647 16.6631 104.896Z" fill="#3F3D56"/>
<path d="M18.3553 103.983C21.5153 107.054 21.9012 111.774 21.9012 111.774C21.9012 111.774 17.1639 111.515 14.0039 108.445C10.844 105.375 10.458 100.655 10.458 100.655C10.458 100.655 15.1954 100.913 18.3553 103.983Z" fill="#4361EE"/>
<path d="M57.6106 111.914C54.52 111.914 51.4989 111 48.9292 109.286C46.3595 107.572 44.3566 105.136 43.1739 102.286C41.9912 99.4358 41.6818 96.2997 42.2847 93.2741C42.8877 90.2485 44.3759 87.4693 46.5613 85.288C48.7466 83.1066 51.5309 81.6211 54.5621 81.0193C57.5933 80.4175 60.7352 80.7264 63.5905 81.9069C66.4458 83.0874 68.8862 85.0866 70.6032 87.6515C72.3203 90.2165 73.2367 93.2321 73.2367 96.317C73.232 100.452 71.5842 104.417 68.6548 107.341C65.7253 110.265 61.7535 111.91 57.6106 111.914ZM57.6106 81.0624C54.588 81.0624 51.6332 81.9571 49.12 83.6333C46.6068 85.3095 44.6479 87.6919 43.4912 90.4793C42.3345 93.2667 42.0319 96.3339 42.6216 99.293C43.2112 102.252 44.6668 104.97 46.8041 107.104C48.9414 109.237 51.6645 110.69 54.6291 111.278C57.5936 111.867 60.6665 111.565 63.459 110.41C66.2516 109.256 68.6384 107.301 70.3177 104.792C71.997 102.283 72.8933 99.334 72.8933 96.317C72.8887 92.2726 71.2771 88.3952 68.412 85.5354C65.547 82.6756 61.6624 81.067 57.6106 81.0624Z" fill="#2F2E41"/>
<path d="M105.691 111.914C102.6 111.914 99.5793 111 97.0096 109.286C94.4399 107.572 92.437 105.136 91.2543 102.286C90.0716 99.4358 89.7622 96.2997 90.3651 93.2741C90.968 90.2485 92.4563 87.4693 94.6416 85.288C96.827 83.1066 99.6113 81.6211 102.642 81.0193C105.674 80.4175 108.816 80.7264 111.671 81.9069C114.526 83.0874 116.967 85.0866 118.684 87.6515C120.401 90.2165 121.317 93.2321 121.317 96.317C121.312 100.452 119.665 104.417 116.735 107.341C113.806 110.265 109.834 111.91 105.691 111.914ZM105.691 81.0624C102.668 81.0624 99.7136 81.9571 97.2004 83.6333C94.6871 85.3095 92.7283 87.6919 91.5716 90.4793C90.4149 93.2667 90.1123 96.3339 90.7019 99.293C91.2916 102.252 92.7472 104.97 94.8845 107.104C97.0218 109.237 99.7449 110.69 102.709 111.278C105.674 111.867 108.747 111.565 111.539 110.41C114.332 109.256 116.719 107.301 118.398 104.792C120.077 102.283 120.974 99.334 120.974 96.317C120.969 92.2726 119.358 88.3952 116.492 85.5354C113.627 82.6756 109.743 81.067 105.691 81.0624Z" fill="#2F2E41"/>
<path d="M57.6106 97.3454C58.1796 97.3454 58.6409 96.8849 58.6409 96.317C58.6409 95.749 58.1796 95.2886 57.6106 95.2886C57.0416 95.2886 56.5803 95.749 56.5803 96.317C56.5803 96.8849 57.0416 97.3454 57.6106 97.3454Z" fill="#2F2E41"/>
<path d="M106.034 97.3454C106.603 97.3454 107.065 96.8849 107.065 96.317C107.065 95.749 106.603 95.2886 106.034 95.2886C105.465 95.2886 105.004 95.749 105.004 96.317C105.004 96.8849 105.465 97.3454 106.034 97.3454Z" fill="#2F2E41"/>
<path d="M59.1423 94.8417L58.8263 94.7071L67.8011 73.6899L93.251 74.2083L93.3003 74.2854L105.836 93.8249L105.546 94.0099L93.0604 74.5475L68.026 74.0374L59.1423 94.8417Z" fill="#2F2E41"/>
<path d="M85.8793 98.748L92.4754 75.5309L92.8058 75.6243L86.3515 98.3423L103.609 96.1468L103.652 96.487L85.8793 98.748Z" fill="#2F2E41"/>
<path d="M67.1775 78.8856L66.9324 79.1256L84.6191 97.1225L84.8643 96.8825L67.1775 78.8856Z" fill="#2F2E41"/>
<path d="M94.1913 70.0476L93.1626 73.8188L93.4939 73.9089L94.5226 70.1377L94.1913 70.0476Z" fill="#2F2E41"/>
<path d="M68.4246 72.7018L68.0894 72.6258L68.9004 69.0645H66.0247V66.8363H66.3681V68.7217H69.3307L68.4246 72.7018Z" fill="#2F2E41"/>
<path d="M88.0043 66.6649C88.0043 66.6649 88.0043 65.6365 90.2366 66.1507C92.4689 66.6649 99.3375 68.0361 99.8527 67.8647C100.368 67.6933 100.196 68.8931 97.9638 69.4073C95.7315 69.9215 93.1557 68.7217 92.6406 68.3789C92.1254 68.0361 88.0043 66.6649 88.0043 66.6649Z" fill="#2F2E41"/>
<path d="M81.8225 97.3453H77.3579V99.0593H81.8225V97.3453Z" fill="#4361EE"/>
<path d="M86.1154 101.973C85.4361 101.973 84.7722 101.772 84.2074 101.395C83.6426 101.019 83.2024 100.483 82.9425 99.857C82.6826 99.2306 82.6146 98.5414 82.7471 97.8764C82.8796 97.2114 83.2067 96.6006 83.687 96.1212C84.1673 95.6418 84.7792 95.3153 85.4454 95.1831C86.1116 95.0508 86.8021 95.1187 87.4296 95.3781C88.0572 95.6376 88.5935 96.077 88.9709 96.6407C89.3483 97.2044 89.5497 97.8672 89.5497 98.5452C89.5487 99.454 89.1865 100.325 88.5427 100.968C87.8989 101.611 87.0259 101.972 86.1154 101.973ZM86.1154 95.46C85.5041 95.46 84.9065 95.6409 84.3982 95.9799C83.8899 96.3189 83.4937 96.8008 83.2598 97.3645C83.0258 97.9283 82.9646 98.5486 83.0839 99.1471C83.2032 99.7455 83.4975 100.295 83.9298 100.727C84.3621 101.158 84.9128 101.452 85.5124 101.571C86.112 101.69 86.7334 101.629 87.2982 101.396C87.863 101.162 88.3457 100.767 88.6854 100.259C89.025 99.7519 89.2063 99.1554 89.2063 98.5452C89.2053 97.7272 88.8794 96.943 88.2999 96.3647C87.7205 95.7863 86.9348 95.4609 86.1154 95.46Z" fill="#2F2E41"/>
<path d="M67.7418 50.8961C70.0179 50.8961 71.863 49.0544 71.863 46.7825C71.863 44.5107 70.0179 42.6689 67.7418 42.6689C65.4658 42.6689 63.6206 44.5107 63.6206 46.7825C63.6206 49.0544 65.4658 50.8961 67.7418 50.8961Z" fill="#FFB8B8"/>
<path d="M80.7922 65.9793C80.7922 65.9793 68.9438 72.8353 69.1155 75.0635C69.2873 77.2917 78.2165 89.461 78.2165 89.461C78.2165 89.461 78.9033 93.0604 79.5902 93.0604C80.2771 93.0604 84.57 94.603 84.7417 93.5746C84.9134 92.5462 83.3679 91.3464 83.5397 90.6608C83.7114 89.9752 75.9842 77.4631 75.9842 77.4631C75.9842 77.4631 92.5216 71.2927 89.0609 65.9793C85.6003 60.6659 80.7922 65.9793 80.7922 65.9793Z" fill="#2F2E41"/>
<path d="M81.1356 92.3748C81.1356 92.3748 79.0751 92.889 78.7316 93.5746C78.3882 94.2601 72.3781 96.4883 74.0953 97.0025C75.8125 97.5167 85.772 97.6881 86.1154 97.3453C86.4588 97.0025 86.1154 93.0239 84.7417 93.0421C83.3679 93.0604 81.8225 93.5746 81.1356 92.3748Z" fill="#2F2E41"/>
<path d="M67.7418 53.1243L71.6054 48.4109C71.6054 48.4109 75.9842 47.1254 77.873 49.6963C79.7619 52.2673 84.9134 58.6091 86.6305 59.9803C88.3477 61.3515 90.7517 66.6649 89.8931 66.8363C89.0346 67.0077 84.2265 64.9509 82.3377 66.3221C80.4488 67.6933 76.8428 67.8647 76.671 67.1791C76.4993 66.4935 66.1964 55.0097 66.1964 53.4671C66.1964 51.9245 67.2943 51.5935 67.2943 51.5935L67.7418 53.1243Z" fill="#4361EE"/>
<path d="M69.817 66.7513L64.6363 64.9231C64.3681 64.8284 64.0738 64.9688 63.9789 65.2365C63.8841 65.5042 64.0247 65.798 64.2929 65.8927L69.4736 67.7209C69.7418 67.8156 70.0361 67.6752 70.131 67.4075C70.2258 67.1398 70.0852 66.846 69.817 66.7513Z" fill="#2F2E41"/>
<path d="M58.1257 64.608C58.1257 64.608 52.1157 66.322 52.6308 68.2074C53.146 70.0928 58.6409 65.9792 58.6409 65.9792L58.1257 64.608Z" fill="#FFB8B8"/>
<path d="M73.7519 49.6963C73.7519 49.6963 71.3478 51.7531 70.8327 54.1527C70.3176 56.5523 67.7418 60.8373 67.7418 60.8373L57.2672 64.2653C57.2672 64.2653 56.5803 67.5219 57.6106 67.5219C58.6409 67.5219 70.1458 65.1223 70.4893 64.6081C70.8327 64.0939 78.2165 54.3241 78.2165 54.3241C78.2165 54.3241 78.9033 49.0107 73.7519 49.6963Z" fill="#4361EE"/>
<path d="M65.1822 42.0213C65.0806 42.1086 64.959 42.1695 64.8282 42.1986C64.7625 42.2103 64.6949 42.1956 64.6401 42.1576C64.5852 42.1197 64.5476 42.0617 64.5355 41.9962C64.4599 42.2059 64.3192 42.386 64.1339 42.5103C63.9373 42.6126 63.6332 42.5269 63.6049 42.3074C63.5762 42.474 63.5023 42.6297 63.3913 42.7574C63.3334 42.8185 63.2537 42.8544 63.1695 42.8572C63.0853 42.86 63.0034 42.8295 62.9415 42.7724C63.0276 43.2422 62.9745 43.7252 63.0015 44.202C63.0286 44.6787 63.1559 45.1842 63.5168 45.4977C64.0431 45.9549 64.8345 45.842 65.5268 45.7554C65.6315 45.7335 65.7401 45.7394 65.8418 45.7726C66.101 45.8829 66.0892 46.243 66.0927 46.5242C66.1139 47.0177 66.3095 47.4876 66.6449 47.8507C66.9803 48.2138 67.4338 48.4465 67.9248 48.5075C68.1996 48.5498 68.4799 48.4815 68.7043 48.3176C68.9008 48.1513 69.0012 47.8802 69.2265 47.7553C69.5928 47.5521 70.0372 47.8484 70.305 48.1702C70.5729 48.492 70.8369 48.8878 71.2519 48.9467C71.8007 49.0246 72.2187 48.4663 72.4238 47.9523C72.7067 47.2318 72.8422 46.4621 72.8224 45.6885C72.8026 44.9149 72.6278 44.1531 72.3083 43.4479C71.1624 40.9546 67.2479 40.5602 65.1822 42.0213Z" fill="#2F2E41"/>
<path d="M137.697 111.907L137.392 111.75C141.355 104.101 139.236 94.1686 136.76 87.1829C135.079 82.4875 132.935 77.9704 130.359 73.6981L130.649 73.515C133.238 77.809 135.394 82.3491 137.084 87.0685C139.582 94.1181 141.717 104.15 137.697 111.907Z" fill="#2F2E41"/>
<path d="M140.636 73.5763L138.408 85.7465L138.746 85.8081L140.974 73.6379L140.636 73.5763Z" fill="#2F2E41"/>
<path d="M125.822 83.9451L125.57 84.1787L137.075 96.5195L137.327 96.2859L125.822 83.9451Z" fill="#2F2E41"/>
<path d="M146.505 97.5011L140.669 105.559L140.947 105.76L146.783 97.702L146.505 97.5011Z" fill="#2F2E41"/>
<path d="M141.665 70.35C142.614 70.35 143.383 69.5826 143.383 68.636C143.383 67.6894 142.614 66.922 141.665 66.922C140.717 66.922 139.948 67.6894 139.948 68.636C139.948 69.5826 140.717 70.35 141.665 70.35Z" fill="#4361EE"/>
<path d="M122.948 83.5477C123.897 83.5477 124.666 82.7804 124.666 81.8337C124.666 80.8871 123.897 80.1198 122.948 80.1198C122 80.1198 121.231 80.8871 121.231 81.8337C121.231 82.7804 122 83.5477 122.948 83.5477Z" fill="#3F3D56"/>
<path d="M130.504 85.2617C131.452 85.2617 132.221 84.4943 132.221 83.5477C132.221 82.6011 131.452 81.8337 130.504 81.8337C129.556 81.8337 128.787 82.6011 128.787 83.5477C128.787 84.4943 129.556 85.2617 130.504 85.2617Z" fill="#3F3D56"/>
<path d="M127.07 91.9463C128.018 91.9463 128.787 91.1789 128.787 90.2323C128.787 89.2857 128.018 88.5183 127.07 88.5183C126.121 88.5183 125.352 89.2857 125.352 90.2323C125.352 91.1789 126.121 91.9463 127.07 91.9463Z" fill="#4361EE"/>
<path d="M148.534 96.2312C149.482 96.2312 150.251 95.4638 150.251 94.5172C150.251 93.5706 149.482 92.8032 148.534 92.8032C147.586 92.8032 146.817 93.5706 146.817 94.5172C146.817 95.4638 147.586 96.2312 148.534 96.2312Z" fill="#3F3D56"/>
<path d="M142.867 98.1167C143.816 98.1167 144.585 97.3493 144.585 96.4027C144.585 95.4561 143.816 94.6887 142.867 94.6887C141.919 94.6887 141.15 95.4561 141.15 96.4027C141.15 97.3493 141.919 98.1167 142.867 98.1167Z" fill="#3F3D56"/>
<path d="M146.817 103.601C147.765 103.601 148.534 102.834 148.534 101.887C148.534 100.941 147.765 100.173 146.817 100.173C145.869 100.173 145.1 100.941 145.1 101.887C145.1 102.834 145.869 103.601 146.817 103.601Z" fill="#3F3D56"/>
<path d="M128.787 72.4067C129.735 72.4067 130.504 71.6394 130.504 70.6928C130.504 69.7461 129.735 68.9788 128.787 68.9788C127.838 68.9788 127.07 69.7461 127.07 70.6928C127.07 71.6394 127.838 72.4067 128.787 72.4067Z" fill="#3F3D56"/>
<path d="M155.059 111.657H0V112H155.059V111.657Z" fill="#2F2E41"/>
<path d="M26.6048 76.1651L12.0312 67.7665L3.61715 82.3132L18.1907 90.7118L26.6048 76.1651Z" fill="#F2F2F2"/>
<path d="M18.5453 93.6367C17.7981 93.6367 17.0677 93.4155 16.4465 93.0012C15.8252 92.5868 15.341 91.9979 15.0551 91.3089C14.7692 90.6199 14.6944 89.8617 14.8401 89.1302C14.9859 88.3988 15.3457 87.7269 15.874 87.1995C16.4024 86.6722 17.0755 86.313 17.8083 86.1675C18.5411 86.0221 19.3007 86.0967 19.991 86.3821C20.6813 86.6675 21.2713 87.1508 21.6864 87.7709C22.1015 88.391 22.323 89.1201 22.323 89.8659C22.3219 90.8656 21.9235 91.8241 21.2153 92.531C20.5071 93.2379 19.5469 93.6355 18.5453 93.6367ZM18.5453 86.4379C17.8661 86.4379 17.2021 86.6389 16.6373 87.0156C16.0725 87.3923 15.6323 87.9277 15.3724 88.554C15.1125 89.1804 15.0445 89.8697 15.177 90.5346C15.3095 91.1996 15.6366 91.8104 16.1169 92.2898C16.5972 92.7692 17.2091 93.0957 17.8753 93.228C18.5415 93.3603 19.232 93.2924 19.8595 93.0329C20.4871 92.7735 21.0235 92.3341 21.4008 91.7704C21.7782 91.2066 21.9796 90.5439 21.9796 89.8659C21.9786 88.957 21.6164 88.0857 20.9726 87.443C20.3288 86.8004 19.4558 86.4389 18.5453 86.4379Z" fill="#3F3D56"/>
</g>
<defs>
<clipPath id="clip0_345_1215">
<rect width="161" height="112" fill="white"/>
</clipPath>
</defs>
</svg>
