<svg width="146" height="112" viewBox="0 0 146 112" fill="none" xmlns="http://www.w3.org/2000/svg">
<g clip-path="url(#clip0_345_1266)">
<path d="M64.8533 25.4673C58.8438 25.4719 52.8761 24.4791 47.1975 22.5303C39.5848 19.9219 33.3483 16.3241 28.6613 11.8369C19.7954 3.34877 12.5267 2.06957 7.99112 2.49078C3.08142 2.94695 0.223591 5.43841 0.195312 5.46353L0 5.24776C0.0288495 5.22207 2.94559 2.67407 7.94484 2.20396C10.8765 1.92846 13.9423 2.40848 17.0573 3.63114C20.9418 5.15583 24.9143 7.8465 28.8646 11.6284C33.5207 16.0861 39.7209 19.6619 47.2931 22.2562C61.1939 27.0189 76.8606 25.8658 90.2761 19.0925C94.718 16.8497 99.1081 15.3189 103.324 14.5425C108.641 13.5632 113.683 13.7905 118.312 15.2176C128.484 18.3535 135.431 18.1872 139.469 17.4958C143.825 16.7497 145.801 15.2565 145.82 15.2415L146 15.4703C145.918 15.5334 143.946 17.0231 139.518 17.7815C135.449 18.4785 128.452 18.6474 118.225 15.4943C107.871 12.3023 97.3832 15.8294 90.409 19.3507C83.7781 22.7163 76.5376 24.7405 69.1094 25.3052C67.6856 25.4132 66.2669 25.4672 64.8533 25.4673Z" fill="#3F3D56"/>
<path d="M64.2628 29.0641C65.8999 29.0641 67.227 27.749 67.227 26.1267C67.227 24.5044 65.8999 23.1892 64.2628 23.1892C62.6258 23.1892 61.2986 24.5044 61.2986 26.1267C61.2986 27.749 62.6258 29.0641 64.2628 29.0641Z" fill="#006D77"/>
<path d="M110.186 17.3246C111.823 17.3246 113.15 16.0095 113.15 14.3872C113.15 12.7648 111.823 11.4497 110.186 11.4497C108.549 11.4497 107.222 12.7648 107.222 14.3872C107.222 16.0095 108.549 17.3246 110.186 17.3246Z" fill="#006D77"/>
<path d="M14.6837 5.8749C16.3207 5.8749 17.6478 4.55976 17.6478 2.93745C17.6478 1.31514 16.3207 0 14.6837 0C13.0466 0 11.7195 1.31514 11.7195 2.93745C11.7195 4.55976 13.0466 5.8749 14.6837 5.8749Z" fill="#006D77"/>
<path d="M85.5195 70.2173V98.599H90.0226V72.7163H108.035V98.599H112.538V41.8356H108.035C106.543 41.8356 104.253 49.5371 104.253 57.2759C104.253 63.1091 104.94 68.1082 105.917 70.2173H85.5195ZM108.035 70.2173H107.991C108.006 70.1855 108.021 70.152 108.035 70.119V70.2173Z" fill="#3F3D56"/>
<path d="M102.207 27.7877H102.207C98.5106 27.7877 95.5141 31.0832 95.5141 35.1483V40.3131H97.117L98.045 38.3995L97.813 40.3131H108.116L108.96 38.5735L108.749 40.3131H109.909V36.2578C109.909 31.5799 106.46 27.7877 102.207 27.7877Z" fill="#2F2E41"/>
<path d="M94.5382 61.5317L90.4289 63.2625L76.1489 74.7666C75.6238 75.4061 75.3021 76.1856 75.2243 77.0064C75.1216 78.3299 70.8068 85.2528 72.3478 86.169C73.8888 87.0853 79.4364 89.8341 79.7446 88.0016C80.0528 86.169 81.6965 78.3299 81.6965 78.3299L95.4628 66.1131L94.5382 61.5317Z" fill="#2F2E41"/>
<path d="M78.409 86.4745L76.6626 91.5648C76.6626 91.5648 78.5118 93.4992 77.5872 95.1281V100.727H76.1489L75.738 97.7751C75.738 97.7751 74.0998 100.69 73.2724 100.727C71.5378 100.806 68.103 101.417 68.0002 100.501C67.8975 99.5845 70.6013 98.6913 70.6013 98.6913L73.4778 90.8522L74.7106 86.0673L78.409 86.4745Z" fill="#2F2E41"/>
<path d="M105.222 60.2083C105.222 60.2083 106.147 69.1673 103.476 70.7962C100.805 72.4251 88.9906 77.6173 88.9906 77.6173C88.9906 77.6173 94.0245 82.3004 92.9972 83.4203C91.9698 84.5401 87.3468 87.5944 86.7304 86.9835C86.114 86.3727 79.2309 79.0426 80.0528 76.701C80.8746 74.3594 92.278 66.7239 92.278 66.7239L93.6136 61.939L94.0245 58.0703L98.3393 55.3215L105.222 60.2083Z" fill="#2F2E41"/>
<path d="M100.516 39.3494C102.881 39.3494 104.799 37.4492 104.799 35.1052C104.799 32.7613 102.881 30.8611 100.516 30.8611C98.1504 30.8611 96.233 32.7613 96.233 35.1052C96.233 37.4492 98.1504 39.3494 100.516 39.3494Z" fill="#FFB9B9"/>
<path d="M103.836 36.8435C103.836 36.8435 103.63 40.7122 106.815 41.9339C110 43.1555 98.9044 51.0965 98.9044 51.0965V42.2393C98.9044 42.2393 100.343 40.7122 98.9044 38.3706L103.836 36.8435Z" fill="#FFB9B9"/>
<path d="M110.667 55.0161L109.845 58.9866L107.38 72.6287C107.38 72.6287 109.434 78.4317 106.661 78.3299C103.887 78.2281 105.222 72.0179 105.222 72.0179L106.661 60.7173V56.3396L110.667 55.0161Z" fill="#FFB9B9"/>
<path d="M92.9972 53.0818L92.0726 56.645L87.8605 66.7239C87.8605 66.7239 84.984 71.5089 87.3468 71.407C89.7097 71.3052 89.7097 66.7239 89.7097 66.7239L94.5382 58.5794V53.998L92.9972 53.0818Z" fill="#FFB9B9"/>
<path d="M92.2781 82.8093L95.6683 85.9654C95.6683 85.9654 98.0311 85.4563 98.9557 88.2051C99.8803 90.9539 100.497 92.6846 100.497 92.6846L99.2639 93.3973L97.7229 91.2593C97.7229 91.2593 96.7983 95.128 95.8737 95.4334C94.9491 95.7388 90.3261 97.775 90.7371 95.4334L92.9972 92.1756C92.9972 92.1756 93.3054 88.5105 92.3808 88.2051C91.4562 87.8997 88.9906 84.8455 88.9906 84.8455L92.2781 82.8093Z" fill="#2F2E41"/>
<path d="M105.385 63.3642C105.385 63.3642 95.7284 59.9028 95.112 60.2082C94.6531 60.4091 94.1644 60.5348 93.6649 60.5804L93.6737 59.1902C93.6737 59.1902 96.8584 58.0703 98.6049 58.7829C100.351 59.4956 105.694 62.6516 105.694 62.6516L105.385 63.3642Z" fill="#3F3D56"/>
<path d="M99.5207 49.0604C99.5207 49.0604 102.295 45.9044 103.116 43.97C103.636 42.7974 104.591 41.8673 105.783 41.3718C105.783 41.3718 111.951 42.7484 111.849 45.1917C111.746 47.6351 107.945 51.402 107.945 51.402C107.945 51.402 108.459 64.9423 105.685 64.7387C105.086 64.0311 104.664 63.1942 104.452 62.2953C104.144 60.87 94.5896 59.3429 94.5896 59.3429C94.5896 59.3429 93.7677 60.7682 93.665 60.1574C93.5622 59.5465 94.4868 44.5809 94.4868 44.5809L99.3859 41.3718L99.5207 49.0604Z" fill="#D0CDE1"/>
<path d="M111.057 44.2083L111.126 44.2465C111.346 44.3686 111.529 44.5465 111.656 44.7618C111.783 44.9771 111.85 45.2221 111.85 45.4716L111.849 53.027C111.85 53.2324 111.895 53.4351 111.983 53.6212C112.071 53.8072 112.199 53.9721 112.357 54.1044C112.753 54.438 113.12 54.9187 112.362 55.1688C111.13 55.5761 106.301 57.6122 106.198 56.8996C106.096 56.1869 105.89 55.3725 106.198 55.3725C106.44 55.3725 107.877 48.0721 109.032 44.9507C109.103 44.7596 109.215 44.586 109.36 44.4418C109.504 44.2977 109.679 44.1865 109.872 44.1158C110.064 44.0452 110.27 44.0169 110.475 44.0329C110.68 44.0488 110.878 44.1087 111.057 44.2083V44.2083Z" fill="#D0CDE1"/>
<path d="M95.8737 44.2245L94.4355 44.6317L92.7917 51.6564C92.7917 51.6564 90.8398 52.0636 91.4562 52.7763C92.0726 53.4889 94.6409 55.3214 94.6409 55.3214L95.8737 44.2245Z" fill="#D0CDE1"/>
<path d="M104.11 29.8152C103.788 29.3867 103.37 29.0374 102.89 28.7945C102.41 28.5516 101.879 28.4216 101.34 28.4147H101.209C98.6752 28.4147 96.6214 30.6865 96.6214 33.489V33.489H97.4703L97.6074 32.4549L97.8084 33.489H102.843L103.265 32.6141L103.16 33.489H104.15C104.612 35.7637 103.948 38.0383 102.158 40.313H103.845L104.689 38.5633L104.478 40.313H107.694L108.327 36.2886C108.327 33.2746 106.56 30.7189 104.11 29.8152Z" fill="#2F2E41"/>
<path d="M18.0671 76.7749C19.1479 74.4429 19.908 68.9156 19.908 62.4661C19.908 53.9095 17.3756 45.3942 15.7257 45.3942H10.7467V108.156H15.7257V79.538H35.6415V108.156H40.6205V76.7749H18.0671ZM15.7257 76.6662C15.7418 76.7027 15.7578 76.7398 15.7741 76.7749H15.7257V76.6662Z" fill="#3F3D56"/>
<path d="M38.8199 65.3252C38.8199 65.3252 44.8162 67.789 42.915 69.2384C41.0137 70.6877 37.0649 67.4992 37.2112 67.0644C37.3574 66.6296 36.6262 65.6151 36.6262 65.6151L38.8199 65.3252Z" fill="#9F616A"/>
<path d="M33.5549 45.9043L35.4562 47.6435L35.8949 52.7161L37.3574 58.0786C37.3574 58.0786 39.8437 63.1513 39.4049 64.1658C38.9662 65.1803 39.8437 65.4702 39.8437 65.4702L36.4799 66.7746C36.4799 66.7746 32.8236 62.7165 32.8236 61.8469C32.8236 60.9773 33.5549 45.9043 33.5549 45.9043Z" fill="#575A88"/>
<path opacity="0.1" d="M33.5549 45.9043L35.4562 47.6435L35.8949 52.7161L37.3574 58.0786C37.3574 58.0786 39.8437 63.1513 39.4049 64.1658C38.9662 65.1803 39.8437 65.4702 39.8437 65.4702L36.4799 66.7746C36.4799 66.7746 32.8236 62.7165 32.8236 61.8469C32.8236 60.9773 33.5549 45.9043 33.5549 45.9043Z" fill="black"/>
<path d="M51.5438 98.08C51.5438 98.08 50.8125 101.413 50.6663 101.703C50.52 101.993 53.4451 103.008 53.4451 103.008L56.9551 100.544C56.9551 100.544 55.4926 97.3554 55.4926 96.7756L51.5438 98.08Z" fill="#575A88"/>
<path d="M32.3849 65.6151L33.4086 66.7746C33.4086 66.7746 54.615 69.3834 55.0538 73.4415C55.4926 77.4996 58.5638 96.6307 56.8088 97.2104C55.0538 97.7901 50.52 99.9641 50.52 98.8047C50.52 97.6452 47.595 81.7026 48.18 78.804C48.18 78.804 22.8785 75.6155 22.2935 71.9921C21.7085 68.3688 22.8785 66.7746 22.8785 66.7746L32.3849 65.6151Z" fill="#2F2E41"/>
<path opacity="0.1" d="M32.3849 65.6151L33.4086 66.7746C33.4086 66.7746 54.615 69.3834 55.0538 73.4415C55.4926 77.4996 58.5638 96.6307 56.8088 97.2104C55.0538 97.7901 50.52 99.9641 50.52 98.8047C50.52 97.6452 47.595 81.7026 48.18 78.804C48.18 78.804 22.8785 75.6155 22.2935 71.9921C21.7085 68.3688 22.8785 66.7746 22.8785 66.7746L32.3849 65.6151Z" fill="black"/>
<path d="M51.2513 101.413C51.2513 101.413 50.6663 100.109 50.3738 100.544C50.0813 100.979 49.0575 106.051 50.0813 106.051C51.105 106.051 60.4651 108.37 61.7814 108.08C63.0976 107.79 65.5839 108.225 65.2914 106.776C64.9989 105.327 63.5364 105.182 63.5364 105.182C63.5364 105.182 58.1251 101.993 57.8326 100.399C57.5401 98.8046 55.9313 99.6742 55.9313 99.6742V100.689C55.9313 100.689 52.8601 103.008 51.2513 101.413Z" fill="#2F2E41"/>
<path d="M23.4636 34.8894C23.4636 34.8894 24.4873 39.8171 22.2936 40.2519C20.0998 40.6867 25.0723 43.5853 25.0723 43.5853L28.2899 45.3245L30.6299 43.0056C30.6299 43.0056 28.5092 38.7301 30.118 35.5416C31.7268 32.3531 23.4636 34.8894 23.4636 34.8894Z" fill="#9F616A"/>
<path d="M30.6299 43.0056L28.2899 45.3245L25.0723 43.5853C25.0723 43.5853 20.0998 40.6867 22.2936 40.2519C23.7049 39.9722 23.7838 37.833 23.6625 36.3431C23.6228 35.8553 23.5564 35.37 23.4636 34.8894C23.4636 34.8894 31.7268 32.3531 30.118 35.5416C29.8736 36.034 29.704 36.5595 29.6149 37.1011C29.122 39.9664 30.6299 43.0056 30.6299 43.0056Z" fill="#9F616A"/>
<path d="M38.8199 102.283V105.616H44.3775L44.8162 104.312L44.2312 100.834L38.8199 102.283Z" fill="#575A88"/>
<path d="M15.8585 68.5137C15.8585 68.5137 15.8585 77.0647 19.3685 77.3546C22.8785 77.6445 35.4562 79.2387 35.4562 79.2387C35.4562 79.2387 36.1874 93.4421 37.5037 98.08C38.8199 102.718 37.6499 103.008 38.8199 103.298C39.9899 103.587 44.9625 102.573 44.8162 101.558C44.67 100.544 44.085 74.8908 44.085 74.8908C44.085 74.8908 45.4012 69.3833 27.8511 66.7745L15.8585 68.5137Z" fill="#2F2E41"/>
<path d="M39.2587 104.602C39.2587 104.602 38.3812 102.718 38.2349 103.298C38.0887 103.877 36.3336 108.95 38.0887 109.385C39.8437 109.819 45.4012 112.138 49.0575 111.993C52.7138 111.849 53.1525 111.704 53.1525 111.704C53.1525 111.704 54.1763 110.254 52.86 109.385C51.5438 108.515 46.1325 103.442 45.84 102.863C45.5475 102.283 43.3537 101.848 43.3537 102.863C43.3537 103.877 40.2824 105.906 39.2587 104.602Z" fill="#2F2E41"/>
<path opacity="0.1" d="M30.118 35.5416C29.8736 36.034 29.704 36.5595 29.6149 37.1011C28.8866 37.5373 28.3995 37.4257 27.4855 37.4257C26.1297 37.4257 25.5827 35.7083 24.7067 34.8169C24.638 33.9894 23.4636 34.8894 23.4636 34.8894C23.4636 34.8894 31.7268 32.3531 30.118 35.5416Z" fill="black"/>
<path d="M27.1198 37.3533C29.7853 37.3533 31.9461 35.2119 31.9461 32.5705C31.9461 29.929 29.7853 27.7877 27.1198 27.7877C24.4544 27.7877 22.2935 29.929 22.2935 32.5705C22.2935 35.2119 24.4544 37.3533 27.1198 37.3533Z" fill="#9F616A"/>
<path d="M35.4562 47.6435C35.4562 47.6435 34.7249 52.861 34.2862 54.7452C33.8474 56.6293 33.2624 65.3252 32.9699 66.4847C32.6774 67.6442 30.9224 67.934 27.4123 67.4992C27.192 67.4717 26.9704 67.4553 26.7484 67.4499C24.5868 67.3818 22.1137 68.1833 19.8248 68.8123C18.5086 69.1746 17.2523 69.479 16.151 69.5283C14.4837 69.6036 13.9953 67.7717 14.0523 65.789C14.1064 63.944 14.6344 61.9657 15.1272 61.2671C16.015 60.0091 15.1419 48.7145 15.4695 44.9897V44.9883C15.5192 44.4202 15.5967 44.0288 15.7122 43.8752C16.5898 42.7157 22.2936 39.8171 22.9327 39.9345C23.5703 40.0519 29.0211 43.4404 29.0211 43.4404C30.3374 43.4404 30.295 42.0259 30.295 42.0259C30.295 42.0259 31.2149 43.7303 32.9699 44.1651C34.7249 44.5999 35.4562 47.6435 35.4562 47.6435Z" fill="#575A88"/>
<path d="M25.6797 66.4329C25.6797 66.4329 35.1006 66.7301 33.4502 67.8393C31.7999 68.9485 24.4873 69.963 24.3411 68.5137C24.1948 67.0644 25.6797 66.4329 25.6797 66.4329Z" fill="#9F616A"/>
<path opacity="0.1" d="M26.7483 67.45C26.7791 68.0065 25.2683 69.2602 24.7798 70.108C24.5092 70.5776 22.4149 69.9588 19.8248 68.8123C17.8372 67.9283 15.9091 66.9184 14.0523 65.789C14.1064 63.9441 14.6344 61.9657 15.1272 61.2671C16.015 60.0091 15.1418 48.7145 15.4695 44.9898V44.9883C15.5476 44.949 15.6288 44.9161 15.7122 44.8898H17.4672C23.4635 47.6435 16.5897 59.528 16.5897 59.528C16.5897 59.528 25.6573 66.9195 26.5348 67.2094C26.5924 67.2202 26.6446 67.2497 26.6833 67.2933C26.722 67.3369 26.7449 67.392 26.7483 67.45V67.45Z" fill="black"/>
<path d="M17.4673 44.0201H15.7123C15.7123 44.0201 14.1035 44.4549 12.7872 47.3536C11.471 50.2522 6.64468 59.2381 10.886 62.7164C15.1272 66.1948 24.1948 70.2529 24.7798 69.2384C25.3648 68.2239 27.4124 66.6296 26.5348 66.3398C25.6573 66.0499 16.5898 58.6583 16.5898 58.6583C16.5898 58.6583 23.4636 46.7739 17.4673 44.0201Z" fill="#575A88"/>
<path d="M26.3774 30.3449C26.3774 30.3449 26.5892 27.4393 29.202 28.624C31.8149 29.8088 31.6444 26.5433 30.8548 25.9662C30.0652 25.3892 30.0902 25.2464 27.2024 25.6325C24.3145 26.0186 18.7078 26.6727 20.5207 32.427C22.3336 38.1813 23.9755 36.701 23.9755 36.701C23.9755 36.701 22.5344 31.5229 23.9945 32.5094L25.4546 33.4959L26.2251 33.3342L26.3774 30.3449Z" fill="#2F2E41"/>
<path d="M134.191 72.1831C134.191 69.5671 114.574 67.4464 90.3758 67.4464C66.1775 67.4464 46.5609 69.5671 46.5609 72.1831C46.5609 73.197 49.5091 74.1364 54.5272 74.9069V107.314H56.9171V75.241C64.9542 76.2677 76.9596 76.9198 90.3758 76.9198C103.903 76.9198 115.996 76.257 124.034 75.2155V107.314H126.423V74.8758C131.32 74.1112 134.191 73.1835 134.191 72.1831Z" fill="#3F3D56"/>
<path d="M95.8649 72.2819C100.792 72.2819 104.786 71.3086 104.786 70.1079C104.786 68.9073 100.792 67.934 95.8649 67.934C90.9378 67.934 86.9436 68.9073 86.9436 70.1079C86.9436 71.3086 90.9378 72.2819 95.8649 72.2819Z" fill="#F2F2F2"/>
<path d="M95.8649 71.89C99.9035 71.89 103.177 71.0922 103.177 70.108C103.177 69.1239 99.9035 68.326 95.8649 68.326C91.8263 68.326 88.5524 69.1239 88.5524 70.108C88.5524 71.0922 91.8263 71.89 95.8649 71.89Z" fill="#D0CDE1"/>
<path d="M62.6659 74.0212C67.593 74.0212 71.5872 73.0479 71.5872 71.8472C71.5872 70.6465 67.593 69.6732 62.6659 69.6732C57.7388 69.6732 53.7446 70.6465 53.7446 71.8472C53.7446 73.0479 57.7388 74.0212 62.6659 74.0212Z" fill="#F2F2F2"/>
<path d="M62.6659 73.6291C66.7045 73.6291 69.9785 72.8313 69.9785 71.8471C69.9785 70.863 66.7045 70.0652 62.6659 70.0652C58.6273 70.0652 55.3533 70.863 55.3533 71.8471C55.3533 72.8313 58.6273 73.6291 62.6659 73.6291Z" fill="#D0CDE1"/>
<path d="M95.6573 69.9545C98.0062 69.9545 99.9103 69.6565 99.9103 69.289C99.9103 68.9215 98.0062 68.6235 95.6573 68.6235C93.3084 68.6235 91.4042 68.9215 91.4042 69.289C91.4042 69.6565 93.3084 69.9545 95.6573 69.9545Z" fill="#9F616A"/>
<path d="M93.3909 69.0394C94.1326 69.0394 94.7339 68.7166 94.7339 68.3185C94.7339 67.9203 94.1326 67.5975 93.3909 67.5975C92.6491 67.5975 92.0478 67.9203 92.0478 68.3185C92.0478 68.7166 92.6491 69.0394 93.3909 69.0394Z" fill="#006D77"/>
<path d="M92.8872 69.0394C93.629 69.0394 94.2303 68.7166 94.2303 68.3185C94.2303 67.9203 93.629 67.5975 92.8872 67.5975C92.1455 67.5975 91.5442 67.9203 91.5442 68.3185C91.5442 68.7166 92.1455 69.0394 92.8872 69.0394Z" fill="#006D77"/>
<path d="M98.7631 69.2058C99.5049 69.2058 100.106 68.883 100.106 68.4849C100.106 68.0867 99.5049 67.7639 98.7631 67.7639C98.0214 67.7639 97.42 68.0867 97.42 68.4849C97.42 68.883 98.0214 69.2058 98.7631 69.2058Z" fill="#006D77"/>
<path d="M95.6853 69.0394C96.427 69.0394 97.0284 68.7166 97.0284 68.3185C97.0284 67.9203 96.427 67.5975 95.6853 67.5975C94.9435 67.5975 94.3422 67.9203 94.3422 68.3185C94.3422 68.7166 94.9435 69.0394 95.6853 69.0394Z" fill="#006D77"/>
<path d="M97.9797 69.0394C98.7214 69.0394 99.3228 68.7166 99.3228 68.3185C99.3228 67.9203 98.7214 67.5975 97.9797 67.5975C97.2379 67.5975 96.6366 67.9203 96.6366 68.3185C96.6366 68.7166 97.2379 69.0394 97.9797 69.0394Z" fill="#006D77"/>
<path d="M99.7145 67.8748C97.2871 68.6911 94.5637 68.6911 91.5441 67.8748V67.7625C91.5436 66.9139 91.8723 66.0975 92.4622 65.4823C93.0521 64.8671 93.858 64.5002 94.7133 64.4574C95.4331 64.4215 96.1544 64.4224 96.8741 64.4601C97.6435 64.5046 98.3666 64.8393 98.8949 65.3955C99.4231 65.9517 99.7164 66.6873 99.7145 67.4511V67.8748Z" fill="#3F3D56"/>
<path d="M98.5228 70.9309C96.7289 71.1104 94.9214 71.1104 93.1276 70.9309C92.7021 70.8895 92.3072 70.6929 92.0198 70.3792C91.7324 70.0656 91.5728 69.6572 91.5721 69.2335H100.078C100.078 69.6572 99.918 70.0656 99.6306 70.3792C99.3431 70.6929 98.9483 70.8895 98.5228 70.9309V70.9309Z" fill="#3F3D56"/>
<path d="M94.5101 65.4903C94.315 65.5708 94.1058 65.6123 93.8945 65.6123C93.6832 65.6123 93.474 65.5708 93.2789 65.4903C93.474 65.4098 93.6832 65.3683 93.8945 65.3683C94.1058 65.3683 94.315 65.4098 94.5101 65.4903V65.4903Z" fill="#D0CDE1"/>
<path d="M95.7412 65.9893C95.5462 66.0699 95.337 66.1113 95.1257 66.1113C94.9144 66.1113 94.7052 66.0699 94.5101 65.9893C94.7052 65.9088 94.9144 65.8673 95.1257 65.8673C95.337 65.8673 95.5462 65.9088 95.7412 65.9893V65.9893Z" fill="#D0CDE1"/>
<path d="M95.8531 65.102C95.6581 65.1825 95.4489 65.224 95.2376 65.224C95.0263 65.224 94.8171 65.1825 94.622 65.102C94.8171 65.0214 95.0263 64.98 95.2376 64.98C95.4489 64.98 95.6581 65.0214 95.8531 65.102V65.102Z" fill="#D0CDE1"/>
<path d="M98.1476 65.102C97.9525 65.1825 97.7433 65.224 97.532 65.224C97.3207 65.224 97.1115 65.1825 96.9164 65.102C97.1115 65.0214 97.3207 64.98 97.532 64.98C97.7433 64.98 97.9525 65.0214 98.1476 65.102V65.102Z" fill="#D0CDE1"/>
<path d="M97.532 65.6011C97.3369 65.6817 97.1277 65.7231 96.9164 65.7231C96.7051 65.7231 96.4959 65.6817 96.3008 65.6011C96.4959 65.5206 96.7051 65.4791 96.9164 65.4791C97.1277 65.4791 97.3369 65.5206 97.532 65.6011V65.6011Z" fill="#D0CDE1"/>
<path d="M62.6045 71.6936C64.9534 71.6936 66.8576 71.3957 66.8576 71.0281C66.8576 70.6606 64.9534 70.3627 62.6045 70.3627C60.2556 70.3627 58.3515 70.6606 58.3515 71.0281C58.3515 71.3957 60.2556 71.6936 62.6045 71.6936Z" fill="#9F616A"/>
<path d="M60.3381 70.7787C61.0798 70.7787 61.6812 70.4559 61.6812 70.0577C61.6812 69.6596 61.0798 69.3368 60.3381 69.3368C59.5963 69.3368 58.995 69.6596 58.995 70.0577C58.995 70.4559 59.5963 70.7787 60.3381 70.7787Z" fill="#006D77"/>
<path d="M59.8344 70.7787C60.5762 70.7787 61.1775 70.4559 61.1775 70.0577C61.1775 69.6596 60.5762 69.3368 59.8344 69.3368C59.0927 69.3368 58.4914 69.6596 58.4914 70.0577C58.4914 70.4559 59.0927 70.7787 59.8344 70.7787Z" fill="#006D77"/>
<path d="M65.7103 70.945C66.4521 70.945 67.0534 70.6223 67.0534 70.2241C67.0534 69.8259 66.4521 69.5032 65.7103 69.5032C64.9686 69.5032 64.3673 69.8259 64.3673 70.2241C64.3673 70.6223 64.9686 70.945 65.7103 70.945Z" fill="#006D77"/>
<path d="M62.6325 70.7787C63.3742 70.7787 63.9756 70.4559 63.9756 70.0577C63.9756 69.6596 63.3742 69.3368 62.6325 69.3368C61.8907 69.3368 61.2894 69.6596 61.2894 70.0577C61.2894 70.4559 61.8907 70.7787 62.6325 70.7787Z" fill="#006D77"/>
<path d="M64.9269 70.7787C65.6686 70.7787 66.27 70.4559 66.27 70.0577C66.27 69.6596 65.6686 69.3368 64.9269 69.3368C64.1851 69.3368 63.5838 69.6596 63.5838 70.0577C63.5838 70.4559 64.1851 70.7787 64.9269 70.7787Z" fill="#006D77"/>
<path d="M66.6617 69.6141C64.2344 70.4304 61.5109 70.4304 58.4914 69.6141V69.5018C58.4909 68.6531 58.8196 67.8368 59.4094 67.2216C59.9993 66.6064 60.8053 66.2394 61.6606 66.1967C62.3804 66.1608 63.1016 66.1617 63.8213 66.1994C64.5908 66.2438 65.3139 66.5785 65.8421 67.1348C66.3703 67.691 66.6636 68.4265 66.6617 69.1904V69.6141Z" fill="#3F3D56"/>
<path d="M65.47 72.6702C63.6762 72.8497 61.8686 72.8497 60.0748 72.6702C59.6493 72.6288 59.2544 72.4322 58.967 72.1185C58.6796 71.8048 58.52 71.3965 58.5193 70.9728H67.0254C67.0248 71.3965 66.8652 71.8048 66.5778 72.1185C66.2903 72.4322 65.8955 72.6288 65.47 72.6702V72.6702Z" fill="#3F3D56"/>
<path d="M61.4573 67.2294C61.2623 67.31 61.053 67.3514 60.8417 67.3514C60.6304 67.3514 60.4212 67.31 60.2262 67.2294C60.4212 67.1489 60.6304 67.1074 60.8417 67.1074C61.053 67.1074 61.2623 67.1489 61.4573 67.2294Z" fill="#D0CDE1"/>
<path d="M62.6885 67.7286C62.4934 67.8091 62.2842 67.8506 62.0729 67.8506C61.8616 67.8506 61.6524 67.8091 61.4573 67.7286C61.6524 67.648 61.8616 67.6066 62.0729 67.6066C62.2842 67.6066 62.4934 67.648 62.6885 67.7286Z" fill="#D0CDE1"/>
<path d="M62.8004 66.8412C62.6053 66.9218 62.3961 66.9632 62.1848 66.9632C61.9735 66.9632 61.7643 66.9218 61.5692 66.8412C61.7643 66.7607 61.9735 66.7192 62.1848 66.7192C62.3961 66.7192 62.6053 66.7607 62.8004 66.8412V66.8412Z" fill="#D0CDE1"/>
<path d="M65.0948 66.8412C64.8997 66.9218 64.6905 66.9632 64.4792 66.9632C64.2679 66.9632 64.0587 66.9218 63.8636 66.8412C64.0587 66.7607 64.2679 66.7192 64.4792 66.7192C64.6905 66.7192 64.8997 66.7607 65.0948 66.8412Z" fill="#D0CDE1"/>
<path d="M64.4792 67.3404C64.2842 67.4209 64.075 67.4624 63.8636 67.4624C63.6523 67.4624 63.4431 67.4209 63.2481 67.3404C63.4431 67.2598 63.6523 67.2184 63.8636 67.2184C64.075 67.2184 64.2842 67.2598 64.4792 67.3404V67.3404Z" fill="#D0CDE1"/>
<path d="M103.54 69.5189L103.56 69.9678L103.587 70.5501C103.587 70.5501 100.888 70.7012 100.344 71.2705C100.332 71.2827 100.32 71.296 100.31 71.31L99.2287 71.0755L99.226 70.5479C99.226 70.5479 99.2409 70.5396 99.2699 70.5241C99.2765 70.5207 99.2848 70.5164 99.2931 70.512C100.616 69.8702 102.067 69.5308 103.54 69.5189Z" fill="#006D77"/>
<path opacity="0.1" d="M103.54 69.5189L103.56 69.9678C102.364 70.0045 100.099 70.7114 100.099 70.7114L99.2699 70.5241C100.598 69.8739 102.058 69.5302 103.54 69.5189V69.5189Z" fill="black"/>
<path opacity="0.1" d="M99.2931 70.512L100.099 70.7114L100.344 71.2705C100.332 71.2827 100.32 71.2959 100.31 71.31L99.2287 71.0755L99.226 70.5478C99.226 70.5478 99.2409 70.5396 99.2699 70.5241C99.2765 70.5207 99.2848 70.5163 99.2931 70.512Z" fill="white"/>
<path d="M70.9257 71.4031L70.9463 71.852L70.9725 72.4343C70.9725 72.4343 68.2739 72.5854 67.7303 73.1547C67.7177 73.1669 67.7061 73.1801 67.6956 73.1942L66.6147 72.9597L66.612 72.432C66.612 72.432 66.6269 72.4238 66.6559 72.4083C66.6625 72.4049 66.6708 72.4005 66.6791 72.3962C68.0018 71.7543 69.453 71.415 70.9257 71.4031Z" fill="#006D77"/>
<path opacity="0.1" d="M70.9257 71.4031L70.9463 71.852C69.7496 71.8887 67.4849 72.5956 67.4849 72.5956L66.6559 72.4083C67.9843 71.758 69.4441 71.4143 70.9257 71.4031Z" fill="black"/>
<path opacity="0.1" d="M66.6791 72.3961L67.4849 72.5955L67.7303 73.1546C67.7177 73.1668 67.7061 73.1801 67.6956 73.1941L66.6147 72.9596L66.612 72.432C66.612 72.432 66.6269 72.4237 66.6559 72.4082C66.6625 72.4048 66.6708 72.4005 66.6791 72.3961Z" fill="white"/>
<path d="M119.792 56.072C119.562 55.844 119.292 55.6592 118.996 55.5265V49.895C118.996 49.8289 118.969 49.7656 118.922 49.7189C118.875 49.6722 118.811 49.646 118.744 49.646H117.338C117.271 49.646 117.207 49.6722 117.16 49.7189C117.113 49.7656 117.086 49.8289 117.086 49.895V55.4185C116.578 55.5856 116.135 55.9072 115.822 56.3377C115.508 56.7682 115.339 57.2856 115.339 57.8165V69.8969C115.339 70.0423 115.368 70.1863 115.424 70.3206C115.48 70.4549 115.562 70.5769 115.666 70.6797C115.77 70.7825 115.893 70.8641 116.029 70.9197C116.164 70.9753 116.309 71.004 116.456 71.004H119.469C119.764 71.004 120.047 70.8879 120.256 70.6812C120.464 70.4746 120.581 70.1943 120.581 69.9021V57.9589C120.582 57.6084 120.512 57.2613 120.377 56.9374C120.242 56.6136 120.043 56.3195 119.792 56.072Z" fill="#3F3D56"/>
<path d="M120.581 59.5874H115.339V66.4502H120.581V59.5874Z" fill="#006D77"/>
<path d="M119.109 50.0308H118.996V49.895C118.996 49.8289 118.969 49.7656 118.922 49.7189C118.875 49.6722 118.811 49.646 118.744 49.646H117.338C117.271 49.646 117.207 49.6722 117.16 49.7189C117.113 49.7656 117.086 49.8289 117.086 49.895V50.0308H116.973V50.6081H117.086V53.5584H118.996V50.6081H119.109V50.0308Z" fill="#006D77"/>
<path d="M77.8166 60.9601C77.6779 60.6667 77.5684 60.4591 77.5301 60.3877C75.1769 60.9632 73.6068 60.4769 73.3592 60.3909C73.2382 60.6175 72.4823 62.0659 72.1767 63.4545C71.9007 64.707 72.0609 65.5467 72.6529 65.9503L72.6704 65.9627L72.6743 65.9652C73.3277 66.3919 73.951 66.7697 74.5267 67.0882C74.6043 67.131 74.6774 67.1708 74.7461 67.2075L74.7534 67.2114L74.7586 67.218C74.8377 67.3166 74.9112 67.4195 74.979 67.5261C75.1062 67.7024 75.1834 67.9092 75.2025 68.1251V74.3462L75.1629 74.347C73.6619 74.3773 72.7328 74.6295 72.7328 74.8457C72.7328 75.0829 73.8469 75.3473 75.4455 75.3473C77.0441 75.3473 78.1582 75.0829 78.1582 74.8457C78.1582 74.6327 77.2448 74.382 75.7693 74.3482L75.7295 74.3472L75.7665 68.5927C75.7674 68.2031 75.8588 67.8189 76.0337 67.4699C76.0635 67.4112 76.0955 67.3542 76.1288 67.3004C76.1556 67.2572 76.184 67.215 76.2131 67.1751L76.2185 67.1678L76.2265 67.1634C76.3004 67.1234 76.3789 67.0801 76.462 67.0334L76.4717 67.0282C77.0166 66.7232 77.6037 66.3656 78.2169 65.9651C78.7643 65.6074 78.9549 64.8845 78.7834 63.8166C78.62 62.7983 78.1675 61.7012 77.8166 60.9601Z" fill="#D0CDE1"/>
<path d="M77.9572 65.8346C77.3144 66.2546 76.7836 66.5695 76.3777 66.7964H76.3774C75.7852 66.7563 75.1906 66.7729 74.6016 66.8458C74.1856 66.6157 73.6242 66.2856 72.9337 65.8346C72.9271 65.8303 72.9206 65.826 72.914 65.8213V65.8209C72.2806 65.3891 72.2649 64.4746 72.471 63.5396C72.9952 63.4819 73.831 63.5071 74.954 63.9047C76.2838 64.3754 77.6759 64.1092 78.4825 63.8671C78.615 64.6922 78.5342 65.4577 77.9572 65.8346Z" fill="#006D77"/>
<path d="M74.135 63.2012C74.2355 63.2012 74.317 63.1204 74.317 63.0208C74.317 62.9212 74.2355 62.8405 74.135 62.8405C74.0344 62.8405 73.9529 62.9212 73.9529 63.0208C73.9529 63.1204 74.0344 63.2012 74.135 63.2012Z" fill="#006D77"/>
<path d="M73.6253 64.8606C73.7259 64.8606 73.8074 64.7799 73.8074 64.6803C73.8074 64.5806 73.7259 64.4999 73.6253 64.4999C73.5248 64.4999 73.4433 64.5806 73.4433 64.6803C73.4433 64.7799 73.5248 64.8606 73.6253 64.8606Z" fill="white"/>
<path d="M74.5718 63.5619C74.6321 63.5619 74.681 63.5135 74.681 63.4537C74.681 63.3939 74.6321 63.3455 74.5718 63.3455C74.5115 63.3455 74.4626 63.3939 74.4626 63.4537C74.4626 63.5135 74.5115 63.5619 74.5718 63.5619Z" fill="#006D77"/>
<path d="M75.0086 65.6182C75.0689 65.6182 75.1178 65.5697 75.1178 65.51C75.1178 65.4502 75.0689 65.4017 75.0086 65.4017C74.9483 65.4017 74.8994 65.4502 74.8994 65.51C74.8994 65.5697 74.9483 65.6182 75.0086 65.6182Z" fill="white"/>
<path d="M74.2442 65.7265C74.3045 65.7265 74.3534 65.678 74.3534 65.6182C74.3534 65.5585 74.3045 65.51 74.2442 65.51C74.1839 65.51 74.135 65.5585 74.135 65.6182C74.135 65.678 74.1839 65.7265 74.2442 65.7265Z" fill="white"/>
<path d="M76.4647 62.1189C76.5251 62.1189 76.5739 62.0705 76.5739 62.0107C76.5739 61.9509 76.5251 61.9025 76.4647 61.9025C76.4044 61.9025 76.3555 61.9509 76.3555 62.0107C76.3555 62.0705 76.4044 62.1189 76.4647 62.1189Z" fill="#006D77"/>
<path d="M86.3546 55.0953C86.2158 54.8018 86.1063 54.5943 86.068 54.5228C83.7148 55.0983 82.1447 54.612 81.8972 54.526C81.7761 54.7526 81.0202 56.201 80.7147 57.5896C80.4387 58.8422 80.5989 59.6819 81.1908 60.0854L81.2083 60.0978L81.2122 60.1003C81.8656 60.527 82.4889 60.9049 83.0646 61.2233C83.1422 61.2661 83.2153 61.3059 83.284 61.3426L83.2914 61.3466L83.2965 61.3531C83.3756 61.4518 83.4492 61.5546 83.5169 61.6612C83.6441 61.8375 83.7213 62.0443 83.7405 62.2602V68.4813L83.7008 68.4822C82.1998 68.5125 81.2707 68.7647 81.2707 68.9809C81.2707 69.2181 82.3848 69.4824 83.9834 69.4824C85.582 69.4824 86.6961 69.2181 86.6961 68.9809C86.6961 68.7679 85.7827 68.5171 84.3072 68.4833L84.2674 68.4824L84.3045 62.7278C84.3054 62.3382 84.3968 61.954 84.5716 61.605C84.6014 61.5464 84.6334 61.4893 84.6667 61.4356C84.6935 61.3923 84.7219 61.3501 84.7511 61.3103L84.7564 61.3029L84.7644 61.2986C84.8384 61.2586 84.9169 61.2152 84.9999 61.1685L85.0097 61.1633C85.5545 60.8583 86.1416 60.5007 86.7548 60.1002C87.3023 59.7426 87.4929 59.0197 87.3213 57.9517C87.1579 56.9334 86.7054 55.8363 86.3546 55.0953Z" fill="#D0CDE1"/>
<path d="M86.4952 59.9698C85.8523 60.3897 85.3216 60.7046 84.9157 60.9315H84.9153C84.3232 60.8915 83.7285 60.908 83.1396 60.9809C82.7235 60.7508 82.1622 60.4207 81.4716 59.9698C81.465 59.9654 81.4585 59.9611 81.4519 59.9564V59.9561C80.8185 59.5243 80.8029 58.6098 81.0089 57.6747C81.5331 57.617 82.3689 57.6423 83.492 58.0398C84.8217 58.5106 86.2138 58.2443 87.0205 58.0023C87.153 58.8273 87.0722 59.5928 86.4952 59.9698Z" fill="#006D77"/>
<path d="M82.6729 57.3365C82.7734 57.3365 82.8549 57.2557 82.8549 57.1561C82.8549 57.0565 82.7734 56.9757 82.6729 56.9757C82.5724 56.9757 82.4909 57.0565 82.4909 57.1561C82.4909 57.2557 82.5724 57.3365 82.6729 57.3365Z" fill="#006D77"/>
<path d="M82.1632 58.9959C82.2638 58.9959 82.3453 58.9151 82.3453 58.8155C82.3453 58.7159 82.2638 58.6351 82.1632 58.6351C82.0627 58.6351 81.9812 58.7159 81.9812 58.8155C81.9812 58.9151 82.0627 58.9959 82.1632 58.9959Z" fill="white"/>
<path d="M83.1097 57.6972C83.17 57.6972 83.2189 57.6487 83.2189 57.5889C83.2189 57.5292 83.17 57.4807 83.1097 57.4807C83.0494 57.4807 83.0005 57.5292 83.0005 57.5889C83.0005 57.6487 83.0494 57.6972 83.1097 57.6972Z" fill="#006D77"/>
<path d="M83.5466 59.7534C83.6069 59.7534 83.6558 59.705 83.6558 59.6452C83.6558 59.5854 83.6069 59.537 83.5466 59.537C83.4862 59.537 83.4373 59.5854 83.4373 59.6452C83.4373 59.705 83.4862 59.7534 83.5466 59.7534Z" fill="white"/>
<path d="M82.7821 59.8616C82.8424 59.8616 82.8913 59.8131 82.8913 59.7534C82.8913 59.6936 82.8424 59.6451 82.7821 59.6451C82.7218 59.6451 82.6729 59.6936 82.6729 59.7534C82.6729 59.8131 82.7218 59.8616 82.7821 59.8616Z" fill="white"/>
<path d="M85.0027 56.2542C85.063 56.2542 85.1119 56.2057 85.1119 56.1459C85.1119 56.0862 85.063 56.0377 85.0027 56.0377C84.9424 56.0377 84.8935 56.0862 84.8935 56.1459C84.8935 56.2057 84.9424 56.2542 85.0027 56.2542Z" fill="#006D77"/>
</g>
<defs>
<clipPath id="clip0_345_1266">
<rect width="146" height="112" fill="white"/>
</clipPath>
</defs>
</svg>
